{
classes = (
{
automatic = 1;
code = "A Aacute Abreve Acircumflex Adieresis Agrave Amacron Aogonek Aring Atilde AE B C Cacute Ccaron Ccedilla D Eth Dcaron Dcroat E Eacute Ecaron Ecircumflex Edieresis Edotaccent Egrave Emacron Eogonek F G Gbreve Gcommaaccent H I Iacute Icircumflex Idieresis Idotaccent Igrave Imacron Iogonek J K Kcommaaccent L Lacute Lcaron Lcommaaccent Lslash M N Nacute Ncaron Ncommaaccent Ntilde O Oacute Ocircumflex Odieresis Ograve Ohungarumlaut Omacron Oslash Otilde OE P Thorn Q R Racute Rcaron Rcommaaccent S Sacute Scaron Scedilla Scommaaccent T Tcaron Tcedilla Tcommaaccent U Uacute Ucircumflex Udieresis Ugrave Uhungarumlaut Umacron Uogonek Uring V W X Y Yacute Ydieresis Z Zacute Zcaron Zdotaccent";
name = Uppercase;
}
);
copyright = "Copyright (c) 2013, Botio Nikoltchev (nikoltchev@lettersoup.de www.lettersoup.de), with Reserved Font Name \"Ropa Sans\"";
customParameters = (
{
name = license;
value = "This Font Software is licensed under the SIL Open Font License\012Version 1.1. This license is available with a FAQ at: http://scripts.sil.org/OFL";
},
{
name = licenseURL;
value = "http://scripts.sil.org/OFL";
}
);
date = "2013-12-12 14:11:30 +0000";
designer = "Botio Nikoltchev";
designerURL = www.lettersoup.de;
familyName = "Ropa Sans ";
featurePrefixes = (
{
automatic = 1;
code = "languagesystem DFLT dflt;\012languagesystem grek dflt;\012languagesystem latn dflt;\012languagesystem latn ROM;\012languagesystem latn MOL;\012";
name = Languagesystems;
}
);
features = (
{
automatic = 1;
code = "feature locl;\012feature sups;\012feature frac;\012feature ordn;\012feature case;\012";
name = aalt;
},
{
automatic = 1;
code = "script latn;\012language ROM;\012sub Scedilla by Scommaaccent;\012sub scedilla by scommaaccent;\012sub Tcedilla by Tcommaaccent;\012sub tcedilla by tcommaaccent;\012language MOL;\012sub Scedilla by Scommaaccent;\012sub scedilla by scommaaccent;\012sub Tcedilla by Tcommaaccent;\012sub tcedilla by tcommaaccent;\012";
name = locl;
},

glyphs = (
{
color = 4;
glyphname = A;
lastChange = "2013-12-12 14:14:31 +0100";
layers = (
{
anchors = (
{
name = ogonek;
position = "{479, 10}";
},
{
name = top;
position = "{266, 655}";
},
{
name = topleft;
position = "{160, 655}";
}
);
hints = (
{
horizontal = 1;
place = "{152.000000, 76.000000}";
},
{
horizontal = 1;
place = "{21.000000, 21.000000}";
target = up;
type = BottomGhost;
},
{
horizontal = 1;
place = "{655.000000, -20.000000}";
target = down;
type = TopGhost;
}
);
layerId = "3BA737DF-2981-4A42-8A92-02FACC3A7684";
name = Regular;
paths = (
{
closed = 1;
nodes = (
"213 655 LINE",
"13 0 LINE",
"100 0 LINE",
"143 152 LINE",
"384 152 LINE",
"427 0 LINE",
"519 0 LINE",
"318 655 LINE"
);
},
{
closed = 1;
nodes = (
"363 228 LINE",
"164 228 LINE",
"264 577 LINE"
);
}
);
width = 532;
}
);
leftKerningGroup = A;
rightKerningGroup = A;
unicode = 0041;
},
{
color = 4;
glyphname = Aogonek;
lastChange = "2013-12-12 14:14:31 +0100";
layers = (
{
hints = (
{
place = "{369.000000, 72.000000}";
},
{
place = "{369.000000, 147.000000}";
},
{
horizontal = 1;
place = "{-197.000000, 63.000000}";
},
{
horizontal = 1;
place = "{152.000000, 76.000000}";
},
{
horizontal = 1;
place = "{0.000000, -20.000000}";
target = down;
type = TopGhost;
},
{
horizontal = 1;
place = "{655.000000, -20.000000}";
target = down;
type = TopGhost;
}
);
layerId = "3BA737DF-2981-4A42-8A92-02FACC3A7684";
name = Regular;
paths = (
{
closed = 1;
nodes = (
"213 655 LINE",
"13 0 LINE",
"100 0 LINE",
"143 152 LINE",
"384 152 LINE",
"427 0 LINE",
"391 -25 OFFCURVE",
"369 -65 OFFCURVE",
"369 -103 CURVE SMOOTH",
"369 -116 LINE SMOOTH",
"369 -164 OFFCURVE",
"400 -197 OFFCURVE",
"468 -197 CURVE SMOOTH",
"483 -197 OFFCURVE",
"499 -196 OFFCURVE",
"516 -192 CURVE",
"516 -131 LINE",
"504 -133 OFFCURVE",
"492 -134 OFFCURVE",
"483 -134 CURVE SMOOTH",
"453 -134 OFFCURVE",
"441 -123 OFFCURVE",
"441 -97 CURVE SMOOTH",
"441 -87 LINE SMOOTH",
"441 -53 OFFCURVE",
"461 -19 OFFCURVE",
"497 0 CURVE",
"519 0 LINE",
"318 655 LINE"
);
},
{
closed = 1;
nodes = (
"362 228 LINE",
"164 228 LINE",
"264 577 LINE"
);
}
);
width = 532;
}
);
leftKerningGroup = A;
leftMetricsKey = A;
rightKerningGroup = A;
unicode = 0104;
},
{
color = 4;
glyphname = Aring;
lastChange = "2013-12-12 14:14:31 +0100";
layers = (
{
hints = (
{
place = "{151.000000, 65.000000}";
},
{
place = "{316.000000, 65.000000}";
},
{
horizontal = 1;
place = "{745.000000, 55.000000}";
},
{
horizontal = 1;
place = "{152.000000, 76.000000}";
},
{
horizontal = 1;
place = "{21.000000, 21.000000}";
target = up;
type = BottomGhost;
},
{
horizontal = 1;
place = "{655.000000, -20.000000}";
target = down;
type = TopGhost;
}
);
layerId = "3BA737DF-2981-4A42-8A92-02FACC3A7684";
name = Regular;
paths = (
{
closed = 1;
nodes = (
"196 800 OFFCURVE",
"151 768 OFFCURVE",
"151 700 CURVE SMOOTH",
"151 657 OFFCURVE",
"169 628 OFFCURVE",
"200 613 CURVE",
"13 0 LINE",
"100 0 LINE",
"143 152 LINE",
"384 152 LINE",
"427 0 LINE",
"519 0 LINE",
"331 612 LINE",
"362 627 OFFCURVE",
"381 656 OFFCURVE",
"381 700 CURVE SMOOTH",
"381 768 OFFCURVE",
"335 800 OFFCURVE",
"266 800 CURVE SMOOTH"
);
},
{
closed = 1;
nodes = (
"363 228 LINE",
"164 228 LINE",
"264 582 LINE"
);
},
{
closed = 1;
nodes = (
"303 745 OFFCURVE",
"316 726 OFFCURVE",
"316 700 CURVE SMOOTH",
"316 674 OFFCURVE",
"303 655 OFFCURVE",
"266 655 CURVE SMOOTH",
"229 655 OFFCURVE",
"216 674 OFFCURVE",
"216 700 CURVE SMOOTH",
"216 726 OFFCURVE",
"229 745 OFFCURVE",
"266 745 CURVE SMOOTH"
);
}
);
width = 532;
}
);
leftKerningGroup = A;
leftMetricsKey = A;
rightKerningGroup = A;
rightMetricsKey = A;
unicode = 00C5;
},
{
color = 4;
glyphname = AE;
lastChange = "2013-12-12 14:14:31 +0100";
layers = (
{
anchors = (
{
name = top;
position = "{533, 655}";
}
);
hints = (
{
place = "{344.000000, 85.000000}";
},
{
horizontal = 1;
place = "{0.000000, 77.000000}";
},
{
horizontal = 1;
place = "{152.000000, 76.000000}";
},
{
horizontal = 1;
place = "{295.000000, 76.000000}";
},
{
horizontal = 1;
place = "{578.000000, 77.000000}";
}
);
layerId = "3BA737DF-2981-4A42-8A92-02FACC3A7684";
name = Regular;
paths = (
{
closed = 1;
nodes = (
"306 655 LINE",
"13 0 LINE",
"102 0 LINE",
"168 152 LINE",
"362 152 LINE",
"362 0 LINE",
"707 0 LINE",
"707 77 LINE",
"447 77 LINE",
"447 295 LINE",
"687 295 LINE",
"687 371 LINE",
"447 371 LINE",
"447 578 LINE",
"707 578 LINE",
"707 655 LINE"
);
},
{
closed = 1;
nodes = (
"362 228 LINE",
"201 228 LINE",
"362 597 LINE"
);
}
);
width = 772;
}
);
leftKerningGroup = A;
leftMetricsKey = A;
rightKerningGroup = E;
unicode = 00C6;
},
{
color = 4;
glyphname = B;
lastChange = "2013-12-12 14:14:31 +0100";
layers = (
{
hints = (
{
place = "{75.000000, 85.000000}";
},
{
place = "{381.000000, 85.000000}";
},
{
place = "{408.000000, 85.000000}";
},
{
horizontal = 1;
place = "{-12.000000, 74.000000}";
},
{
horizontal = 1;
place = "{298.000000, 69.000000}";
},
{
horizontal = 1;
place = "{594.000000, 73.000000}";
}
);
layerId = "3BA737DF-2981-4A42-8A92-02FACC3A7684";
name = Regular;
paths = (
{
closed = 1;
nodes = (
"180 667 OFFCURVE",
"121 665 OFFCURVE",
"75 663 CURVE",
"75 -6 LINE",
"172 -11 OFFCURVE",
"197 -12 OFFCURVE",
"258 -12 CURVE SMOOTH",
"421 -12 OFFCURVE",
"493 64 OFFCURVE",
"493 169 CURVE SMOOTH",
"493 191 LINE SMOOTH",
"493 269 OFFCURVE",
"448 324 OFFCURVE",
"374 340 CURVE",
"438 368 OFFCURVE",
"466 419 OFFCURVE",
"466 485 CURVE SMOOTH",
"466 507 LINE SMOOTH",
"466 602 OFFCURVE",
"395 667 OFFCURVE",
"251 667 CURVE SMOOTH"
);
},
{
closed = 1;
nodes = (
"365 298 OFFCURVE",
"408 261 OFFCURVE",
"408 195 CURVE SMOOTH",
"408 174 LINE SMOOTH",
"408 107 OFFCURVE",
"364 62 OFFCURVE",
"258 62 CURVE SMOOTH",
"224 62 OFFCURVE",
"214 63 OFFCURVE",
"160 68 CURVE",
"160 298 LINE",
"264 298 LINE SMOOTH"
);
},
{
closed = 1;
nodes = (
"341 594 OFFCURVE",
"381 558 OFFCURVE",
"381 494 CURVE SMOOTH",
"381 477 LINE SMOOTH",
"381 408 OFFCURVE",
"339 367 OFFCURVE",
"258 367 CURVE SMOOTH",
"160 367 LINE",
"160 591 LINE",
"188 593 OFFCURVE",
"214 594 OFFCURVE",
"238 594 CURVE SMOOTH"
);
}
);
width = 528;
}
);
leftKerningGroup = H;
leftMetricsKey = H;
rightKerningGroup = B;
unicode = 0042;
},
{
color = 4;
glyphname = C;
lastChange = "2013-12-12 14:14:31 +0100";
layers = (
{
anchors = (
{
name = bottom;
position = "{238, 0}";
},
{
name = top;
position = "{267, 655}";
}
);
hints = (
{
place = "{70.000000, 85.000000}";
},
{
horizontal = 1;
place = "{-12.000000, 77.000000}";
},
{
horizontal = 1;
place = "{592.000000, 75.000000}";
}
);
layerId = "3BA737DF-2981-4A42-8A92-02FACC3A7684";
name = Regular;
paths = (
{
closed = 1;
nodes = (
"127 667 OFFCURVE",
"70 601 OFFCURVE",
"70 465 CURVE SMOOTH",
"70 190 LINE SMOOTH",
"70 56 OFFCURVE",
"125 -12 OFFCURVE",
"283 -12 CURVE SMOOTH",
"328 -12 OFFCURVE",
"377 -3 OFFCURVE",
"421 4 CURVE",
"419 81 LINE",
"386 75 OFFCURVE",
"332 65 OFFCURVE",
"283 65 CURVE SMOOTH",
"191 65 OFFCURVE",
"155 99 OFFCURVE",
"155 185 CURVE SMOOTH",
"155 471 LINE SMOOTH",
"155 558 OFFCURVE",
"192 592 OFFCURVE",
"283 592 CURVE SMOOTH",
"332 592 OFFCURVE",
"386 582 OFFCURVE",
"419 576 CURVE",
"421 651 LINE",
"377 658 OFFCURVE",
"328 667 OFFCURVE",
"283 667 CURVE SMOOTH"
);
}
);
width = 476;
}
);
leftKerningGroup = O;
leftMetricsKey = C;
rightKerningGroup = C;
rightMetricsKey = C;
unicode = 0043;
},
{
color = 4;
glyphname = Ccedilla;
lastChange = "2013-12-12 14:14:31 +0100";
layers = (
{
hints = (
{
place = "{70.000000, 85.000000}";
},
{
horizontal = 1;
place = "{-197.000000, 54.000000}";
},
{
horizontal = 1;
place = "{-80.000000, 145.000000}";
},
{
horizontal = 1;
place = "{592.000000, 75.000000}";
}
);
layerId = "3BA737DF-2981-4A42-8A92-02FACC3A7684";
rightMetricsKey = C;
name = Regular;
paths = (
{
closed = 1;
nodes = (
"127 667 OFFCURVE",
"70 601 OFFCURVE",
"70 465 CURVE SMOOTH",
"70 190 LINE SMOOTH",
"70 72 OFFCURVE",
"112 5 OFFCURVE",
"229 -9 CURVE",
"214 -59 LINE",
"214 -80 LINE",
"244 -80 LINE SMOOTH",
"267 -80 OFFCURVE",
"277 -86 OFFCURVE",
"278 -106 CURVE",
"278 -119 LINE SMOOTH",
"278 -133 OFFCURVE",
"266 -143 OFFCURVE",
"237 -143 CURVE SMOOTH",
"227 -143 OFFCURVE",
"215 -141 OFFCURVE",
"201 -139 CURVE",
"201 -192 LINE",
"219 -195 OFFCURVE",
"234 -197 OFFCURVE",
"250 -197 CURVE SMOOTH",
"314 -197 OFFCURVE",
"345 -173 OFFCURVE",
"345 -120 CURVE SMOOTH",
"345 -105 LINE SMOOTH",
"345 -67 OFFCURVE",
"321 -41 OFFCURVE",
"293 -41 CURVE SMOOTH",
"283 -41 LINE",
"292 -12 LINE",
"334 -11 OFFCURVE",
"380 -2 OFFCURVE",
"421 4 CURVE",
"419 81 LINE",
"386 75 OFFCURVE",
"332 65 OFFCURVE",
"283 65 CURVE SMOOTH",
"191 65 OFFCURVE",
"155 99 OFFCURVE",
"155 185 CURVE SMOOTH",
"155 471 LINE SMOOTH",
"155 558 OFFCURVE",
"192 592 OFFCURVE",
"283 592 CURVE SMOOTH",
"332 592 OFFCURVE",
"386 582 OFFCURVE",
"419 576 CURVE",
"421 651 LINE",
"377 658 OFFCURVE",
"328 667 OFFCURVE",
"283 667 CURVE SMOOTH"
);
}
);
width = 476;
}
);
leftKerningGroup = O;
leftMetricsKey = C;
rightKerningGroup = C;
rightMetricsKey = C;
unicode = 00C7;
},
{
color = 4;
glyphname = D;
lastChange = "2013-12-12 14:14:31 +0100";
layers = (
{
anchors = (
{
name = center;
position = "{286, 328}";
},
{
name = top;
position = "{261, 655}";
}
);
hints = (
{
place = "{75.000000, 85.000000}";
},
{
place = "{421.000000, 85.000000}";
},
{
horizontal = 1;
place = "{-12.000000, 73.000000}";
},
{
horizontal = 1;
place = "{595.000000, 72.000000}";
}
);
layerId = "3BA737DF-2981-4A42-8A92-02FACC3A7684";
name = Regular;
paths = (
{
closed = 1;
nodes = (
"181 667 OFFCURVE",
"120 665 OFFCURVE",
"75 663 CURVE",
"75 -6 LINE",
"137 -10 OFFCURVE",
"186 -12 OFFCURVE",
"253 -12 CURVE SMOOTH",
"420 -12 OFFCURVE",
"506 79 OFFCURVE",
"506 241 CURVE SMOOTH",
"506 405 LINE SMOOTH",
"506 575 OFFCURVE",
"416 667 OFFCURVE",
"258 667 CURVE SMOOTH"
);
},
{
closed = 1;
nodes = (
"357 595 OFFCURVE",
"421 534 OFFCURVE",
"421 411 CURVE SMOOTH",
"421 234 LINE SMOOTH",
"421 120 OFFCURVE",
"353 61 OFFCURVE",
"253 61 CURVE SMOOTH",
"228 61 OFFCURVE",
"199 63 OFFCURVE",
"160 67 CURVE",
"160 593 LINE",
"191 594 OFFCURVE",
"221 595 OFFCURVE",
"253 595 CURVE SMOOTH"
);
}
);
width = 571;
}
);
leftKerningGroup = H;
leftMetricsKey = H;
rightKerningGroup = D;
rightMetricsKey = D;
unicode = 0044;
},
{
color = 4;
glyphname = Eth;
lastChange = "2013-12-12 14:14:31 +0100";
layers = (
{
hints = (
{
place = "{80.000000, 85.000000}";
},
{
place = "{426.000000, 85.000000}";
},
{
horizontal = 1;
place = "{-12.000000, 73.000000}";
},
{
horizontal = 1;
place = "{303.000000, 70.000000}";
},
{
horizontal = 1;
place = "{595.000000, 72.000000}";
}
);
layerId = "3BA737DF-2981-4A42-8A92-02FACC3A7684";
rightMetricsKey = D;
name = Regular;
paths = (
{
closed = 1;
nodes = (
"186 667 OFFCURVE",
"125 665 OFFCURVE",
"80 663 CURVE",
"80 373 LINE",
"10 373 LINE",
"10 303 LINE",
"80 303 LINE",
"80 -6 LINE",
"142 -10 OFFCURVE",
"191 -12 OFFCURVE",
"258 -12 CURVE SMOOTH",
"425 -12 OFFCURVE",
"511 79 OFFCURVE",
"511 241 CURVE SMOOTH",
"511 405 LINE SMOOTH",
"511 575 OFFCURVE",
"421 667 OFFCURVE",
"263 667 CURVE SMOOTH"
);
},
{
closed = 1;
nodes = (
"362 595 OFFCURVE",
"426 534 OFFCURVE",
"426 411 CURVE SMOOTH",
"426 234 LINE SMOOTH",
"426 120 OFFCURVE",
"358 61 OFFCURVE",
"258 61 CURVE SMOOTH",
"233 61 OFFCURVE",
"204 63 OFFCURVE",
"165 67 CURVE",
"165 303 LINE",
"300 303 LINE",
"300 373 LINE",
"165 373 LINE",
"165 593 LINE",
"196 594 OFFCURVE",
"226 595 OFFCURVE",
"258 595 CURVE SMOOTH"
);
}
);
width = 576;
}
);
rightKerningGroup = D;
rightMetricsKey = D;
unicode = 00D0;
},
{
color = 4;
glyphname = E;
lastChange = "2013-12-12 14:14:31 +0100";
layers = (
{
anchors = (
{
name = bottom;
position = "{243, 0}";
},
{
name = ogonek;
position = "{436, 10}";
},
{
name = top;
position = "{253, 655}";
},
{
name = topleft;
position = "{35, 655}";
}
);
hints = (
{
place = "{75.000000, 85.000000}";
},
{
horizontal = 1;
place = "{0.000000, 77.000000}";
},
{
horizontal = 1;
place = "{295.000000, 76.000000}";
},
{
horizontal = 1;
place = "{578.000000, 77.000000}";
}
);
layerId = "3BA737DF-2981-4A42-8A92-02FACC3A7684";
name = Regular;
paths = (
{
closed = 1;
nodes = (
"75 655 LINE",
"75 0 LINE",
"420 0 LINE",
"420 77 LINE",
"160 77 LINE",
"160 295 LINE",
"400 295 LINE",
"400 371 LINE",
"160 371 LINE",
"160 578 LINE",
"420 578 LINE",
"420 655 LINE"
);
}
);
width = 485;
}
);
leftKerningGroup = H;
leftMetricsKey = H;
rightKerningGroup = E;
unicode = 0045;
},
{
color = 4;
glyphname = Eogonek;
lastChange = "2013-12-12 14:14:31 +0100";
layers = (
{
hints = (
{
place = "{75.000000, 85.000000}";
},
{
place = "{233.000000, 72.000000}";
},
{
place = "{233.000000, 147.000000}";
},
{
horizontal = 1;
place = "{-197.000000, 63.000000}";
},
{
horizontal = 1;
place = "{0.000000, 77.000000}";
},
{
horizontal = 1;
place = "{295.000000, 76.000000}";
},
{
horizontal = 1;
place = "{578.000000, 77.000000}";
}
);
layerId = "3BA737DF-2981-4A42-8A92-02FACC3A7684";
leftMetricsKey = E;
rightMetricsKey = E;
name = Regular;
paths = (
{
closed = 1;
nodes = (
"75 655 LINE",
"75 0 LINE",
"290 0 LINE",
"255 -25 OFFCURVE",
"233 -65 OFFCURVE",
"233 -103 CURVE SMOOTH",
"233 -116 LINE SMOOTH",
"233 -164 OFFCURVE",
"264 -197 OFFCURVE",
"332 -197 CURVE SMOOTH",
"347 -197 OFFCURVE",
"363 -196 OFFCURVE",
"380 -192 CURVE",
"380 -131 LINE",
"368 -133 OFFCURVE",
"356 -134 OFFCURVE",
"347 -134 CURVE SMOOTH",
"317 -134 OFFCURVE",
"305 -123 OFFCURVE",
"305 -97 CURVE SMOOTH",
"305 -87 LINE SMOOTH",
"305 -53 OFFCURVE",
"325 -19 OFFCURVE",
"361 0 CURVE",
"420 0 LINE",
"420 77 LINE",
"160 77 LINE",
"160 295 LINE",
"400 295 LINE",
"400 371 LINE",
"160 371 LINE",
"160 578 LINE",
"420 578 LINE",
"420 655 LINE"
);
}
);
width = 485;
}
);
leftKerningGroup = H;
leftMetricsKey = "auto(30)";
rightKerningGroup = E;
rightMetricsKey = E;
unicode = 0118;
},
{
color = 4;
glyphname = F;
lastChange = "2013-12-12 14:14:31 +0100";
layers = (
{
hints = (
{
place = "{75.000000, 85.000000}";
},
{
horizontal = 1;
place = "{295.000000, 76.000000}";
},
{
horizontal = 1;
place = "{578.000000, 77.000000}";
},
{
horizontal = 1;
place = "{21.000000, 21.000000}";
target = up;
type = BottomGhost;
}
);
layerId = "3BA737DF-2981-4A42-8A92-02FACC3A7684";
name = Regular;
paths = (
{
closed = 1;
nodes = (
"75 655 LINE",
"75 0 LINE",
"160 0 LINE",
"160 295 LINE",
"356 295 LINE",
"356 371 LINE",
"160 371 LINE",
"160 578 LINE",
"420 578 LINE",
"420 655 LINE"
);
}
);
width = 460;
}
);
leftKerningGroup = H;
leftMetricsKey = H;
rightKerningGroup = F;
unicode = 0046;
},
{
color = 4;
glyphname = G;
lastChange = "2013-12-12 14:14:31 +0100";
layers = (
{
anchors = (
{
name = bottom;
position = "{289, 0}";
},
{
name = top;
position = "{274, 655}";
}
);
hints = (
{
place = "{70.000000, 85.000000}";
},
{
place = "{275.000000, 210.000000}";
},
{
place = "{400.000000, 85.000000}";
},
{
horizontal = 1;
place = "{-12.000000, 75.000000}";
},
{
horizontal = 1;
place = "{298.000000, 80.000000}";
},
{
horizontal = 1;
place = "{593.000000, 74.000000}";
}
);
layerId = "3BA737DF-2981-4A42-8A92-02FACC3A7684";
name = Regular;
paths = (
{
closed = 1;
nodes = (
"132 667 OFFCURVE",
"70 606 OFFCURVE",
"70 465 CURVE SMOOTH",
"70 190 LINE SMOOTH",
"70 56 OFFCURVE",
"125 -12 OFFCURVE",
"283 -12 CURVE SMOOTH",
"353 -12 OFFCURVE",
"430 8 OFFCURVE",
"485 25 CURVE",
"485 378 LINE",
"275 378 LINE",
"275 298 LINE",
"400 298 LINE",
"400 77 LINE",
"359 69 OFFCURVE",
"316 63 OFFCURVE",
"283 63 CURVE SMOOTH",
"190 63 OFFCURVE",
"155 99 OFFCURVE",
"155 184 CURVE SMOOTH",
"155 474 LINE SMOOTH",
"155 559 OFFCURVE",
"190 593 OFFCURVE",
"283 593 CURVE SMOOTH",
"342 593 OFFCURVE",
"418 578 OFFCURVE",
"454 571 CURVE",
"456 646 LINE",
"412 655 OFFCURVE",
"337 667 OFFCURVE",
"283 667 CURVE SMOOTH"
);
}
);
width = 555;
}
);
leftKerningGroup = O;
rightKerningGroup = G;
unicode = 0047;
},
{
color = 4;
glyphname = H;
lastChange = "2013-12-12 14:14:31 +0100";
layers = (
{
anchors = (
{
name = center;
position = "{290, 328}";
},
{
name = top;
position = "{290, 655}";
},
{
name = topleft;
position = "{35, 655}";
}
);
hints = (
{
place = "{75.000000, 85.000000}";
},
{
place = "{420.000000, 85.000000}";
},
{
horizontal = 1;
place = "{300.000000, 76.000000}";
},
{
horizontal = 1;
place = "{21.000000, 21.000000}";
target = up;
type = BottomGhost;
},
{
horizontal = 1;
place = "{655.000000, -20.000000}";
target = down;
type = TopGhost;
}
);
layerId = "3BA737DF-2981-4A42-8A92-02FACC3A7684";
name = Regular;
paths = (
{
closed = 1;
nodes = (
"420 655 LINE",
"420 376 LINE",
"160 376 LINE",
"160 655 LINE",
"75 655 LINE",
"75 0 LINE",
"160 0 LINE",
"160 300 LINE",
"420 300 LINE",
"420 0 LINE",
"505 0 LINE",
"505 655 LINE"
);
}
);
width = 580;
}
);
leftKerningGroup = H;
rightKerningGroup = H;
unicode = 0048;
},
{
color = 4;
glyphname = I;
lastChange = "2013-12-12 14:14:31 +0100";
layers = (
{
anchors = (
{
name = ogonek;
position = "{211, 10}";
},
{
name = top;
position = "{118, 655}";
},
{
name = topleft;
position = "{35, 655}";
}
);
hints = (
{
place = "{75.000000, 85.000000}";
},
{
horizontal = 1;
place = "{21.000000, 21.000000}";
target = up;
type = BottomGhost;
},
{
horizontal = 1;
place = "{655.000000, -20.000000}";
target = down;
type = TopGhost;
}
);
layerId = "3BA737DF-2981-4A42-8A92-02FACC3A7684";
name = Regular;
paths = (
{
closed = 1;
nodes = (
"75 655 LINE",
"75 0 LINE",
"160 0 LINE",
"160 655 LINE"
);
}
);
width = 235;
}
);
leftKerningGroup = I;
rightKerningGroup = I;
unicode = 0049;
},
{
color = 4;
glyphname = Iogonek;
lastChange = "2013-12-12 14:14:31 +0100";
layers = (
{
hints = (
{
place = "{13.000000, 72.000000}";
},
{
place = "{75.000000, 85.000000}";
},
{
horizontal = 1;
place = "{-197.000000, 63.000000}";
},
{
horizontal = 1;
place = "{0.000000, -20.000000}";
target = down;
type = TopGhost;
},
{
horizontal = 1;
place = "{655.000000, -20.000000}";
target = down;
type = TopGhost;
}
);
layerId = "3BA737DF-2981-4A42-8A92-02FACC3A7684";
name = Regular;
paths = (
{
closed = 1;
nodes = (
"75 655 LINE",
"75 3 LINE",
"36 -22 OFFCURVE",
"13 -64 OFFCURVE",
"13 -103 CURVE SMOOTH",
"13 -116 LINE SMOOTH",
"13 -164 OFFCURVE",
"44 -197 OFFCURVE",
"112 -197 CURVE SMOOTH",
"127 -197 OFFCURVE",
"143 -196 OFFCURVE",
"160 -192 CURVE",
"160 -131 LINE",
"148 -133 OFFCURVE",
"136 -134 OFFCURVE",
"127 -134 CURVE SMOOTH",
"97 -134 OFFCURVE",
"85 -123 OFFCURVE",
"85 -97 CURVE SMOOTH",
"85 -87 LINE SMOOTH",
"85 -53 OFFCURVE",
"105 -19 OFFCURVE",
"141 0 CURVE",
"160 0 LINE",
"160 655 LINE"
);
}
);
width = 235;
}
);
unicode = 012E;
},
{
color = 4;
glyphname = J;
lastChange = "2013-12-12 14:14:31 +0100";
layers = (
{
anchors = (
{
name = top;
position = "{170, 655}";
}
);
hints = (
{
place = "{-5.000000, 217.000000}";
},
{
place = "{127.000000, 85.000000}";
},
{
horizontal = 1;
place = "{-12.000000, 73.000000}";
},
{
horizontal = 1;
place = "{655.000000, -20.000000}";
target = down;
type = TopGhost;
}
);
layerId = "3BA737DF-2981-4A42-8A92-02FACC3A7684";
name = Regular;
paths = (
{
closed = 1;
nodes = (
"127 655 LINE",
"127 132 LINE SMOOTH",
"127 80 OFFCURVE",
"104 61 OFFCURVE",
"63 61 CURVE SMOOTH",
"38 61 OFFCURVE",
"6 64 OFFCURVE",
"-5 66 CURVE",
"-5 -5 LINE",
"4 -8 OFFCURVE",
"37 -12 OFFCURVE",
"59 -12 CURVE SMOOTH",
"166 -12 OFFCURVE",
"212 37 OFFCURVE",
"212 139 CURVE SMOOTH",
"212 655 LINE"
);
}
);
width = 287;
}
);
leftKerningGroup = J;
unicode = 004A;
},
{
color = 4;
glyphname = K;
lastChange = "2013-12-12 14:14:31 +0100";
layers = (
{
anchors = (
{
name = bottom;
position = "{279, 0}";
},
{
name = top;
position = "{263, 655}";
}
);
hints = (
{
place = "{75.000000, 85.000000}";
},
{
horizontal = 1;
place = "{21.000000, 21.000000}";
target = up;
type = BottomGhost;
},
{
horizontal = 1;
place = "{655.000000, -20.000000}";
target = down;
type = TopGhost;
}
);
layerId = "3BA737DF-2981-4A42-8A92-02FACC3A7684";
name = Regular;
paths = (
{
closed = 1;
nodes = (
"404 655 LINE",
"160 339 LINE",
"160 655 LINE",
"75 655 LINE",
"75 0 LINE",
"160 0 LINE",
"160 321 LINE",
"416 0 LINE",
"525 0 LINE",
"248 338 LINE",
"499 655 LINE"
);
}
);
width = 525;
}
);
leftKerningGroup = H;
leftMetricsKey = H;
rightKerningGroup = K;
unicode = 004B;
},
{
color = 4;
glyphname = L;
lastChange = "2013-12-12 14:14:31 +0100";
layers = (
{
anchors = (
{
name = bottom;
position = "{252, 0}";
},
{
name = center;
position = "{329, 359}";
},
{
name = top;
position = "{132, 655}";
},
{
name = topleft;
position = "{271, 459}";
}
);
hints = (
{
place = "{75.000000, 85.000000}";
},
{
horizontal = 1;
place = "{0.000000, 75.000000}";
},
{
horizontal = 1;
place = "{655.000000, -20.000000}";
target = down;
type = TopGhost;
}
);
layerId = "3BA737DF-2981-4A42-8A92-02FACC3A7684";
name = Regular;
paths = (
{
closed = 1;
nodes = (
"75 655 LINE",
"75 0 LINE",
"420 0 LINE",
"420 75 LINE",
"160 75 LINE",
"160 655 LINE"
);
}
);
width = 450;
}
);
leftKerningGroup = H;
leftMetricsKey = H;
rightKerningGroup = L;
unicode = 004C;
},
{
color = 4;
glyphname = Lslash;
lastChange = "2013-12-12 14:14:31 +0100";
layers = (
{
hints = (
{
place = "{10.000000, 155.000000}";
},
{
place = "{80.000000, 85.000000}";
},
{
place = "{80.000000, 215.000000}";
},
{
horizontal = 1;
place = "{0.000000, 75.000000}";
},
{
horizontal = 1;
place = "{655.000000, -20.000000}";
target = down;
type = TopGhost;
}
);
layerId = "3BA737DF-2981-4A42-8A92-02FACC3A7684";
name = Regular;
paths = (
{
closed = 1;
nodes = (
"80 655 LINE",
"80 363 LINE",
"10 344 LINE",
"10 268 LINE",
"80 287 LINE",
"80 0 LINE",
"425 0 LINE",
"425 75 LINE",
"165 75 LINE",
"165 311 LINE",
"295 348 LINE",
"295 424 LINE",
"165 387 LINE",
"165 655 LINE"
);
}
);
width = 455;
}
);
rightKerningGroup = L;
rightMetricsKey = L;
unicode = 0141;
},
{
color = 4;
glyphname = M;
lastChange = "2013-12-12 14:14:31 +0100";
layers = (
{
hints = (
{
place = "{73.000000, 82.000000}";
},
{
place = "{543.000000, 83.000000}";
},
{
horizontal = 1;
place = "{21.000000, 21.000000}";
target = up;
type = BottomGhost;
},
{
horizontal = 1;
place = "{655.000000, -20.000000}";
target = down;
type = TopGhost;
}
);
layerId = "3BA737DF-2981-4A42-8A92-02FACC3A7684";
name = Regular;
paths = (
{
closed = 1;
nodes = (
"629 0 LINE",
"623 655 LINE",
"497 655 LINE",
"350 144 LINE",
"202 655 LINE",
"76 655 LINE",
"70 0 LINE",
"153 0 LINE",
"158 538 LINE",
"297 68 LINE",
"402 68 LINE",
"541 538 LINE",
"546 0 LINE"
);
}
);
width = 699;
}
);
leftKerningGroup = H;
rightKerningGroup = H;
unicode = 004D;
},
{
color = 4;
glyphname = N;
lastChange = "2013-12-12 14:14:31 +0100";
layers = (
{
anchors = (
{
name = bottom;
position = "{304, 0}";
},
{
name = top;
position = "{296, 655}";
}
);
hints = (
{
place = "{75.000000, 84.000000}";
},
{
place = "{423.000000, 84.000000}";
},
{
horizontal = 1;
place = "{21.000000, 21.000000}";
target = up;
type = BottomGhost;
},
{
horizontal = 1;
place = "{655.000000, -20.000000}";
target = down;
type = TopGhost;
}
);
layerId = "3BA737DF-2981-4A42-8A92-02FACC3A7684";
name = Regular;
paths = (
{
closed = 1;
nodes = (
"507 0 LINE",
"507 655 LINE",
"423 655 LINE",
"423 102 LINE",
"211 655 LINE",
"75 655 LINE",
"75 0 LINE",
"159 0 LINE",
"159 553 LINE",
"375 0 LINE"
);
}
);
width = 582;
}
);
leftKerningGroup = H;
leftMetricsKey = H;
rightKerningGroup = H;
rightMetricsKey = H;
unicode = 004E;
},
{
color = 4;
glyphname = O;
lastChange = "2013-12-12 14:14:31 +0100";
layers = (
{
anchors = (
{
name = top;
position = "{288, 655}";
},
{
name = topleft;
position = "{70, 655}";
}
);
hints = (
{
place = "{70.000000, 85.000000}";
},
{
place = "{421.000000, 85.000000}";
},
{
horizontal = 1;
place = "{-12.000000, 75.000000}";
},
{
horizontal = 1;
place = "{592.000000, 75.000000}";
}
);
layerId = "3BA737DF-2981-4A42-8A92-02FACC3A7684";
name = Regular;
paths = (
{
closed = 1;
nodes = (
"133 667 OFFCURVE",
"70 584 OFFCURVE",
"70 452 CURVE SMOOTH",
"70 203 LINE SMOOTH",
"70 71 OFFCURVE",
"133 -12 OFFCURVE",
"288 -12 CURVE SMOOTH",
"443 -12 OFFCURVE",
"506 71 OFFCURVE",
"506 203 CURVE SMOOTH",
"506 452 LINE SMOOTH",
"506 584 OFFCURVE",
"443 667 OFFCURVE",
"288 667 CURVE SMOOTH"
);
},
{
closed = 1;
nodes = (
"377 592 OFFCURVE",
"421 545 OFFCURVE",
"421 461 CURVE SMOOTH",
"421 194 LINE SMOOTH",
"421 109 OFFCURVE",
"376 63 OFFCURVE",
"288 63 CURVE SMOOTH",
"200 63 OFFCURVE",
"155 109 OFFCURVE",
"155 194 CURVE SMOOTH",
"155 462 LINE SMOOTH",
"155 546 OFFCURVE",
"199 592 OFFCURVE",
"288 592 CURVE SMOOTH"
);
}
);
width = 576;
}
);
leftKerningGroup = O;
rightKerningGroup = O;
unicode = 004F;
},
{
color = 4;
glyphname = Oslash;
lastChange = "2013-12-12 14:14:31 +0100";
layers = (
{
anchors = (
{
name = top;
position = "{285, 655}";
}
);
hints = (
{
place = "{70.000000, 85.000000}";
},
{
place = "{421.000000, 85.000000}";
},
{
horizontal = 1;
place = "{-12.000000, 75.000000}";
},
{
horizontal = 1;
place = "{592.000000, 75.000000}";
},
{
horizontal = 1;
place = "{-29.000000, 21.000000}";
target = up;
type = BottomGhost;
},
{
horizontal = 1;
place = "{705.000000, -20.000000}";
target = down;
type = TopGhost;
}
);
layerId = "3BA737DF-2981-4A42-8A92-02FACC3A7684";
name = Regular;
paths = (
{
closed = 1;
nodes = (
"456 705 LINE",
"418 638 LINE",
"385 657 OFFCURVE",
"342 667 OFFCURVE",
"288 667 CURVE SMOOTH",
"133 667 OFFCURVE",
"70 584 OFFCURVE",
"70 452 CURVE SMOOTH",
"70 203 LINE SMOOTH",
"70 149 OFFCURVE",
"80 103 OFFCURVE",
"103 68 CURVE",
"35 -50 LINE",
"120 -50 LINE",
"159 16 LINE",
"192 -2 OFFCURVE",
"234 -12 OFFCURVE",
"288 -12 CURVE SMOOTH",
"443 -12 OFFCURVE",
"506 71 OFFCURVE",
"506 203 CURVE SMOOTH",
"506 452 LINE SMOOTH",
"506 505 OFFCURVE",
"496 550 OFFCURVE",
"474 585 CURVE",
"541 705 LINE"
);
},
{
closed = 1;
nodes = (
"420 486 OFFCURVE",
"421 474 OFFCURVE",
"421 461 CURVE",
"421 194 LINE SMOOTH",
"421 109 OFFCURVE",
"376 63 OFFCURVE",
"288 63 CURVE SMOOTH",
"248 63 OFFCURVE",
"216 72 OFFCURVE",
"194 91 CURVE",
"418 497 LINE"
);
},
{
closed = 1;
nodes = (
"329 592 OFFCURVE",
"361 582 OFFCURVE",
"383 562 CURVE",
"158 155 LINE",
"156 167 OFFCURVE",
"155 180 OFFCURVE",
"155 194 CURVE SMOOTH",
"155 462 LINE SMOOTH",
"155 546 OFFCURVE",
"199 592 OFFCURVE",
"288 592 CURVE SMOOTH"
);
}
);
width = 576;
}
);
leftKerningGroup = O;
rightKerningGroup = O;
unicode = 00D8;
},
{
color = 4;
glyphname = OE;
lastChange = "2013-12-12 14:14:31 +0100";
layers = (
{
hints = (
{
place = "{70.000000, 85.000000}";
},
{
place = "{361.000000, 85.000000}";
},
{
horizontal = 1;
place = "{-12.000000, 75.000000}";
},
{
horizontal = 1;
place = "{0.000000, 77.000000}";
},
{
horizontal = 1;
place = "{295.000000, 76.000000}";
},
{
horizontal = 1;
place = "{578.000000, 77.000000}";
},
{
horizontal = 1;
place = "{592.000000, 75.000000}";
}
);
layerId = "3BA737DF-2981-4A42-8A92-02FACC3A7684";
name = Regular;
paths = (
{
closed = 1;
nodes = (
"142 667 OFFCURVE",
"70 591 OFFCURVE",
"70 452 CURVE SMOOTH",
"70 203 LINE SMOOTH",
"70 66 OFFCURVE",
"138 -12 OFFCURVE",
"278 -12 CURVE SMOOTH",
"312 -12 OFFCURVE",
"343 -8 OFFCURVE",
"370 0 CURVE",
"691 0 LINE",
"691 77 LINE",
"446 77 LINE",
"446 295 LINE",
"671 295 LINE",
"671 371 LINE",
"446 371 LINE",
"446 578 LINE",
"691 578 LINE",
"691 655 LINE",
"370 655 LINE",
"342 663 OFFCURVE",
"309 667 OFFCURVE",
"274 667 CURVE SMOOTH"
);
},
{
closed = 1;
nodes = (
"315 592 OFFCURVE",
"340 588 OFFCURVE",
"361 579 CURVE",
"361 71 LINE",
"341 65 OFFCURVE",
"317 63 OFFCURVE",
"283 63 CURVE SMOOTH",
"199 63 OFFCURVE",
"155 110 OFFCURVE",
"155 194 CURVE SMOOTH",
"155 462 LINE SMOOTH",
"155 547 OFFCURVE",
"201 592 OFFCURVE",
"283 592 CURVE SMOOTH"
);
}
);
width = 756;
}
);
leftKerningGroup = O;
leftMetricsKey = O;
rightKerningGroup = E;
rightMetricsKey = E;
unicode = 0152;
},
{
color = 4;
glyphname = P;
lastChange = "2013-12-12 14:14:31 +0100";
layers = (
{
hints = (
{
place = "{75.000000, 85.000000}";
},
{
place = "{396.000000, 85.000000}";
},
{
horizontal = 1;
place = "{264.000000, 73.000000}";
},
{
horizontal = 1;
place = "{595.000000, 72.000000}";
},
{
horizontal = 1;
place = "{21.000000, 21.000000}";
target = up;
type = BottomGhost;
}
);
layerId = "3BA737DF-2981-4A42-8A92-02FACC3A7684";
name = Regular;
paths = (
{
closed = 1;
nodes = (
"177 667 OFFCURVE",
"126 665 OFFCURVE",
"75 662 CURVE",
"75 0 LINE",
"160 0 LINE",
"160 272 LINE",
"198 266 OFFCURVE",
"227 264 OFFCURVE",
"256 264 CURVE SMOOTH",
"410 264 OFFCURVE",
"481 338 OFFCURVE",
"481 460 CURVE SMOOTH",
"481 484 LINE SMOOTH",
"481 599 OFFCURVE",
"409 667 OFFCURVE",
"248 667 CURVE SMOOTH"
);
},
{
closed = 1;
nodes = (
"352 595 OFFCURVE",
"396 555 OFFCURVE",
"396 481 CURVE SMOOTH",
"396 464 LINE SMOOTH",
"396 379 OFFCURVE",
"348 337 OFFCURVE",
"252 337 CURVE SMOOTH",
"228 337 OFFCURVE",
"205 339 OFFCURVE",
"160 345 CURVE",
"160 593 LINE",
"181 594 OFFCURVE",
"202 595 OFFCURVE",
"246 595 CURVE SMOOTH"
);
}
);
width = 511;
}
);
leftKerningGroup = H;
leftMetricsKey = H;
rightKerningGroup = P;
unicode = 0050;
},
{
color = 4;
glyphname = Thorn;
lastChange = "2013-12-12 14:14:31 +0100";
layers = (
{
hints = (
{
place = "{75.000000, 85.000000}";
},
{
place = "{394.000000, 85.000000}";
},
{
horizontal = 1;
place = "{138.000000, 73.000000}";
},
{
horizontal = 1;
place = "{468.000000, 71.000000}";
},
{
horizontal = 1;
place = "{468.000000, 187.000000}";
},
{
horizontal = 1;
place = "{21.000000, 21.000000}";
target = up;
type = BottomGhost;
}
);
layerId = "3BA737DF-2981-4A42-8A92-02FACC3A7684";
name = Regular;
paths = (
{
closed = 1;
nodes = (
"75 655 LINE",
"75 0 LINE",
"160 0 LINE",
"160 146 LINE",
"198 140 OFFCURVE",
"227 138 OFFCURVE",
"256 138 CURVE SMOOTH",
"408 138 OFFCURVE",
"479 212 OFFCURVE",
"479 333 CURVE SMOOTH",
"479 357 LINE SMOOTH",
"479 471 OFFCURVE",
"407 539 OFFCURVE",
"248 539 CURVE SMOOTH",
"224 539 OFFCURVE",
"192 537 OFFCURVE",
"160 533 CURVE",
"160 655 LINE"
);
},
{
closed = 1;
nodes = (
"350 468 OFFCURVE",
"394 428 OFFCURVE",
"394 354 CURVE SMOOTH",
"394 337 LINE SMOOTH",
"394 253 OFFCURVE",
"346 211 OFFCURVE",
"252 211 CURVE SMOOTH",
"228 211 OFFCURVE",
"205 213 OFFCURVE",
"160 219 CURVE",
"160 463 LINE",
"181 465 OFFCURVE",
"202 468 OFFCURVE",
"246 468 CURVE SMOOTH"
);
}
);
width = 499;
}
);
leftKerningGroup = H;
leftMetricsKey = H;
unicode = 00DE;
},
{
color = 4;
glyphname = Q;
lastChange = "2013-12-12 14:14:31 +0100";
layers = (
{
hints = (
{
place = "{70.000000, 85.000000}";
},
{
place = "{421.000000, 85.000000}";
},
{
horizontal = 1;
place = "{-12.000000, 75.000000}";
},
{
horizontal = 1;
place = "{592.000000, 75.000000}";
},
{
horizontal = 1;
place = "{-64.000000, 21.000000}";
target = up;
type = BottomGhost;
}
);
layerId = "3BA737DF-2981-4A42-8A92-02FACC3A7684";
name = Regular;
paths = (
{
closed = 1;
nodes = (
"133 667 OFFCURVE",
"70 584 OFFCURVE",
"70 452 CURVE SMOOTH",
"70 203 LINE SMOOTH",
"70 71 OFFCURVE",
"133 -12 OFFCURVE",
"289 -12 CURVE SMOOTH",
"298 -12 OFFCURVE",
"306 -12 OFFCURVE",
"313 -11 CURVE",
"509 -85 LINE",
"528 -85 LINE",
"526 -6 LINE",
"411 24 LINE",
"473 57 OFFCURVE",
"506 114 OFFCURVE",
"506 203 CURVE SMOOTH",
"506 452 LINE SMOOTH",
"506 584 OFFCURVE",
"443 667 OFFCURVE",
"288 667 CURVE SMOOTH"
);
},
{
closed = 1;
nodes = (
"377 592 OFFCURVE",
"421 545 OFFCURVE",
"421 461 CURVE SMOOTH",
"421 196 LINE SMOOTH",
"421 108 OFFCURVE",
"379 63 OFFCURVE",
"289 63 CURVE SMOOTH",
"200 63 OFFCURVE",
"155 109 OFFCURVE",
"155 194 CURVE SMOOTH",
"155 462 LINE SMOOTH",
"155 546 OFFCURVE",
"199 592 OFFCURVE",
"288 592 CURVE SMOOTH"
);
}
);
width = 576;
}
);
leftKerningGroup = O;
rightKerningGroup = O;
unicode = 0051;
},
{
color = 4;
glyphname = R;
lastChange = "2013-12-12 14:14:31 +0100";
layers = (
{
anchors = (
{
name = bottom;
position = "{284, 0}";
},
{
name = top;
position = "{258, 655}";
}
);
hints = (
{
place = "{75.000000, 85.000000}";
},
{
place = "{394.000000, 85.000000}";
},
{
horizontal = 1;
place = "{595.000000, 72.000000}";
},
{
horizontal = 1;
place = "{21.000000, 21.000000}";
target = up;
type = BottomGhost;
}
);
layerId = "3BA737DF-2981-4A42-8A92-02FACC3A7684";
name = Regular;
paths = (
{
closed = 1;
nodes = (
"192 667 OFFCURVE",
"131 665 OFFCURVE",
"75 663 CURVE",
"75 0 LINE",
"160 0 LINE",
"160 286 LINE",
"200 283 OFFCURVE",
"249 282 OFFCURVE",
"271 284 CURVE",
"430 0 LINE",
"525 0 LINE",
"355 302 LINE",
"438 327 OFFCURVE",
"479 393 OFFCURVE",
"479 467 CURVE SMOOTH",
"479 492 LINE SMOOTH",
"479 598 OFFCURVE",
"412 667 OFFCURVE",
"249 667 CURVE SMOOTH"
);
},
{
closed = 1;
nodes = (
"352 595 OFFCURVE",
"394 559 OFFCURVE",
"394 489 CURVE SMOOTH",
"394 469 LINE SMOOTH",
"394 397 OFFCURVE",
"352 352 OFFCURVE",
"250 352 CURVE SMOOTH",
"222 352 OFFCURVE",
"203 353 OFFCURVE",
"160 357 CURVE",
"160 593 LINE",
"187 594 OFFCURVE",
"225 595 OFFCURVE",
"247 595 CURVE SMOOTH"
);
}
);
width = 540;
}
);
leftKerningGroup = H;
leftMetricsKey = H;
rightKerningGroup = R;
unicode = 0052;
},
{
color = 4;
glyphname = S;
lastChange = "2013-12-12 14:14:31 +0100";
layers = (
{
anchors = (
{
name = bottom;
position = "{235, 0}";
},
{
name = top;
position = "{231, 655}";
}
);
hints = (
{
place = "{45.000000, 85.000000}";
},
{
place = "{341.000000, 85.000000}";
},
{
horizontal = 1;
place = "{-12.000000, 77.000000}";
},
{
horizontal = 1;
place = "{592.000000, 75.000000}";
}
);
layerId = "3BA737DF-2981-4A42-8A92-02FACC3A7684";
name = Regular;
paths = (
{
closed = 1;
nodes = (
"101 667 OFFCURVE",
"45 604 OFFCURVE",
"45 491 CURVE SMOOTH",
"45 480 LINE SMOOTH",
"45 381 OFFCURVE",
"76 340 OFFCURVE",
"168 310 CURVE SMOOTH",
"271 276 LINE SMOOTH",
"324 259 OFFCURVE",
"341 237 OFFCURVE",
"341 191 CURVE SMOOTH",
"341 158 LINE SMOOTH",
"341 97 OFFCURVE",
"307 65 OFFCURVE",
"204 65 CURVE SMOOTH",
"170 65 OFFCURVE",
"116 72 OFFCURVE",
"62 85 CURVE",
"60 8 LINE",
"118 -5 OFFCURVE",
"174 -12 OFFCURVE",
"206 -12 CURVE SMOOTH",
"367 -12 OFFCURVE",
"426 51 OFFCURVE",
"426 165 CURVE SMOOTH",
"426 184 LINE SMOOTH",
"426 282 OFFCURVE",
"393 326 OFFCURVE",
"304 356 CURVE SMOOTH",
"211 387 LINE",
"144 408 OFFCURVE",
"130 425 OFFCURVE",
"130 473 CURVE SMOOTH",
"130 499 LINE SMOOTH",
"130 560 OFFCURVE",
"159 592 OFFCURVE",
"239 592 CURVE SMOOTH",
"279 592 OFFCURVE",
"332 585 OFFCURVE",
"378 576 CURVE",
"380 651 LINE",
"331 660 OFFCURVE",
"273 667 OFFCURVE",
"239 667 CURVE SMOOTH"
);
}
);
width = 461;
}
);
leftKerningGroup = S;
rightKerningGroup = S;
unicode = 0053;
},
{
color = 4;
glyphname = Scedilla;
lastChange = "2013-12-12 14:14:31 +0100";
layers = (
{
hints = (
{
place = "{45.000000, 85.000000}";
},
{
place = "{341.000000, 85.000000}";
},
{
horizontal = 1;
place = "{-197.000000, 54.000000}";
},
{
horizontal = 1;
place = "{-80.000000, 145.000000}";
},
{
horizontal = 1;
place = "{592.000000, 75.000000}";
}
);
layerId = "3BA737DF-2981-4A42-8A92-02FACC3A7684";
name = Regular;
paths = (
{
closed = 1;
nodes = (
"101 667 OFFCURVE",
"45 604 OFFCURVE",
"45 491 CURVE SMOOTH",
"45 480 LINE SMOOTH",
"45 381 OFFCURVE",
"76 340 OFFCURVE",
"168 310 CURVE SMOOTH",
"271 276 LINE SMOOTH",
"324 259 OFFCURVE",
"341 237 OFFCURVE",
"341 191 CURVE SMOOTH",
"341 158 LINE SMOOTH",
"341 97 OFFCURVE",
"307 65 OFFCURVE",
"204 65 CURVE SMOOTH",
"170 65 OFFCURVE",
"116 72 OFFCURVE",
"62 85 CURVE",
"60 8 LINE",
"115 -4 OFFCURVE",
"168 -11 OFFCURVE",
"200 -12 CURVE",
"186 -59 LINE",
"186 -80 LINE",
"216 -80 LINE SMOOTH",
"239 -80 OFFCURVE",
"249 -86 OFFCURVE",
"250 -106 CURVE SMOOTH",
"250 -119 LINE SMOOTH",
"250 -133 OFFCURVE",
"238 -143 OFFCURVE",
"209 -143 CURVE SMOOTH",
"199 -143 OFFCURVE",
"187 -141 OFFCURVE",
"173 -139 CURVE",
"173 -192 LINE",
"191 -195 OFFCURVE",
"206 -197 OFFCURVE",
"222 -197 CURVE SMOOTH",
"286 -197 OFFCURVE",
"317 -173 OFFCURVE",
"317 -120 CURVE",
"317 -105 LINE SMOOTH",
"317 -67 OFFCURVE",
"293 -41 OFFCURVE",
"265 -41 CURVE SMOOTH",
"255 -41 LINE",
"265 -8 LINE",
"381 6 OFFCURVE",
"426 66 OFFCURVE",
"426 165 CURVE SMOOTH",
"426 184 LINE SMOOTH",
"426 282 OFFCURVE",
"393 326 OFFCURVE",
"304 356 CURVE SMOOTH",
"211 387 LINE SMOOTH",
"144 409 OFFCURVE",
"130 425 OFFCURVE",
"130 473 CURVE SMOOTH",
"130 499 LINE SMOOTH",
"130 560 OFFCURVE",
"159 592 OFFCURVE",
"239 592 CURVE SMOOTH",
"279 592 OFFCURVE",
"332 585 OFFCURVE",
"378 576 CURVE",
"380 651 LINE",
"331 660 OFFCURVE",
"273 667 OFFCURVE",
"239 667 CURVE SMOOTH"
);
}
);
width = 461;
}
);
leftKerningGroup = S;
leftMetricsKey = S;
rightKerningGroup = S;
rightMetricsKey = S;
unicode = 015E;
},
{
color = 4;
glyphname = T;
lastChange = "2013-12-12 14:14:31 +0100";
layers = (
{
anchors = (
{
name = bottom;
position = "{263, 0}";
},
{
name = center;
position = "{263, 328}";
},
{
name = top;
position = "{263, 655}";
}
);
hints = (
{
place = "{220.000000, 85.000000}";
},
{
horizontal = 1;
place = "{578.000000, 77.000000}";
},
{
horizontal = 1;
place = "{21.000000, 21.000000}";
target = up;
type = BottomGhost;
}
);
layerId = "3BA737DF-2981-4A42-8A92-02FACC3A7684";
name = Regular;
paths = (
{
closed = 1;
nodes = (
"30 655 LINE",
"30 578 LINE",
"220 578 LINE",
"220 0 LINE",
"305 0 LINE",
"305 578 LINE",
"495 578 LINE",
"495 655 LINE"
);
}
);
width = 525;
}
);
leftKerningGroup = T;
rightKerningGroup = T;
unicode = 0054;
},
{
color = 8;
glyphname = Tcedilla;
lastChange = "2014-01-01 00:16:24 +0100";
layers = (
{
hints = (
{
place = "{220.000000, 85.000000}";
},
{
horizontal = 1;
place = "{-197.000000, 54.000000}";
},
{
horizontal = 1;
place = "{578.000000, 77.000000}";
},
{
horizontal = 1;
place = "{0.000000, -20.000000}";
}
);
layerId = "3BA737DF-2981-4A42-8A92-02FACC3A7684";
name = Regular;
paths = (
{
closed = 1;
nodes = (
"30 655 LINE",
"30 578 LINE",
"220 578 LINE",
"220 12 LINE",
"198 -59 LINE",
"198 -80 LINE",
"228 -80 LINE SMOOTH",
"251 -80 OFFCURVE",
"261 -86 OFFCURVE",
"262 -106 CURVE SMOOTH",
"262 -119 LINE SMOOTH",
"262 -133 OFFCURVE",
"250 -143 OFFCURVE",
"221 -143 CURVE SMOOTH",
"211 -143 OFFCURVE",
"199 -141 OFFCURVE",
"185 -139 CURVE",
"185 -192 LINE",
"203 -195 OFFCURVE",
"218 -197 OFFCURVE",
"234 -197 CURVE SMOOTH",
"298 -197 OFFCURVE",
"329 -173 OFFCURVE",
"329 -120 CURVE SMOOTH",
"329 -105 LINE SMOOTH",
"329 -67 OFFCURVE",
"305 -41 OFFCURVE",
"277 -41 CURVE SMOOTH",
"267 -41 LINE",
"279 0 LINE",
"305 0 LINE",
"305 578 LINE",
"495 578 LINE",
"495 655 LINE"
);
}
);
width = 525;
}
);
leftKerningGroup = T;
leftMetricsKey = T;
rightKerningGroup = T;
rightMetricsKey = T;
unicode = 0162;
},
{
color = 4;
glyphname = U;
lastChange = "2013-12-12 14:14:31 +0100";
layers = (
{
anchors = (
{
name = ogonek;
position = "{518, 10}";
},
{
name = top;
position = "{288, 655}";
}
);
hints = (
{
place = "{75.000000, 85.000000}";
},
{
place = "{416.000000, 85.000000}";
},
{
horizontal = 1;
place = "{-12.000000, 75.000000}";
},
{
horizontal = 1;
place = "{655.000000, -20.000000}";
target = down;
type = TopGhost;
}
);
layerId = "3BA737DF-2981-4A42-8A92-02FACC3A7684";
name = Regular;
paths = (
{
closed = 1;
nodes = (
"416 655 LINE",
"416 194 LINE SMOOTH",
"416 107 OFFCURVE",
"369 63 OFFCURVE",
"288 63 CURVE SMOOTH",
"207 63 OFFCURVE",
"160 107 OFFCURVE",
"160 194 CURVE SMOOTH",
"160 655 LINE",
"75 655 LINE",
"75 205 LINE SMOOTH",
"75 61 OFFCURVE",
"150 -12 OFFCURVE",
"288 -12 CURVE SMOOTH",
"430 -12 OFFCURVE",
"501 67 OFFCURVE",
"501 207 CURVE SMOOTH",
"501 655 LINE"
);
}
);
width = 576;
}
);
leftKerningGroup = U;
rightKerningGroup = U;
unicode = 0055;
},
{
color = 4;
glyphname = Uogonek;
lastChange = "2013-12-12 14:14:31 +0100";
layers = (
{
hints = (
{
place = "{75.000000, 85.000000}";
},
{
place = "{251.000000, 72.000000}";
},
{
place = "{416.000000, 85.000000}";
},
{
place = "{251.000000, 147.000000}";
},
{
horizontal = 1;
place = "{-197.000000, 63.000000}";
},
{
horizontal = 1;
place = "{-12.000000, 75.000000}";
},
{
horizontal = 1;
place = "{655.000000, -20.000000}";
target = down;
type = TopGhost;
}
);
layerId = "3BA737DF-2981-4A42-8A92-02FACC3A7684";
name = Regular;
paths = (
{
closed = 1;
nodes = (
"416 655 LINE",
"416 194 LINE SMOOTH",
"416 107 OFFCURVE",
"369 63 OFFCURVE",
"288 63 CURVE SMOOTH",
"207 63 OFFCURVE",
"160 107 OFFCURVE",
"160 194 CURVE SMOOTH",
"160 655 LINE",
"75 655 LINE",
"75 205 LINE SMOOTH",
"75 63 OFFCURVE",
"145 -12 OFFCURVE",
"294 -12 CURVE",
"267 -37 OFFCURVE",
"251 -71 OFFCURVE",
"251 -103 CURVE SMOOTH",
"251 -116 LINE SMOOTH",
"251 -164 OFFCURVE",
"282 -197 OFFCURVE",
"350 -197 CURVE SMOOTH",
"365 -197 OFFCURVE",
"381 -196 OFFCURVE",
"398 -192 CURVE",
"398 -131 LINE",
"386 -133 OFFCURVE",
"374 -134 OFFCURVE",
"365 -134 CURVE SMOOTH",
"335 -134 OFFCURVE",
"323 -123 OFFCURVE",
"323 -97 CURVE SMOOTH",
"323 -87 LINE SMOOTH",
"323 -49 OFFCURVE",
"350 -8 OFFCURVE",
"394 9 CURVE SMOOTH",
"463 36 OFFCURVE",
"501 107 OFFCURVE",
"501 207 CURVE SMOOTH",
"501 655 LINE"
);
}
);
width = 576;
}
);
leftKerningGroup = U;
leftMetricsKey = U;
rightKerningGroup = U;
rightMetricsKey = U;
unicode = 0172;
},
{
color = 4;
glyphname = V;
lastChange = "2013-12-12 14:14:31 +0100";
layers = (
{
hints = (
{
horizontal = 1;
place = "{655.000000, -20.000000}";
target = down;
type = TopGhost;
},
{
horizontal = 1;
place = "{21.000000, 21.000000}";
target = up;
type = BottomGhost;
}
);
layerId = "3BA737DF-2981-4A42-8A92-02FACC3A7684";
name = Regular;
paths = (
{
closed = 1;
nodes = (
"423 655 LINE",
"260 82 LINE",
"103 655 LINE",
"13 655 LINE",
"204 0 LINE",
"316 0 LINE",
"513 655 LINE"
);
}
);
width = 526;
}
);
leftKerningGroup = V;
rightKerningGroup = V;
unicode = 0056;
},
{
color = 4;
glyphname = W;
lastChange = "2013-12-12 14:14:31 +0100";
layers = (
{
anchors = (
{
name = top;
position = "{424, 655}";
}
);
hints = (
{
horizontal = 1;
place = "{655.000000, -20.000000}";
target = down;
type = TopGhost;
},
{
horizontal = 1;
place = "{21.000000, 21.000000}";
target = up;
type = BottomGhost;
}
);
layerId = "3BA737DF-2981-4A42-8A92-02FACC3A7684";
name = Regular;
paths = (
{
closed = 1;
nodes = (
"733 655 LINE",
"612 93 LINE",
"482 655 LINE",
"366 655 LINE",
"237 93 LINE",
"115 655 LINE",
"25 655 LINE",
"177 0 LINE",
"291 0 LINE",
"424 558 LINE",
"558 0 LINE",
"672 0 LINE",
"823 655 LINE"
);
}
);
width = 848;
}
);
leftKerningGroup = W;
rightKerningGroup = W;
unicode = 0057;
},
{
color = 4;
glyphname = X;
lastChange = "2013-12-12 14:14:31 +0100";
layers = (
{
hints = (
{
horizontal = 1;
place = "{21.000000, 21.000000}";
target = up;
type = BottomGhost;
},
{
horizontal = 1;
place = "{655.000000, -20.000000}";
target = down;
type = TopGhost;
}
);
layerId = "3BA737DF-2981-4A42-8A92-02FACC3A7684";
name = Regular;
paths = (
{
closed = 1;
nodes = (
"401 655 LINE",
"264 405 LINE",
"127 655 LINE",
"25 655 LINE",
"205 338 LINE",
"13 0 LINE",
"111 0 LINE",
"257 268 LINE",
"403 0 LINE",
"506 0 LINE",
"317 336 LINE",
"495 655 LINE"
);
}
);
width = 519;
}
);
leftKerningGroup = X;
rightKerningGroup = X;
unicode = 0058;
},
{
color = 4;
glyphname = Y;
lastChange = "2013-12-12 14:14:31 +0100";
layers = (
{
anchors = (
{
name = top;
position = "{246, 655}";
},
{
name = topleft;
position = "{-10, 655}";
}
);
hints = (
{
place = "{203.000000, 85.000000}";
},
{
horizontal = 1;
place = "{655.000000, -20.000000}";
target = down;
type = TopGhost;
},
{
horizontal = 1;
place = "{21.000000, 21.000000}";
target = up;
type = BottomGhost;
}
);
layerId = "3BA737DF-2981-4A42-8A92-02FACC3A7684";
name = Regular;
paths = (
{
closed = 1;
nodes = (
"383 655 LINE",
"246 315 LINE",
"110 655 LINE",
"13 655 LINE",
"203 225 LINE",
"203 0 LINE",
"288 0 LINE",
"288 225 LINE",
"478 655 LINE"
);
}
);
width = 491;
}
);
leftKerningGroup = Y;
rightKerningGroup = Y;
unicode = 0059;
},
{
color = 4;
glyphname = Z;
lastChange = "2013-12-12 14:14:31 +0100";
layers = (
{
anchors = (
{
name = top;
position = "{239, 655}";
}
);
hints = (
{
horizontal = 1;
place = "{0.000000, 77.000000}";
},
{
horizontal = 1;
place = "{578.000000, 77.000000}";
}
);
layerId = "3BA737DF-2981-4A42-8A92-02FACC3A7684";
name = Regular;
paths = (
{
closed = 1;
nodes = (
"46 655 LINE",
"46 578 LINE",
"336 578 LINE",
"40 67 LINE",
"40 0 LINE",
"435 0 LINE",
"435 77 LINE",
"139 77 LINE",
"435 588 LINE",
"435 655 LINE"
);
}
);
width = 480;
}
);
leftKerningGroup = Z;
rightKerningGroup = Z;
unicode = 005A;
},
{
color = 4;
glyphname = a;
lastChange = "2013-12-12 14:14:31 +0100";
layers = (
{
anchors = (
{
name = ogonek;
position = "{404, 10}";
},
{
name = top;
position = "{225, 488}";
}
);
hints = (
{
place = "{45.000000, 86.000000}";
},
{
place = "{299.000000, 85.000000}";
},
{
horizontal = 1;
place = "{-12.000000, 76.000000}";
},
{
horizontal = 1;
place = "{238.000000, 66.000000}";
},
{
horizontal = 1;
place = "{427.000000, 73.000000}";
},
{
horizontal = 1;
place = "{0.000000, -20.000000}";
target = down;
type = TopGhost;
}
);
layerId = "3BA737DF-2981-4A42-8A92-02FACC3A7684";
name = Regular;
paths = (
{
closed = 1;
nodes = (
"184 500 OFFCURVE",
"128 492 OFFCURVE",
"84 485 CURVE",
"84 412 LINE",
"119 418 OFFCURVE",
"180 427 OFFCURVE",
"219 427 CURVE SMOOTH",
"273 427 OFFCURVE",
"299 405 OFFCURVE",
"299 346 CURVE SMOOTH",
"299 291 LINE",
"269 297 OFFCURVE",
"225 304 OFFCURVE",
"196 304 CURVE SMOOTH",
"102 304 OFFCURVE",
"45 243 OFFCURVE",
"45 165 CURVE SMOOTH",
"45 137 LINE SMOOTH",
"45 44 OFFCURVE",
"96 -12 OFFCURVE",
"172 -12 CURVE SMOOTH",
"219 -12 OFFCURVE",
"264 18 OFFCURVE",
"303 78 CURVE",
"303 0 LINE",
"384 0 LINE",
"384 339 LINE SMOOTH",
"384 451 OFFCURVE",
"333 500 OFFCURVE",
"219 500 CURVE SMOOTH"
);
},
{
closed = 1;
nodes = (
"238 238 OFFCURVE",
"272 236 OFFCURVE",
"299 231 CURVE",
"299 154 LINE",
"267 96 OFFCURVE",
"226 64 OFFCURVE",
"191 64 CURVE SMOOTH",
"157 64 OFFCURVE",
"131 92 OFFCURVE",
"131 143 CURVE SMOOTH",
"131 154 LINE SMOOTH",
"131 207 OFFCURVE",
"160 238 OFFCURVE",
"217 238 CURVE SMOOTH"
);
}
);
width = 449;
}
);
leftKerningGroup = a;
rightKerningGroup = a;
unicode = 0061;
},
{
color = 4;
glyphname = aogonek;
lastChange = "2013-12-12 14:14:31 +0100";
layers = (
{
hints = (
{
place = "{45.000000, 86.000000}";
},
{
place = "{238.000000, 72.000000}";
},
{
place = "{299.000000, 85.000000}";
},
{
horizontal = 1;
place = "{-197.000000, 63.000000}";
},
{
horizontal = 1;
place = "{-12.000000, 76.000000}";
},
{
horizontal = 1;
place = "{238.000000, 66.000000}";
},
{
horizontal = 1;
place = "{427.000000, 73.000000}";
},
{
horizontal = 1;
place = "{0.000000, -20.000000}";
target = down;
type = TopGhost;
}
);
layerId = "3BA737DF-2981-4A42-8A92-02FACC3A7684";
name = Regular;
paths = (
{
closed = 1;
nodes = (
"184 500 OFFCURVE",
"128 492 OFFCURVE",
"84 485 CURVE",
"84 412 LINE",
"119 418 OFFCURVE",
"180 427 OFFCURVE",
"219 427 CURVE SMOOTH",
"270 427 OFFCURVE",
"296 407 OFFCURVE",
"299 354 CURVE",
"299 291 LINE",
"269 297 OFFCURVE",
"225 304 OFFCURVE",
"196 304 CURVE SMOOTH",
"102 304 OFFCURVE",
"45 243 OFFCURVE",
"45 165 CURVE SMOOTH",
"45 137 LINE SMOOTH",
"45 44 OFFCURVE",
"96 -12 OFFCURVE",
"172 -12 CURVE SMOOTH",
"219 -12 OFFCURVE",
"264 18 OFFCURVE",
"303 78 CURVE",
"303 5 LINE",
"263 -19 OFFCURVE",
"238 -63 OFFCURVE",
"238 -103 CURVE SMOOTH",
"238 -116 LINE SMOOTH",
"238 -164 OFFCURVE",
"268 -197 OFFCURVE",
"336 -197 CURVE SMOOTH",
"351 -197 OFFCURVE",
"367 -196 OFFCURVE",
"384 -192 CURVE",
"384 -131 LINE",
"372 -133 OFFCURVE",
"360 -134 OFFCURVE",
"351 -134 CURVE SMOOTH",
"321 -134 OFFCURVE",
"310 -123 OFFCURVE",
"310 -97 CURVE SMOOTH",
"310 -87 LINE SMOOTH",
"310 -53 OFFCURVE",
"330 -19 OFFCURVE",
"366 0 CURVE",
"384 0 LINE",
"384 339 LINE SMOOTH",
"384 451 OFFCURVE",
"333 500 OFFCURVE",
"219 500 CURVE SMOOTH"
);
},
{
closed = 1;
nodes = (
"238 238 OFFCURVE",
"272 236 OFFCURVE",
"299 231 CURVE",
"299 154 LINE",
"267 96 OFFCURVE",
"226 64 OFFCURVE",
"191 64 CURVE SMOOTH",
"157 64 OFFCURVE",
"131 92 OFFCURVE",
"131 143 CURVE SMOOTH",
"131 154 LINE SMOOTH",
"131 207 OFFCURVE",
"160 238 OFFCURVE",
"217 238 CURVE SMOOTH"
);
}
);
width = 449;
}
);
leftKerningGroup = a;
leftMetricsKey = a;
rightKerningGroup = a;
unicode = 0105;
},
{
color = 4;
glyphname = ae;
lastChange = "2013-12-12 14:14:31 +0100";
layers = (
{
anchors = (
{
name = top;
position = "{375, 488}";
}
);
hints = (
{
place = "{45.000000, 86.000000}";
},
{
place = "{299.000000, 85.000000}";
},
{
place = "{560.000000, 85.000000}";
},
{
horizontal = 1;
place = "{-12.000000, 75.000000}";
},
{
horizontal = 1;
place = "{218.000000, 70.000000}";
},
{
horizontal = 1;
place = "{238.000000, 68.000000}";
},
{
horizontal = 1;
place = "{430.000000, 70.000000}";
}
);
layerId = "3BA737DF-2981-4A42-8A92-02FACC3A7684";
name = Regular;
paths = (
{
closed = 1;
nodes = (
"416 500 OFFCURVE",
"374 480 OFFCURVE",
"350 443 CURVE",
"326 481 OFFCURVE",
"281 500 OFFCURVE",
"219 500 CURVE SMOOTH",
"184 500 OFFCURVE",
"128 492 OFFCURVE",
"84 485 CURVE",
"84 415 LINE",
"119 421 OFFCURVE",
"180 430 OFFCURVE",
"219 430 CURVE SMOOTH",
"274 430 OFFCURVE",
"299 407 OFFCURVE",
"299 351 CURVE SMOOTH",
"299 293 LINE",
"269 299 OFFCURVE",
"225 306 OFFCURVE",
"196 306 CURVE SMOOTH",
"101 306 OFFCURVE",
"45 244 OFFCURVE",
"45 165 CURVE SMOOTH",
"45 137 LINE SMOOTH",
"45 45 OFFCURVE",
"95 -12 OFFCURVE",
"172 -12 CURVE SMOOTH",
"231 -12 OFFCURVE",
"279 25 OFFCURVE",
"320 90 CURVE",
"339 24 OFFCURVE",
"387 -12 OFFCURVE",
"488 -12 CURVE SMOOTH",
"526 -12 OFFCURVE",
"582 -2 OFFCURVE",
"626 6 CURVE",
"630 81 LINE",
"595 74 OFFCURVE",
"531 63 OFFCURVE",
"488 63 CURVE SMOOTH",
"418 63 OFFCURVE",
"384 91 OFFCURVE",
"384 159 CURVE SMOOTH",
"384 218 LINE",
"645 218 LINE",
"645 321 LINE SMOOTH",
"645 438 OFFCURVE",
"583 500 OFFCURVE",
"472 500 CURVE SMOOTH"
);
},
{
closed = 1;
nodes = (
"238 238 OFFCURVE",
"272 236 OFFCURVE",
"299 231 CURVE",
"299 154 LINE",
"267 96 OFFCURVE",
"226 64 OFFCURVE",
"191 64 CURVE SMOOTH",
"156 64 OFFCURVE",
"131 93 OFFCURVE",
"131 143 CURVE SMOOTH",
"131 154 LINE SMOOTH",
"131 206 OFFCURVE",
"161 238 OFFCURVE",
"217 238 CURVE SMOOTH"
);
},
{
closed = 1;
nodes = (
"526 429 OFFCURVE",
"560 395 OFFCURVE",
"560 331 CURVE SMOOTH",
"560 288 LINE",
"384 288 LINE",
"384 339 LINE",
"386 398 OFFCURVE",
"420 429 OFFCURVE",
"472 429 CURVE SMOOTH"
);
}
);
width = 690;
}
);
leftKerningGroup = a;
leftMetricsKey = a;
rightKerningGroup = e;
rightMetricsKey = e;
unicode = 00E6;
},
{
color = 4;
glyphname = b;
lastChange = "2013-12-12 14:14:31 +0100";
layers = (
{
hints = (
{
place = "{65.000000, 85.000000}";
},
{
place = "{326.000000, 85.000000}";
},
{
horizontal = 1;
place = "{-12.000000, 71.000000}";
},
{
horizontal = 1;
place = "{424.000000, 76.000000}";
},
{
horizontal = 1;
place = "{683.000000, -20.000000}";
target = down;
type = TopGhost;
}
);
layerId = "3BA737DF-2981-4A42-8A92-02FACC3A7684";
name = Regular;
paths = (
{
closed = 1;
nodes = (
"65 683 LINE",
"65 170 LINE SMOOTH",
"65 49 OFFCURVE",
"116 -12 OFFCURVE",
"235 -12 CURVE SMOOTH",
"357 -12 OFFCURVE",
"411 52 OFFCURVE",
"411 172 CURVE SMOOTH",
"411 330 LINE SMOOTH",
"411 442 OFFCURVE",
"363 500 OFFCURVE",
"281 500 CURVE SMOOTH",
"231 500 OFFCURVE",
"185 472 OFFCURVE",
"150 423 CURVE",
"150 683 LINE"
);
},
{
closed = 1;
nodes = (
"299 424 OFFCURVE",
"326 398 OFFCURVE",
"326 318 CURVE SMOOTH",
"326 162 LINE SMOOTH",
"326 94 OFFCURVE",
"297 59 OFFCURVE",
"235 59 CURVE SMOOTH",
"183 59 OFFCURVE",
"150 94 OFFCURVE",
"150 160 CURVE SMOOTH",
"150 342 LINE",
"179 393 OFFCURVE",
"222 424 OFFCURVE",
"261 424 CURVE SMOOTH"
);
}
);
width = 471;
}
);
leftKerningGroup = b;
rightKerningGroup = o;
unicode = 0062;
},
{
color = 4;
glyphname = c;
lastChange = "2013-12-12 14:14:31 +0100";
layers = (
{
anchors = (
{
name = bottom;
position = "{194, 0}";
},
{
name = top;
position = "{223, 488}";
}
);
hints = (
{
place = "{60.000000, 85.000000}";
},
{
horizontal = 1;
place = "{-12.000000, 75.000000}";
},
{
horizontal = 1;
place = "{425.000000, 75.000000}";
}
);
layerId = "3BA737DF-2981-4A42-8A92-02FACC3A7684";
name = Regular;
paths = (
{
closed = 1;
nodes = (
"116 500 OFFCURVE",
"60 434 OFFCURVE",
"60 318 CURVE SMOOTH",
"60 170 LINE SMOOTH",
"60 50 OFFCURVE",
"119 -12 OFFCURVE",
"240 -12 CURVE SMOOTH",
"266 -12 OFFCURVE",
"296 -9 OFFCURVE",
"343 1 CURVE",
"341 76 LINE",
"306 68 OFFCURVE",
"281 63 OFFCURVE",
"241 63 CURVE SMOOTH",
"183 63 OFFCURVE",
"145 95 OFFCURVE",
"145 164 CURVE SMOOTH",
"145 325 LINE SMOOTH",
"145 389 OFFCURVE",
"178 425 OFFCURVE",
"241 425 CURVE SMOOTH",
"274 425 OFFCURVE",
"305 420 OFFCURVE",
"341 412 CURVE",
"343 487 LINE",
"299 497 OFFCURVE",
"272 500 OFFCURVE",
"241 500 CURVE SMOOTH"
);
}
);
width = 390;
}
);
leftKerningGroup = c;
rightKerningGroup = c;
unicode = 0063;
},
{
color = 4;
glyphname = ccedilla;
lastChange = "2013-12-12 14:14:31 +0100";
layers = (
{
hints = (
{
place = "{60.000000, 85.000000}";
},
{
horizontal = 1;
place = "{-197.000000, 54.000000}";
},
{
horizontal = 1;
place = "{-80.000000, 143.000000}";
},
{
horizontal = 1;
place = "{425.000000, 75.000000}";
},
{
horizontal = 1;
place = "{-12.000000, -20.000000}";
target = down;
type = TopGhost;
}
);
layerId = "3BA737DF-2981-4A42-8A92-02FACC3A7684";
name = Regular;
paths = (
{
closed = 1;
nodes = (
"116 500 OFFCURVE",
"60 434 OFFCURVE",
"60 318 CURVE SMOOTH",
"60 170 LINE SMOOTH",
"60 74 OFFCURVE",
"98 13 OFFCURVE",
"180 -5 CURVE",
"163 -59 LINE",
"163 -80 LINE",
"193 -80 LINE SMOOTH",
"216 -80 OFFCURVE",
"226 -86 OFFCURVE",
"227 -106 CURVE SMOOTH",
"227 -119 LINE SMOOTH",
"227 -133 OFFCURVE",
"215 -143 OFFCURVE",
"186 -143 CURVE SMOOTH",
"176 -143 OFFCURVE",
"164 -141 OFFCURVE",
"150 -139 CURVE",
"150 -192 LINE",
"168 -195 OFFCURVE",
"183 -197 OFFCURVE",
"199 -197 CURVE SMOOTH",
"263 -197 OFFCURVE",
"294 -173 OFFCURVE",
"294 -120 CURVE",
"294 -105 LINE SMOOTH",
"294 -67 OFFCURVE",
"270 -41 OFFCURVE",
"242 -41 CURVE SMOOTH",
"232 -41 LINE",
"241 -12 LINE",
"279 -12 OFFCURVE",
"299 -9 OFFCURVE",
"343 -1 CURVE",
"341 74 LINE",
"306 67 OFFCURVE",
"283 63 OFFCURVE",
"243 63 CURVE SMOOTH",
"181 63 OFFCURVE",
"145 96 OFFCURVE",
"145 164 CURVE SMOOTH",
"145 325 LINE SMOOTH",
"145 389 OFFCURVE",
"178 425 OFFCURVE",
"243 425 CURVE SMOOTH",
"283 425 OFFCURVE",
"306 421 OFFCURVE",
"341 414 CURVE",
"343 489 LINE",
"299 497 OFFCURVE",
"279 500 OFFCURVE",
"243 500 CURVE SMOOTH"
);
}
);
width = 390;
}
);
leftKerningGroup = c;
leftMetricsKey = c;
rightKerningGroup = c;
rightMetricsKey = c;
unicode = 00E7;
},
{
color = 4;
glyphname = d;
lastChange = "2013-12-12 14:14:31 +0100";
layers = (
{
anchors = (
{
name = center;
position = "{238, 244}";
},
{
name = topleft;
position = "{486, 488}";
}
);
hints = (
{
place = "{60.000000, 85.000000}";
},
{
place = "{321.000000, 85.000000}";
},
{
horizontal = 1;
place = "{-12.000000, 76.000000}";
},
{
horizontal = 1;
place = "{424.000000, 76.000000}";
},
{
horizontal = 1;
place = "{0.000000, -20.000000}";
target = down;
type = TopGhost;
},
{
horizontal = 1;
place = "{683.000000, -20.000000}";
target = down;
type = TopGhost;
}
);
layerId = "3BA737DF-2981-4A42-8A92-02FACC3A7684";
name = Regular;
paths = (
{
closed = 1;
nodes = (
"321 683 LINE",
"321 450 LINE",
"291 473 OFFCURVE",
"244 500 OFFCURVE",
"201 500 CURVE SMOOTH",
"109 500 OFFCURVE",
"60 437 OFFCURVE",
"60 333 CURVE SMOOTH",
"60 155 LINE SMOOTH",
"60 45 OFFCURVE",
"106 -12 OFFCURVE",
"188 -12 CURVE SMOOTH",
"240 -12 OFFCURVE",
"286 20 OFFCURVE",
"325 79 CURVE",
"325 0 LINE",
"406 0 LINE",
"406 683 LINE"
);
},
{
closed = 1;
nodes = (
"251 424 OFFCURVE",
"293 403 OFFCURVE",
"321 374 CURVE",
"321 154 LINE",
"289 96 OFFCURVE",
"247 64 OFFCURVE",
"208 64 CURVE SMOOTH",
"171 64 OFFCURVE",
"145 90 OFFCURVE",
"145 166 CURVE SMOOTH",
"145 321 LINE SMOOTH",
"145 393 OFFCURVE",
"174 424 OFFCURVE",
"220 424 CURVE SMOOTH"
);
}
);
width = 476;
}
);
leftKerningGroup = o;
rightKerningGroup = d;
unicode = 0064;
},
{
color = 4;
glyphname = eth;
lastChange = "2013-12-12 14:14:31 +0100";
layers = (
{
hints = (
{
place = "{70.000000, 85.000000}";
},
{
place = "{331.000000, 85.000000}";
},
{
horizontal = 1;
place = "{-12.000000, 71.000000}";
},
{
horizontal = 1;
place = "{363.000000, 76.000000}";
},
{
horizontal = 1;
place = "{631.000000, 64.000000}";
}
);
layerId = "3BA737DF-2981-4A42-8A92-02FACC3A7684";
name = Regular;
paths = (
{
closed = 1;
nodes = (
"110 631 LINE",
"167 631 OFFCURVE",
"219 612 OFFCURVE",
"258 576 CURVE",
"172 551 LINE",
"172 484 LINE",
"299 522 LINE",
"319 485 OFFCURVE",
"331 440 OFFCURVE",
"331 386 CURVE SMOOTH",
"331 361 LINE",
"293 415 OFFCURVE",
"248 439 OFFCURVE",
"203 439 CURVE SMOOTH",
"121 439 OFFCURVE",
"70 383 OFFCURVE",
"70 272 CURVE SMOOTH",
"70 157 LINE SMOOTH",
"70 41 OFFCURVE",
"122 -12 OFFCURVE",
"243 -12 CURVE SMOOTH",
"357 -12 OFFCURVE",
"416 53 OFFCURVE",
"416 170 CURVE SMOOTH",
"416 340 LINE SMOOTH",
"416 423 OFFCURVE",
"403 492 OFFCURVE",
"377 545 CURVE",
"427 560 LINE",
"427 625 LINE",
"342 600 LINE",
"290 664 OFFCURVE",
"212 695 OFFCURVE",
"110 695 CURVE"
);
},
{
closed = 1;
nodes = (
"256 363 OFFCURVE",
"298 336 OFFCURVE",
"331 281 CURVE",
"331 148 LINE SMOOTH",
"331 90 OFFCURVE",
"303 59 OFFCURVE",
"243 59 CURVE SMOOTH",
"186 59 OFFCURVE",
"155 87 OFFCURVE",
"155 148 CURVE SMOOTH",
"155 260 LINE SMOOTH",
"155 333 OFFCURVE",
"181 363 OFFCURVE",
"220 363 CURVE SMOOTH"
);
}
);
width = 487;
}
);
unicode = 00F0;
},
{
color = 4;
glyphname = dcaron;
lastChange = "2013-12-12 15:10:07 +0100";
layers = (
{
anchors = (
{
name = center;
position = "{238, 244}";
},
{
name = topleft;
position = "{486, 488}";
}
);
hints = (
{
place = "{456.000000, 93.000000}";
},
{
horizontal = 1;
place = "{695.000000, -20.000000}";
target = down;
type = TopGhost;
},
{
horizontal = 1;
place = "{541.000000, 21.000000}";
target = up;
type = BottomGhost;
},
{
place = "{60.000000, 85.000000}";
},
{
place = "{321.000000, 85.000000}";
},
{
horizontal = 1;
place = "{-12.000000, 76.000000}";
},
{
horizontal = 1;
place = "{424.000000, 76.000000}";
},
{
horizontal = 1;
place = "{0.000000, -20.000000}";
target = down;
type = TopGhost;
},
{
horizontal = 1;
place = "{683.000000, -20.000000}";
target = down;
type = TopGhost;
}
);
layerId = "3BA737DF-2981-4A42-8A92-02FACC3A7684";
rightMetricsKey = caron.alt;
name = Regular;
paths = (
{
closed = 1;
nodes = (
"321 683 LINE",
"321 450 LINE",
"291 473 OFFCURVE",
"244 500 OFFCURVE",
"201 500 CURVE SMOOTH",
"109 500 OFFCURVE",
"60 437 OFFCURVE",
"60 333 CURVE SMOOTH",
"60 155 LINE SMOOTH",
"60 45 OFFCURVE",
"106 -12 OFFCURVE",
"188 -12 CURVE SMOOTH",
"240 -12 OFFCURVE",
"286 20 OFFCURVE",
"325 79 CURVE",
"325 0 LINE",
"406 0 LINE",
"406 683 LINE"
);
},
{
closed = 1;
nodes = (
"251 424 OFFCURVE",
"293 403 OFFCURVE",
"321 374 CURVE",
"321 154 LINE",
"289 96 OFFCURVE",
"247 64 OFFCURVE",
"208 64 CURVE SMOOTH",
"171 64 OFFCURVE",
"145 90 OFFCURVE",
"145 166 CURVE SMOOTH",
"145 321 LINE SMOOTH",
"145 393 OFFCURVE",
"174 424 OFFCURVE",
"220 424 CURVE SMOOTH"
);
},
{
closed = 1;
nodes = (
"459 695 OFFCURVE",
"442 680 OFFCURVE",
"442 659 CURVE SMOOTH",
"442 634 LINE SMOOTH",
"442 613 OFFCURVE",
"450 603 OFFCURVE",
"471 596 CURVE",
"454 520 LINE",
"505 520 LINE",
"527 586 LINE SMOOTH",
"532 602 OFFCURVE",
"535 615 OFFCURVE",
"535 633 CURVE SMOOTH",
"535 659 LINE SMOOTH",
"535 680 OFFCURVE",
"521 695 OFFCURVE",
"486 695 CURVE SMOOTH"
);
}
);
width = 520;
}
);
leftKerningGroup = o;
leftMetricsKey = d;
rightMetricsKey = caron.alt;
unicode = 010F;
},
{
color = 4;
glyphname = dcroat;
lastChange = "2013-12-12 14:14:31 +0100";
layers = (
{
hints = (
{
place = "{60.000000, 85.000000}";
},
{
place = "{325.000000, 81.000000}";
},
{
horizontal = 1;
place = "{-12.000000, 76.000000}";
},
{
horizontal = 1;
place = "{424.000000, 76.000000}";
},
{
horizontal = 1;
place = "{553.000000, 70.000000}";
},
{
horizontal = 1;
place = "{0.000000, -20.000000}";
target = down;
type = TopGhost;
},
{
horizontal = 1;
place = "{683.000000, -20.000000}";
target = down;
type = TopGhost;
}
);
layerId = "3BA737DF-2981-4A42-8A92-02FACC3A7684";
name = Regular;
paths = (
{
closed = 1;
nodes = (
"321 683 LINE",
"321 623 LINE",
"201 623 LINE",
"201 553 LINE",
"321 553 LINE",
"321 450 LINE",
"291 473 OFFCURVE",
"244 500 OFFCURVE",
"201 500 CURVE SMOOTH",
"109 500 OFFCURVE",
"60 437 OFFCURVE",
"60 333 CURVE SMOOTH",
"60 155 LINE SMOOTH",
"60 45 OFFCURVE",
"106 -12 OFFCURVE",
"188 -12 CURVE SMOOTH",
"240 -12 OFFCURVE",
"286 20 OFFCURVE",
"325 79 CURVE",
"325 0 LINE",
"406 0 LINE",
"406 553 LINE",
"476 553 LINE",
"476 623 LINE",
"406 623 LINE",
"406 683 LINE"
);
},
{
closed = 1;
nodes = (
"251 424 OFFCURVE",
"293 403 OFFCURVE",
"321 374 CURVE",
"321 154 LINE",
"289 96 OFFCURVE",
"247 64 OFFCURVE",
"208 64 CURVE SMOOTH",
"171 64 OFFCURVE",
"145 90 OFFCURVE",
"145 166 CURVE SMOOTH",
"145 321 LINE SMOOTH",
"145 393 OFFCURVE",
"174 424 OFFCURVE",
"220 424 CURVE SMOOTH"
);
}
);
width = 481;
}
);
leftKerningGroup = o;
leftMetricsKey = d;
unicode = 0111;
},
{
color = 4;
glyphname = e;
lastChange = "2013-12-12 14:14:31 +0100";
layers = (
{
anchors = (
{
name = bottom;
position = "{224, 0}";
},
{
name = ogonek;
position = "{402, 10}";
},
{
name = top;
position = "{227, 488}";
}
);
hints = (
{
place = "{60.000000, 85.000000}";
},
{
place = "{317.000000, 85.000000}";
},
{
horizontal = 1;
place = "{-12.000000, 75.000000}";
},
{
horizontal = 1;
place = "{218.000000, 68.000000}";
},
{
horizontal = 1;
place = "{429.000000, 71.000000}";
}
);
layerId = "3BA737DF-2981-4A42-8A92-02FACC3A7684";
name = Regular;
paths = (
{
closed = 1;
nodes = (
"115 500 OFFCURVE",
"60 436 OFFCURVE",
"60 321 CURVE SMOOTH",
"60 164 LINE SMOOTH",
"60 46 OFFCURVE",
"111 -12 OFFCURVE",
"246 -12 CURVE SMOOTH",
"284 -12 OFFCURVE",
"335 -3 OFFCURVE",
"379 5 CURVE",
"377 79 LINE",
"343 72 OFFCURVE",
"289 63 OFFCURVE",
"247 63 CURVE SMOOTH",
"176 63 OFFCURVE",
"145 91 OFFCURVE",
"145 159 CURVE SMOOTH",
"145 218 LINE",
"402 218 LINE",
"402 321 LINE SMOOTH",
"402 437 OFFCURVE",
"342 500 OFFCURVE",
"230 500 CURVE SMOOTH"
);
},
{
closed = 1;
nodes = (
"282 429 OFFCURVE",
"317 397 OFFCURVE",
"317 331 CURVE SMOOTH",
"317 286 LINE",
"145 286 LINE",
"145 334 LINE SMOOTH",
"145 396 OFFCURVE",
"179 429 OFFCURVE",
"230 429 CURVE SMOOTH"
);
}
);
width = 447;
}
);
leftKerningGroup = e;
rightKerningGroup = e;
unicode = 0065;
},
{
color = 4;
glyphname = eogonek;
lastChange = "2013-12-12 14:14:31 +0100";
layers = (
{
hints = (
{
place = "{60.000000, 85.000000}";
},
{
place = "{239.000000, 72.000000}";
},
{
place = "{317.000000, 85.000000}";
},
{
place = "{239.000000, 139.000000}";
},
{
horizontal = 1;
place = "{-197.000000, 63.000000}";
},
{
horizontal = 1;
place = "{-12.000000, 75.000000}";
},
{
horizontal = 1;
place = "{218.000000, 68.000000}";
},
{
horizontal = 1;
place = "{429.000000, 71.000000}";
}
);
layerId = "3BA737DF-2981-4A42-8A92-02FACC3A7684";
name = Regular;
paths = (
{
closed = 1;
nodes = (
"115 500 OFFCURVE",
"60 436 OFFCURVE",
"60 321 CURVE SMOOTH",
"60 164 LINE SMOOTH",
"60 46 OFFCURVE",
"111 -12 OFFCURVE",
"246 -12 CURVE SMOOTH",
"258 -12 OFFCURVE",
"271 -11 OFFCURVE",
"284 -10 CURVE",
"256 -35 OFFCURVE",
"239 -70 OFFCURVE",
"239 -103 CURVE SMOOTH",
"239 -116 LINE SMOOTH",
"239 -164 OFFCURVE",
"270 -197 OFFCURVE",
"338 -197 CURVE SMOOTH",
"353 -197 OFFCURVE",
"369 -196 OFFCURVE",
"386 -192 CURVE",
"386 -131 LINE",
"374 -133 OFFCURVE",
"362 -134 OFFCURVE",
"353 -134 CURVE SMOOTH",
"323 -134 OFFCURVE",
"311 -123 OFFCURVE",
"311 -97 CURVE SMOOTH",
"311 -87 LINE SMOOTH",
"311 -54 OFFCURVE",
"332 -12 OFFCURVE",
"379 7 CURVE",
"377 79 LINE",
"343 72 OFFCURVE",
"289 63 OFFCURVE",
"247 63 CURVE SMOOTH",
"176 63 OFFCURVE",
"145 91 OFFCURVE",
"145 159 CURVE SMOOTH",
"145 218 LINE",
"402 218 LINE",
"402 321 LINE SMOOTH",
"402 437 OFFCURVE",
"342 500 OFFCURVE",
"230 500 CURVE SMOOTH"
);
},
{
closed = 1;
nodes = (
"282 429 OFFCURVE",
"317 397 OFFCURVE",
"317 331 CURVE SMOOTH",
"317 286 LINE",
"145 286 LINE",
"145 334 LINE SMOOTH",
"145 396 OFFCURVE",
"179 429 OFFCURVE",
"230 429 CURVE SMOOTH"
);
}
);
width = 447;
}
);
leftKerningGroup = e;
leftMetricsKey = e;
rightKerningGroup = e;
rightMetricsKey = e;
unicode = 0119;
},
{
color = 4;
glyphname = f;
lastChange = "2013-12-12 14:14:31 +0100";
layers = (
{
hints = (
{
place = "{100.000000, 85.000000}";
},
{
place = "{100.000000, 213.000000}";
},
{
horizontal = 1;
place = "{418.000000, 70.000000}";
},
{
horizontal = 1;
place = "{625.000000, 70.000000}";
},
{
horizontal = 1;
place = "{21.000000, 21.000000}";
target = up;
type = BottomGhost;
}
);
layerId = "3BA737DF-2981-4A42-8A92-02FACC3A7684";
name = Regular;
paths = (
{
closed = 1;
nodes = (
"154 695 OFFCURVE",
"101 644 OFFCURVE",
"100 539 CURVE SMOOTH",
"100 488 LINE",
"30 488 LINE",
"30 418 LINE",
"100 418 LINE",
"100 0 LINE",
"185 0 LINE",
"185 418 LINE",
"285 418 LINE",
"285 488 LINE",
"185 488 LINE",
"185 544 LINE SMOOTH",
"185 600 OFFCURVE",
"212 625 OFFCURVE",
"251 625 CURVE SMOOTH",
"275 625 OFFCURVE",
"295 623 OFFCURVE",
"313 620 CURVE",
"313 688 LINE",
"300 691 OFFCURVE",
"274 695 OFFCURVE",
"250 695 CURVE SMOOTH"
);
}
);
width = 308;
}
);
leftKerningGroup = f;
rightKerningGroup = f;
unicode = 0066;
},
{
color = 4;
glyphname = g;
lastChange = "2013-12-12 14:14:31 +0100";
layers = (
{
anchors = (
{
name = top;
position = "{231, 488}";
}
);
hints = (
{
place = "{45.000000, 98.000000}";
},
{
place = "{58.000000, 85.000000}";
},
{
place = "{316.000000, 85.000000}";
},
{
place = "{341.000000, 83.000000}";
},
{
horizontal = 1;
place = "{-197.000000, 73.000000}";
},
{
horizontal = 1;
place = "{4.000000, 77.000000}";
},
{
horizontal = 1;
place = "{157.000000, 71.000000}";
},
{
horizontal = 1;
place = "{415.000000, 73.000000}";
},
{
horizontal = 1;
place = "{429.000000, 71.000000}";
}
);
layerId = "3BA737DF-2981-4A42-8A92-02FACC3A7684";
name = Regular;
paths = (
{
closed = 1;
nodes = (
"114 500 OFFCURVE",
"58 436 OFFCURVE",
"58 344 CURVE SMOOTH",
"58 322 LINE SMOOTH",
"58 266 OFFCURVE",
"67 227 OFFCURVE",
"90 201 CURVE",
"61 179 OFFCURVE",
"45 150 OFFCURVE",
"45 121 CURVE SMOOTH",
"45 101 LINE SMOOTH",
"45 48 OFFCURVE",
"78 13 OFFCURVE",
"143 9 CURVE SMOOTH",
"293 -1 LINE SMOOTH",
"324 -3 OFFCURVE",
"341 -21 OFFCURVE",
"341 -51 CURVE SMOOTH",
"341 -59 LINE SMOOTH",
"341 -106 OFFCURVE",
"326 -124 OFFCURVE",
"217 -124 CURVE SMOOTH",
"169 -124 OFFCURVE",
"107 -109 OFFCURVE",
"59 -93 CURVE",
"56 -172 LINE",
"108 -187 OFFCURVE",
"172 -197 OFFCURVE",
"214 -197 CURVE SMOOTH",
"388 -197 OFFCURVE",
"424 -152 OFFCURVE",
"424 -72 CURVE SMOOTH",
"424 -35 LINE SMOOTH",
"424 27 OFFCURVE",
"382 71 OFFCURVE",
"321 76 CURVE SMOOTH",
"172 87 LINE SMOOTH",
"133 90 OFFCURVE",
"123 99 OFFCURVE",
"123 120 CURVE SMOOTH",
"123 126 LINE SMOOTH",
"123 139 OFFCURVE",
"129 154 OFFCURVE",
"145 167 CURVE",
"168 160 OFFCURVE",
"196 157 OFFCURVE",
"230 157 CURVE SMOOTH",
"341 157 OFFCURVE",
"401 225 OFFCURVE",
"401 319 CURVE SMOOTH",
"401 341 LINE SMOOTH",
"401 368 OFFCURVE",
"394 395 OFFCURVE",
"384 416 CURVE",
"466 414 LINE",
"466 489 LINE",
"310 487 LINE",
"288 495 OFFCURVE",
"261 500 OFFCURVE",
"230 500 CURVE SMOOTH"
);
},
{
closed = 1;
nodes = (
"259 429 OFFCURVE",
"289 423 OFFCURVE",
"304 416 CURVE",
"311 398 OFFCURVE",
"316 373 OFFCURVE",
"316 343 CURVE SMOOTH",
"316 313 LINE SMOOTH",
"316 259 OFFCURVE",
"286 228 OFFCURVE",
"224 228 CURVE SMOOTH",
"158 228 OFFCURVE",
"143 242 OFFCURVE",
"143 313 CURVE SMOOTH",
"143 346 LINE SMOOTH",
"143 400 OFFCURVE",
"175 429 OFFCURVE",
"230 429 CURVE SMOOTH"
);
}
);
width = 476;
}
);
leftKerningGroup = g;
rightKerningGroup = g;
unicode = 0067;
},
{
color = 4;
glyphname = h;
lastChange = "2013-12-12 14:14:31 +0100";
layers = (
{
anchors = (
{
name = center;
position = "{241, 244}";
},
{
name = top;
position = "{216, 655}";
}
);
hints = (
{
place = "{70.000000, 85.000000}";
},
{
place = "{331.000000, 85.000000}";
},
{
horizontal = 1;
place = "{421.000000, 79.000000}";
},
{
horizontal = 1;
place = "{21.000000, 21.000000}";
target = up;
type = BottomGhost;
},
{
horizontal = 1;
place = "{683.000000, -20.000000}";
target = down;
type = TopGhost;
}
);
layerId = "3BA737DF-2981-4A42-8A92-02FACC3A7684";
name = Regular;
paths = (
{
closed = 1;
nodes = (
"70 683 LINE",
"70 0 LINE",
"155 0 LINE",
"155 339 LINE",
"184 390 OFFCURVE",
"227 421 OFFCURVE",
"266 421 CURVE SMOOTH",
"304 421 OFFCURVE",
"331 394 OFFCURVE",
"331 321 CURVE SMOOTH",
"331 0 LINE",
"416 0 LINE",
"416 333 LINE SMOOTH",
"416 440 OFFCURVE",
"368 500 OFFCURVE",
"283 500 CURVE SMOOTH",
"233 500 OFFCURVE",
"190 472 OFFCURVE",
"155 423 CURVE",
"155 683 LINE"
);
}
);
width = 481;
}
);
leftKerningGroup = k;
rightKerningGroup = n;
unicode = 0068;
},
{
color = 4;
glyphname = dotlessi;
lastChange = "2013-12-12 14:14:31 +0100";
layers = (
{
anchors = (
{
name = ogonek;
position = "{202, 10}";
},
{
name = top;
position = "{113, 488}";
}
);
hints = (
{
place = "{70.000000, 85.000000}";
},
{
horizontal = 1;
place = "{21.000000, 21.000000}";
target = up;
type = BottomGhost;
},
{
horizontal = 1;
place = "{488.000000, -20.000000}";
target = down;
type = TopGhost;
}
);
layerId = "3BA737DF-2981-4A42-8A92-02FACC3A7684";
name = Regular;
paths = (
{
closed = 1;
nodes = (
"70 488 LINE",
"70 0 LINE",
"155 0 LINE",
"155 488 LINE"
);
}
);
width = 225;
}
);
leftKerningGroup = n;
rightKerningGroup = u;
unicode = 0131;
},
{
color = 4;
glyphname = iogonek;
lastChange = "2013-12-12 14:14:31 +0100";
layers = (
{
hints = (
{
place = "{9.000000, 72.000000}";
},
{
place = "{57.000000, 111.000000}";
},
{
place = "{70.000000, 85.000000}";
},
{
horizontal = 1;
place = "{-197.000000, 63.000000}";
},
{
horizontal = 1;
place = "{575.000000, 120.000000}";
},
{
horizontal = 1;
place = "{0.000000, -20.000000}";
target = down;
type = TopGhost;
},
{
horizontal = 1;
place = "{488.000000, -20.000000}";
target = down;
type = TopGhost;
}
);
layerId = "3BA737DF-2981-4A42-8A92-02FACC3A7684";
name = Regular;
paths = (
{
closed = 1;
nodes = (
"70 488 LINE",
"70 2 LINE",
"32 -22 OFFCURVE",
"9 -64 OFFCURVE",
"9 -103 CURVE SMOOTH",
"9 -116 LINE SMOOTH",
"9 -164 OFFCURVE",
"40 -197 OFFCURVE",
"108 -197 CURVE SMOOTH",
"123 -197 OFFCURVE",
"139 -196 OFFCURVE",
"156 -192 CURVE",
"156 -131 LINE",
"144 -133 OFFCURVE",
"132 -134 OFFCURVE",
"123 -134 CURVE SMOOTH",
"93 -134 OFFCURVE",
"81 -123 OFFCURVE",
"81 -97 CURVE SMOOTH",
"81 -87 LINE SMOOTH",
"81 -53 OFFCURVE",
"101 -19 OFFCURVE",
"137 0 CURVE",
"155 0 LINE",
"155 488 LINE"
);
},
{
closed = 1;
nodes = (
"77 695 OFFCURVE",
"57 679 OFFCURVE",
"57 649 CURVE SMOOTH",
"57 620 LINE SMOOTH",
"57 591 OFFCURVE",
"77 575 OFFCURVE",
"112 575 CURVE SMOOTH",
"148 575 OFFCURVE",
"168 591 OFFCURVE",
"168 620 CURVE SMOOTH",
"168 649 LINE SMOOTH",
"168 679 OFFCURVE",
"148 695 OFFCURVE",
"112 695 CURVE SMOOTH"
);
}
);
width = 225;
}
);
unicode = 012F;
},
{
color = 4;
glyphname = j;
lastChange = "2013-12-12 15:35:54 +0100";
layers = (
{
anchors = (
{
name = top;
position = "{113, 488}";
}
);
hints = (
{
place = "{-58.000000, 213.000000}";
},
{
place = "{57.000000, 111.000000}";
},
{
place = "{70.000000, 85.000000}";
},
{
horizontal = 1;
place = "{-197.000000, 73.000000}";
},
{
horizontal = 1;
place = "{565.000000, 120.000000}";
},
{
horizontal = 1;
place = "{488.000000, -20.000000}";
},
{
place = "{-58.000000, 213.000000}";
},
{
place = "{70.000000, 85.000000}";
},
{
horizontal = 1;
place = "{-197.000000, 73.000000}";
},
{
horizontal = 1;
place = "{488.000000, -20.000000}";
},
{
place = "{-275.000000, 111.000000}";
},
{
horizontal = 1;
place = "{565.000000, 120.000000}";
}
);
layerId = "3BA737DF-2981-4A42-8A92-02FACC3A7684";
name = Regular;
paths = (
{
closed = 1;
nodes = (
"70 488 LINE",
"70 -53 LINE SMOOTH",
"70 -102 OFFCURVE",
"50 -124 OFFCURVE",
"6 -124 CURVE SMOOTH",
"-19 -124 OFFCURVE",
"-47 -121 OFFCURVE",
"-58 -120 CURVE",
"-58 -191 LINE",
"-49 -193 OFFCURVE",
"-20 -197 OFFCURVE",
"2 -197 CURVE SMOOTH",
"110 -197 OFFCURVE",
"155 -146 OFFCURVE",
"155 -46 CURVE SMOOTH",
"155 488 LINE"
);
},
{
closed = 1;
nodes = (
"77 685 OFFCURVE",
"57 669 OFFCURVE",
"57 639 CURVE SMOOTH",
"57 610 LINE SMOOTH",
"57 581 OFFCURVE",
"77 565 OFFCURVE",
"112 565 CURVE SMOOTH",
"148 565 OFFCURVE",
"168 581 OFFCURVE",
"168 610 CURVE SMOOTH",
"168 639 LINE SMOOTH",
"168 669 OFFCURVE",
"148 685 OFFCURVE",
"112 685 CURVE SMOOTH"
);
}
);
width = 225;
}
);
leftKerningGroup = j;
rightKerningGroup = j;
unicode = 006A;
},
{
color = 4;
glyphname = k;
lastChange = "2013-12-12 14:14:31 +0100";
layers = (
{
anchors = (
{
name = bottom;
position = "{236, 0}";
}
);
hints = (
{
place = "{70.000000, 85.000000}";
},
{
horizontal = 1;
place = "{21.000000, 21.000000}";
target = up;
type = BottomGhost;
},
{
horizontal = 1;
place = "{488.000000, -20.000000}";
target = down;
type = TopGhost;
},
{
horizontal = 1;
place = "{683.000000, -20.000000}";
target = down;
type = TopGhost;
}
);
layerId = "3BA737DF-2981-4A42-8A92-02FACC3A7684";
name = Regular;
paths = (
{
closed = 1;
nodes = (
"70 683 LINE",
"70 0 LINE",
"155 0 LINE",
"155 262 LINE",
"320 0 LINE",
"422 0 LINE",
"244 274 LINE",
"410 488 LINE",
"315 488 LINE",
"155 274 LINE",
"155 683 LINE"
);
}
);
width = 427;
}
);
leftKerningGroup = k;
leftMetricsKey = h;
rightKerningGroup = k;
unicode = 006B;
},
{
color = 4;
glyphname = l;
lastChange = "2013-12-12 14:14:31 +0100";
layers = (
{
anchors = (
{
name = bottom;
position = "{113, 0}";
},
{
name = center;
position = "{234, 440}";
},
{
name = top;
position = "{122, 655}";
},
{
name = topleft;
position = "{245, 488}";
}
);
hints = (
{
place = "{70.000000, 85.000000}";
},
{
horizontal = 1;
place = "{21.000000, 21.000000}";
target = up;
type = BottomGhost;
},
{
horizontal = 1;
place = "{683.000000, -20.000000}";
target = down;
type = TopGhost;
}
);
layerId = "3BA737DF-2981-4A42-8A92-02FACC3A7684";
name = Regular;
paths = (
{
closed = 1;
nodes = (
"70 683 LINE",
"70 0 LINE",
"155 0 LINE",
"155 683 LINE"
);
}
);
width = 225;
}
);
leftKerningGroup = k;
rightKerningGroup = l;
unicode = 006C;
},
{
color = 4;
glyphname = lcaron;
lastChange = "2013-12-12 15:10:19 +0100";
layers = (
{
anchors = (
{
name = bottom;
position = "{113, 0}";
},
{
name = center;
position = "{234, 440}";
},
{
name = top;
position = "{122, 655}";
},
{
name = topleft;
position = "{245, 488}";
}
);
hints = (
{
place = "{70.000000, 85.000000}";
},
{
horizontal = 1;
place = "{21.000000, 21.000000}";
target = up;
type = BottomGhost;
},
{
horizontal = 1;
place = "{683.000000, -20.000000}";
target = down;
type = TopGhost;
}
);
layerId = "3BA737DF-2981-4A42-8A92-02FACC3A7684";
rightMetricsKey = caron.alt;
name = Regular;
paths = (
{
closed = 1;
nodes = (
"70 683 LINE",
"70 0 LINE",
"155 0 LINE",
"155 683 LINE"
);
},
{
closed = 1;
nodes = (
"218 695 OFFCURVE",
"201 680 OFFCURVE",
"201 659 CURVE SMOOTH",
"201 634 LINE SMOOTH",
"201 613 OFFCURVE",
"209 603 OFFCURVE",
"230 596 CURVE",
"213 520 LINE",
"264 520 LINE",
"286 586 LINE SMOOTH",
"291 602 OFFCURVE",
"294 615 OFFCURVE",
"294 633 CURVE SMOOTH",
"294 659 LINE SMOOTH",
"294 680 OFFCURVE",
"280 695 OFFCURVE",
"245 695 CURVE SMOOTH"
);
}
);
width = 279;
}
);
leftKerningGroup = k;
leftMetricsKey = l;
rightMetricsKey = caron.alt;
unicode = 013E;
},
{
color = 4;
glyphname = lslash;
lastChange = "2013-12-12 14:14:31 +0100";
layers = (
{
hints = (
{
place = "{-15.000000, 175.000000}";
},
{
place = "{75.000000, 85.000000}";
},
{
place = "{75.000000, 175.000000}";
},
{
horizontal = 1;
place = "{21.000000, 21.000000}";
target = up;
type = BottomGhost;
},
{
horizontal = 1;
place = "{683.000000, -20.000000}";
target = down;
type = TopGhost;
}
);
layerId = "3BA737DF-2981-4A42-8A92-02FACC3A7684";
name = Regular;
paths = (
{
closed = 1;
nodes = (
"75 683 LINE",
"75 425 LINE",
"-15 398 LINE",
"-15 328 LINE",
"75 355 LINE",
"75 0 LINE",
"160 0 LINE",
"160 380 LINE",
"250 408 LINE",
"250 478 LINE",
"160 450 LINE",
"160 683 LINE"
);
}
);
width = 235;
}
);
unicode = 0142;
},
{
color = 4;
glyphname = m;
lastChange = "2013-12-12 14:14:31 +0100";
layers = (
{
hints = (
{
place = "{70.000000, 85.000000}";
},
{
place = "{328.000000, 85.000000}";
},
{
place = "{586.000000, 85.000000}";
},
{
horizontal = 1;
place = "{421.000000, 79.000000}";
},
{
horizontal = 1;
place = "{21.000000, 21.000000}";
target = up;
type = BottomGhost;
},
{
horizontal = 1;
place = "{488.000000, -20.000000}";
target = down;
type = TopGhost;
}
);
layerId = "3BA737DF-2981-4A42-8A92-02FACC3A7684";
name = Regular;
paths = (
{
closed = 1;
nodes = (
"486 500 OFFCURVE",
"439 467 OFFCURVE",
"403 408 CURVE",
"385 468 OFFCURVE",
"343 500 OFFCURVE",
"281 500 CURVE SMOOTH",
"231 500 OFFCURVE",
"185 469 OFFCURVE",
"150 415 CURVE",
"150 488 LINE",
"70 488 LINE",
"70 0 LINE",
"155 0 LINE",
"155 339 LINE",
"184 390 OFFCURVE",
"227 421 OFFCURVE",
"264 421 CURVE SMOOTH",
"303 421 OFFCURVE",
"328 394 OFFCURVE",
"328 321 CURVE SMOOTH",
"328 0 LINE",
"413 0 LINE",
"413 339 LINE",
"442 390 OFFCURVE",
"485 421 OFFCURVE",
"522 421 CURVE SMOOTH",
"561 421 OFFCURVE",
"586 394 OFFCURVE",
"586 321 CURVE SMOOTH",
"586 0 LINE",
"671 0 LINE",
"671 333 LINE SMOOTH",
"671 440 OFFCURVE",
"624 500 OFFCURVE",
"539 500 CURVE SMOOTH"
);
}
);
width = 741;
}
);
leftKerningGroup = n;
leftMetricsKey = n;
rightKerningGroup = n;
rightMetricsKey = n;
unicode = 006D;
},
{
color = 4;
glyphname = n;
lastChange = "2013-12-12 14:14:31 +0100";
layers = (
{
anchors = (
{
name = apo;
position = "{11, 488}";
},
{
name = bottom;
position = "{249, 0}";
},
{
name = top;
position = "{247, 488}";
}
);
hints = (
{
place = "{70.000000, 85.000000}";
},
{
place = "{331.000000, 85.000000}";
},
{
horizontal = 1;
place = "{421.000000, 79.000000}";
},
{
horizontal = 1;
place = "{21.000000, 21.000000}";
target = up;
type = BottomGhost;
},
{
horizontal = 1;
place = "{488.000000, -20.000000}";
target = down;
type = TopGhost;
}
);
layerId = "3BA737DF-2981-4A42-8A92-02FACC3A7684";
name = Regular;
paths = (
{
closed = 1;
nodes = (
"231 500 OFFCURVE",
"185 469 OFFCURVE",
"150 415 CURVE",
"150 488 LINE",
"70 488 LINE",
"70 0 LINE",
"155 0 LINE",
"155 339 LINE",
"184 390 OFFCURVE",
"227 421 OFFCURVE",
"266 421 CURVE SMOOTH",
"305 421 OFFCURVE",
"331 393 OFFCURVE",
"331 321 CURVE SMOOTH",
"331 0 LINE",
"416 0 LINE",
"416 333 LINE SMOOTH",
"416 440 OFFCURVE",
"368 500 OFFCURVE",
"283 500 CURVE SMOOTH"
);
}
);
width = 486;
}
);
leftKerningGroup = n;
rightKerningGroup = n;
unicode = 006E;
},
{
color = 4;
glyphname = o;
lastChange = "2013-12-12 14:14:31 +0100";
layers = (
{
anchors = (
{
name = top;
position = "{236, 488}";
}
);
hints = (
{
place = "{60.000000, 85.000000}";
},
{
place = "{327.000000, 85.000000}";
},
{
horizontal = 1;
place = "{-12.000000, 71.000000}";
},
{
horizontal = 1;
place = "{429.000000, 71.000000}";
}
);
layerId = "3BA737DF-2981-4A42-8A92-02FACC3A7684";
name = Regular;
paths = (
{
closed = 1;
nodes = (
"114 500 OFFCURVE",
"60 431 OFFCURVE",
"60 318 CURVE SMOOTH",
"60 170 LINE SMOOTH",
"60 57 OFFCURVE",
"114 -12 OFFCURVE",
"236 -12 CURVE SMOOTH",
"358 -12 OFFCURVE",
"412 57 OFFCURVE",
"412 170 CURVE SMOOTH",
"412 318 LINE SMOOTH",
"412 431 OFFCURVE",
"358 500 OFFCURVE",
"236 500 CURVE SMOOTH"
);
},
{
closed = 1;
nodes = (
"293 429 OFFCURVE",
"327 394 OFFCURVE",
"327 326 CURVE SMOOTH",
"327 163 LINE SMOOTH",
"327 95 OFFCURVE",
"293 59 OFFCURVE",
"236 59 CURVE SMOOTH",
"179 59 OFFCURVE",
"145 95 OFFCURVE",
"145 163 CURVE SMOOTH",
"145 325 LINE SMOOTH",
"145 393 OFFCURVE",
"179 429 OFFCURVE",
"236 429 CURVE SMOOTH"
);
}
);
width = 472;
}
);
leftKerningGroup = o;
rightKerningGroup = o;
unicode = 006F;
},
{
color = 4;
glyphname = oslash;
lastChange = "2013-12-12 14:14:31 +0100";
layers = (
{
anchors = (
{
name = top;
position = "{236, 488}";
}
);
hints = (
{
place = "{60.000000, 85.000000}";
},
{
place = "{327.000000, 85.000000}";
},
{
horizontal = 1;
place = "{-12.000000, 71.000000}";
},
{
horizontal = 1;
place = "{429.000000, 71.000000}";
},
{
horizontal = 1;
place = "{-30.000000, 21.000000}";
target = up;
type = BottomGhost;
},
{
horizontal = 1;
place = "{538.000000, -20.000000}";
target = down;
type = TopGhost;
}
);
layerId = "3BA737DF-2981-4A42-8A92-02FACC3A7684";
name = Regular;
paths = (
{
closed = 1;
nodes = (
"388 538 LINE",
"344 472 LINE",
"317 490 OFFCURVE",
"281 500 OFFCURVE",
"236 500 CURVE SMOOTH",
"114 500 OFFCURVE",
"60 431 OFFCURVE",
"60 318 CURVE SMOOTH",
"60 170 LINE SMOOTH",
"60 132 OFFCURVE",
"66 99 OFFCURVE",
"78 72 CURVE",
"-4 -51 LINE",
"84 -51 LINE",
"128 15 LINE",
"155 -2 OFFCURVE",
"191 -12 OFFCURVE",
"236 -12 CURVE SMOOTH",
"358 -12 OFFCURVE",
"412 57 OFFCURVE",
"412 170 CURVE SMOOTH",
"412 318 LINE SMOOTH",
"412 355 OFFCURVE",
"406 387 OFFCURVE",
"394 414 CURVE",
"476 538 LINE"
);
},
{
closed = 1;
nodes = (
"327 323 OFFCURVE",
"327 319 OFFCURVE",
"327 316 CURVE",
"327 163 LINE SMOOTH",
"327 95 OFFCURVE",
"293 59 OFFCURVE",
"236 59 CURVE SMOOTH",
"206 59 OFFCURVE",
"183 68 OFFCURVE",
"167 87 CURVE",
"327 326 LINE"
);
},
{
closed = 1;
nodes = (
"266 429 OFFCURVE",
"290 419 OFFCURVE",
"305 400 CURVE",
"145 158 LINE",
"145 161 OFFCURVE",
"145 165 OFFCURVE",
"145 168 CURVE",
"145 325 LINE SMOOTH",
"145 393 OFFCURVE",
"179 429 OFFCURVE",
"236 429 CURVE SMOOTH"
);
}
);
width = 472;
}
);
leftKerningGroup = o;
rightKerningGroup = o;
unicode = 00F8;
},
{
color = 4;
glyphname = oe;
lastChange = "2013-12-12 14:14:31 +0100";
layers = (
{
background = {
paths = (
{
closed = 1;
nodes = (
"386 500 OFFCURVE",
"331 436 OFFCURVE",
"331 321 CURVE SMOOTH",
"331 164 LINE SMOOTH",
"331 46 OFFCURVE",
"382 -12 OFFCURVE",
"517 -12 CURVE SMOOTH",
"555 -12 OFFCURVE",
"606 -3 OFFCURVE",
"650 5 CURVE",
"648 79 LINE",
"614 72 OFFCURVE",
"560 63 OFFCURVE",
"518 63 CURVE SMOOTH",
"447 63 OFFCURVE",
"416 91 OFFCURVE",
"416 159 CURVE SMOOTH",
"416 218 LINE",
"673 218 LINE",
"673 321 LINE SMOOTH",
"673 437 OFFCURVE",
"613 500 OFFCURVE",
"501 500 CURVE SMOOTH"
);
},
{
closed = 1;
nodes = (
"553 429 OFFCURVE",
"588 397 OFFCURVE",
"588 331 CURVE SMOOTH",
"588 286 LINE",
"416 286 LINE",
"416 334 LINE SMOOTH",
"416 396 OFFCURVE",
"450 429 OFFCURVE",
"501 429 CURVE SMOOTH"
);
}
);
};
hints = (
{
place = "{60.000000, 85.000000}";
},
{
place = "{327.000000, 85.000000}";
},
{
place = "{588.000000, 85.000000}";
},
{
horizontal = 1;
place = "{-12.000000, 75.000000}";
},
{
horizontal = 1;
place = "{218.000000, 70.000000}";
},
{
horizontal = 1;
place = "{429.000000, 71.000000}";
}
);
layerId = "3BA737DF-2981-4A42-8A92-02FACC3A7684";
name = Regular;
paths = (
{
closed = 1;
nodes = (
"439 500 OFFCURVE",
"396 479 OFFCURVE",
"368 447 CURVE",
"340 479 OFFCURVE",
"297 500 OFFCURVE",
"236 500 CURVE SMOOTH",
"113 500 OFFCURVE",
"60 430 OFFCURVE",
"60 318 CURVE SMOOTH",
"60 170 LINE SMOOTH",
"60 58 OFFCURVE",
"113 -12 OFFCURVE",
"236 -12 CURVE SMOOTH",
"297 -12 OFFCURVE",
"340 8 OFFCURVE",
"368 40 CURVE",
"397 8 OFFCURVE",
"444 -12 OFFCURVE",
"516 -12 CURVE SMOOTH",
"554 -12 OFFCURVE",
"606 -3 OFFCURVE",
"650 5 CURVE",
"648 79 LINE",
"613 72 OFFCURVE",
"559 63 OFFCURVE",
"516 63 CURVE SMOOTH",
"445 63 OFFCURVE",
"412 92 OFFCURVE",
"412 159 CURVE SMOOTH",
"412 218 LINE",
"673 218 LINE",
"673 321 LINE SMOOTH",
"673 434 OFFCURVE",
"615 500 OFFCURVE",
"500 500 CURVE SMOOTH"
);
},
{
closed = 1;
nodes = (
"293 429 OFFCURVE",
"327 394 OFFCURVE",
"327 326 CURVE SMOOTH",
"327 163 LINE SMOOTH",
"327 95 OFFCURVE",
"293 59 OFFCURVE",
"236 59 CURVE SMOOTH",
"179 59 OFFCURVE",
"145 95 OFFCURVE",
"145 163 CURVE SMOOTH",
"145 325 LINE SMOOTH",
"145 393 OFFCURVE",
"179 429 OFFCURVE",
"236 429 CURVE SMOOTH"
);
},
{
closed = 1;
nodes = (
"554 429 OFFCURVE",
"588 395 OFFCURVE",
"588 331 CURVE SMOOTH",
"588 288 LINE",
"412 288 LINE",
"412 332 LINE SMOOTH",
"412 396 OFFCURVE",
"446 429 OFFCURVE",
"500 429 CURVE SMOOTH"
);
}
);
width = 718;
}
);
leftKerningGroup = o;
leftMetricsKey = o;
rightKerningGroup = e;
rightMetricsKey = e;
unicode = 0153;
},
{
color = 4;
glyphname = p;
lastChange = "2013-12-12 14:14:31 +0100";
layers = (
{
hints = (
{
place = "{70.000000, 85.000000}";
},
{
place = "{330.000000, 85.000000}";
},
{
horizontal = 1;
place = "{-12.000000, 75.000000}";
},
{
horizontal = 1;
place = "{424.000000, 76.000000}";
},
{
horizontal = 1;
place = "{-164.000000, 21.000000}";
target = up;
type = BottomGhost;
},
{
horizontal = 1;
place = "{488.000000, -20.000000}";
target = down;
type = TopGhost;
}
);
layerId = "3BA737DF-2981-4A42-8A92-02FACC3A7684";
name = Regular;
paths = (
{
closed = 1;
nodes = (
"230 500 OFFCURVE",
"185 470 OFFCURVE",
"150 417 CURVE",
"150 488 LINE",
"70 488 LINE",
"70 -185 LINE",
"155 -185 LINE",
"155 23 LINE",
"184 6 OFFCURVE",
"228 -12 OFFCURVE",
"265 -12 CURVE SMOOTH",
"356 -12 OFFCURVE",
"415 50 OFFCURVE",
"415 155 CURVE SMOOTH",
"415 333 LINE SMOOTH",
"415 443 OFFCURVE",
"365 500 OFFCURVE",
"282 500 CURVE SMOOTH"
);
},
{
closed = 1;
nodes = (
"303 424 OFFCURVE",
"330 396 OFFCURVE",
"330 321 CURVE SMOOTH",
"330 167 LINE SMOOTH",
"330 97 OFFCURVE",
"303 63 OFFCURVE",
"248 63 CURVE SMOOTH",
"220 63 OFFCURVE",
"184 76 OFFCURVE",
"155 99 CURVE",
"155 344 LINE",
"184 394 OFFCURVE",
"226 424 OFFCURVE",
"265 424 CURVE SMOOTH"
);
}
);
width = 475;
}
);
leftKerningGroup = n;
rightKerningGroup = o;
unicode = 0070;
},
{
color = 4;
glyphname = thorn;
lastChange = "2013-12-12 14:14:31 +0100";
layers = (
{
hints = (
{
place = "{70.000000, 85.000000}";
},
{
place = "{330.000000, 85.000000}";
},
{
horizontal = 1;
place = "{-12.000000, 75.000000}";
},
{
horizontal = 1;
place = "{424.000000, 76.000000}";
},
{
horizontal = 1;
place = "{-164.000000, 21.000000}";
target = up;
type = BottomGhost;
},
{
horizontal = 1;
place = "{683.000000, -20.000000}";
target = down;
type = TopGhost;
}
);
layerId = "3BA737DF-2981-4A42-8A92-02FACC3A7684";
name = Regular;
paths = (
{
closed = 1;
nodes = (
"70 683 LINE",
"70 -185 LINE",
"155 -185 LINE",
"155 23 LINE",
"184 6 OFFCURVE",
"228 -12 OFFCURVE",
"265 -12 CURVE SMOOTH",
"356 -12 OFFCURVE",
"415 50 OFFCURVE",
"415 155 CURVE SMOOTH",
"415 333 LINE SMOOTH",
"415 443 OFFCURVE",
"365 500 OFFCURVE",
"282 500 CURVE SMOOTH",
"233 500 OFFCURVE",
"189 473 OFFCURVE",
"155 424 CURVE",
"155 683 LINE"
);
},
{
closed = 1;
nodes = (
"303 424 OFFCURVE",
"330 396 OFFCURVE",
"330 321 CURVE SMOOTH",
"330 167 LINE SMOOTH",
"330 97 OFFCURVE",
"303 63 OFFCURVE",
"248 63 CURVE SMOOTH",
"220 63 OFFCURVE",
"184 76 OFFCURVE",
"155 99 CURVE",
"155 344 LINE",
"184 394 OFFCURVE",
"226 424 OFFCURVE",
"265 424 CURVE SMOOTH"
);
}
);
width = 475;
}
);
leftKerningGroup = k;
leftMetricsKey = h;
rightKerningGroup = o;
unicode = 00FE;
},
{
color = 4;
glyphname = q;
lastChange = "2013-12-12 14:14:31 +0100";
layers = (
{
hints = (
{
place = "{60.000000, 85.000000}";
},
{
place = "{321.000000, 85.000000}";
},
{
horizontal = 1;
place = "{-12.000000, 76.000000}";
},
{
horizontal = 1;
place = "{424.000000, 76.000000}";
},
{
horizontal = 1;
place = "{-164.000000, 21.000000}";
target = up;
type = BottomGhost;
},
{
horizontal = 1;
place = "{488.000000, -20.000000}";
target = down;
type = TopGhost;
}
);
layerId = "3BA737DF-2981-4A42-8A92-02FACC3A7684";
name = Regular;
paths = (
{
closed = 1;
nodes = (
"109 500 OFFCURVE",
"60 437 OFFCURVE",
"60 333 CURVE SMOOTH",
"60 155 LINE SMOOTH",
"60 45 OFFCURVE",
"106 -12 OFFCURVE",
"188 -12 CURVE SMOOTH",
"238 -12 OFFCURVE",
"283 18 OFFCURVE",
"321 73 CURVE",
"321 -185 LINE",
"406 -185 LINE",
"406 488 LINE",
"325 488 LINE",
"325 447 LINE",
"295 470 OFFCURVE",
"246 500 OFFCURVE",
"201 500 CURVE SMOOTH"
);
},
{
closed = 1;
nodes = (
"251 424 OFFCURVE",
"293 403 OFFCURVE",
"321 374 CURVE",
"321 154 LINE",
"289 96 OFFCURVE",
"247 64 OFFCURVE",
"208 64 CURVE SMOOTH",
"171 64 OFFCURVE",
"145 90 OFFCURVE",
"145 166 CURVE SMOOTH",
"145 321 LINE SMOOTH",
"145 393 OFFCURVE",
"174 424 OFFCURVE",
"220 424 CURVE SMOOTH"
);
}
);
width = 476;
}
);
leftKerningGroup = o;
rightMetricsKey = u;
unicode = 0071;
},
{
color = 4;
glyphname = r;
lastChange = "2013-12-12 14:14:31 +0100";
layers = (
{
anchors = (
{
name = bottom;
position = "{116, 0}";
},
{
name = top;
position = "{181, 488}";
}
);
hints = (
{
place = "{70.000000, 85.000000}";
},
{
place = "{70.000000, 235.000000}";
},
{
horizontal = 1;
place = "{405.000000, 95.000000}";
},
{
horizontal = 1;
place = "{21.000000, 21.000000}";
target = up;
type = BottomGhost;
},
{
horizontal = 1;
place = "{488.000000, -20.000000}";
target = down;
type = TopGhost;
}
);
layerId = "3BA737DF-2981-4A42-8A92-02FACC3A7684";
name = Regular;
paths = (
{
closed = 1;
nodes = (
"231 500 OFFCURVE",
"185 469 OFFCURVE",
"150 415 CURVE",
"150 488 LINE",
"70 488 LINE",
"70 0 LINE",
"155 0 LINE",
"155 335 LINE",
"184 384 OFFCURVE",
"223 405 OFFCURVE",
"266 405 CURVE SMOOTH",
"284 405 OFFCURVE",
"295 404 OFFCURVE",
"305 402 CURVE",
"305 498 LINE",
"301 499 OFFCURVE",
"292 500 OFFCURVE",
"283 500 CURVE SMOOTH"
);
}
);
width = 325;
}
);
leftKerningGroup = n;
leftMetricsKey = n;
rightKerningGroup = r;
unicode = 0072;
},
{
color = 4;
glyphname = s;
lastChange = "2013-12-12 14:14:31 +0100";
layers = (
{
anchors = (
{
name = bottom;
position = "{196, 0}";
},
{
name = top;
position = "{186, 488}";
}
);
hints = (
{
place = "{40.000000, 84.000000}";
},
{
place = "{263.000000, 84.000000}";
},
{
horizontal = 1;
place = "{-12.000000, 75.000000}";
},
{
horizontal = 1;
place = "{428.000000, 72.000000}";
}
);
layerId = "3BA737DF-2981-4A42-8A92-02FACC3A7684";
name = Regular;
paths = (
{
closed = 1;
nodes = (
"92 500 OFFCURVE",
"43 452 OFFCURVE",
"40 363 CURVE SMOOTH",
"40 349 LINE SMOOTH",
"40 300 OFFCURVE",
"66 263 OFFCURVE",
"125 236 CURVE SMOOTH",
"222 193 LINE SMOOTH",
"252 180 OFFCURVE",
"263 162 OFFCURVE",
"263 131 CURVE SMOOTH",
"263 121 LINE SMOOTH",
"263 81 OFFCURVE",
"243 63 OFFCURVE",
"176 63 CURVE SMOOTH",
"143 63 OFFCURVE",
"94 73 OFFCURVE",
"53 85 CURVE",
"49 9 LINE",
"97 -3 OFFCURVE",
"141 -12 OFFCURVE",
"178 -12 CURVE SMOOTH",
"297 -12 OFFCURVE",
"346 36 OFFCURVE",
"347 126 CURVE SMOOTH",
"347 148 LINE SMOOTH",
"347 198 OFFCURVE",
"320 238 OFFCURVE",
"262 265 CURVE SMOOTH",
"168 309 LINE SMOOTH",
"136 324 OFFCURVE",
"124 336 OFFCURVE",
"124 361 CURVE SMOOTH",
"124 370 LINE SMOOTH",
"124 406 OFFCURVE",
"150 428 OFFCURVE",
"214 428 CURVE SMOOTH",
"243 428 OFFCURVE",
"274 424 OFFCURVE",
"309 416 CURVE",
"311 488 LINE",
"267 497 OFFCURVE",
"240 500 OFFCURVE",
"210 500 CURVE SMOOTH"
);
}
);
width = 382;
}
);
leftKerningGroup = s;
rightKerningGroup = s;
unicode = 0073;
},
{
color = 4;
glyphname = scedilla;
lastChange = "2013-12-12 14:14:31 +0100";
layers = (
{
hints = (
{
place = "{40.000000, 84.000000}";
},
{
place = "{263.000000, 84.000000}";
},
{
horizontal = 1;
place = "{-197.000000, 54.000000}";
},
{
horizontal = 1;
place = "{-80.000000, 143.000000}";
},
{
horizontal = 1;
place = "{428.000000, 72.000000}";
}
);
layerId = "3BA737DF-2981-4A42-8A92-02FACC3A7684";
name = Regular;
paths = (
{
closed = 1;
nodes = (
"92 500 OFFCURVE",
"43 452 OFFCURVE",
"40 363 CURVE SMOOTH",
"40 349 LINE SMOOTH",
"40 300 OFFCURVE",
"66 263 OFFCURVE",
"125 236 CURVE SMOOTH",
"222 193 LINE SMOOTH",
"252 180 OFFCURVE",
"263 162 OFFCURVE",
"263 131 CURVE SMOOTH",
"263 121 LINE SMOOTH",
"263 81 OFFCURVE",
"243 63 OFFCURVE",
"176 63 CURVE SMOOTH",
"143 63 OFFCURVE",
"94 73 OFFCURVE",
"53 85 CURVE",
"49 9 LINE",
"92 -2 OFFCURVE",
"131 -10 OFFCURVE",
"165 -12 CURVE",
"150 -59 LINE",
"150 -80 LINE",
"180 -80 LINE SMOOTH",
"203 -80 OFFCURVE",
"213 -86 OFFCURVE",
"214 -106 CURVE SMOOTH",
"214 -119 LINE SMOOTH",
"214 -133 OFFCURVE",
"202 -143 OFFCURVE",
"173 -143 CURVE SMOOTH",
"163 -143 OFFCURVE",
"151 -141 OFFCURVE",
"137 -139 CURVE",
"137 -192 LINE",
"155 -195 OFFCURVE",
"170 -197 OFFCURVE",
"186 -197 CURVE SMOOTH",
"250 -197 OFFCURVE",
"281 -173 OFFCURVE",
"281 -120 CURVE",
"281 -105 LINE SMOOTH",
"281 -67 OFFCURVE",
"257 -41 OFFCURVE",
"229 -41 CURVE SMOOTH",
"219 -41 LINE",
"229 -8 LINE",
"311 4 OFFCURVE",
"346 50 OFFCURVE",
"347 126 CURVE SMOOTH",
"347 148 LINE SMOOTH",
"347 198 OFFCURVE",
"320 238 OFFCURVE",
"262 265 CURVE SMOOTH",
"168 309 LINE SMOOTH",
"136 324 OFFCURVE",
"124 336 OFFCURVE",
"124 361 CURVE SMOOTH",
"124 370 LINE SMOOTH",
"124 406 OFFCURVE",
"150 428 OFFCURVE",
"214 428 CURVE SMOOTH",
"243 428 OFFCURVE",
"274 424 OFFCURVE",
"309 416 CURVE",
"311 488 LINE",
"267 497 OFFCURVE",
"240 500 OFFCURVE",
"210 500 CURVE SMOOTH"
);
}
);
width = 382;
}
);
leftKerningGroup = s;
leftMetricsKey = s;
rightKerningGroup = s;
rightMetricsKey = s;
unicode = 015F;
},
{
color = 4;
glyphname = germandbls;
lastChange = "2013-12-12 14:14:31 +0100";
layers = (
{
hints = (
{
place = "{70.000000, 85.000000}";
},
{
place = "{218.000000, 82.000000}";
},
{
place = "{301.000000, 85.000000}";
},
{
place = "{369.000000, 87.000000}";
},
{
horizontal = 1;
place = "{-12.000000, 75.000000}";
},
{
horizontal = 1;
place = "{623.000000, 72.000000}";
},
{
horizontal = 1;
place = "{0.000000, -20.000000}";
target = down;
type = TopGhost;
}
);
layerId = "3BA737DF-2981-4A42-8A92-02FACC3A7684";
name = Regular;
paths = (
{
closed = 1;
nodes = (
"115 695 OFFCURVE",
"70 646 OFFCURVE",
"70 534 CURVE SMOOTH",
"70 0 LINE",
"155 0 LINE",
"155 544 LINE SMOOTH",
"155 602 OFFCURVE",
"175 623 OFFCURVE",
"226 623 CURVE SMOOTH",
"276 623 OFFCURVE",
"301 601 OFFCURVE",
"301 566 CURVE SMOOTH",
"301 538 LINE SMOOTH",
"301 468 OFFCURVE",
"218 461 OFFCURVE",
"218 376 CURVE SMOOTH",
"218 357 LINE SMOOTH",
"218 304 OFFCURVE",
"233 277 OFFCURVE",
"283 249 CURVE SMOOTH",
"331 222 LINE SMOOTH",
"359 206 OFFCURVE",
"369 190 OFFCURVE",
"369 160 CURVE SMOOTH",
"369 129 LINE SMOOTH",
"369 82 OFFCURVE",
"351 63 OFFCURVE",
"316 63 CURVE SMOOTH",
"291 63 OFFCURVE",
"255 70 OFFCURVE",
"220 78 CURVE",
"218 3 LINE",
"262 -6 OFFCURVE",
"295 -12 OFFCURVE",
"316 -12 CURVE SMOOTH",
"420 -12 OFFCURVE",
"456 29 OFFCURVE",
"456 137 CURVE SMOOTH",
"456 170 LINE SMOOTH",
"456 226 OFFCURVE",
"431 264 OFFCURVE",
"369 295 CURVE",
"322 323 LINE SMOOTH",
"305 333 OFFCURVE",
"300 344 OFFCURVE",
"300 364 CURVE SMOOTH",
"300 379 LINE SMOOTH",
"300 430 OFFCURVE",
"386 455 OFFCURVE",
"386 539 CURVE SMOOTH",
"386 566 LINE SMOOTH",
"386 642 OFFCURVE",
"327 695 OFFCURVE",
"232 695 CURVE SMOOTH"
);
}
);
width = 483;
}
);
unicode = 00DF;
},
{
color = 4;
glyphname = t;
lastChange = "2013-12-12 14:14:31 +0100";
layers = (
{
anchors = (
{
name = bottom;
position = "{188, 0}";
},
{
name = center;
position = "{169, 244}";
},
{
name = topleft;
position = "{295, 488}";
}
);
hints = (
{
place = "{85.000000, 85.000000}";
},
{
place = "{85.000000, 232.000000}";
},
{
horizontal = 1;
place = "{-12.000000, 73.000000}";
},
{
horizontal = 1;
place = "{418.000000, 70.000000}";
},
{
horizontal = 1;
place = "{618.000000, -20.000000}";
target = down;
type = TopGhost;
}
);
layerId = "3BA737DF-2981-4A42-8A92-02FACC3A7684";
name = Regular;
paths = (
{
closed = 1;
nodes = (
"101 618 LINE",
"85 488 LINE",
"15 488 LINE",
"15 418 LINE",
"85 418 LINE",
"85 139 LINE SMOOTH",
"85 31 OFFCURVE",
"133 -12 OFFCURVE",
"238 -12 CURVE SMOOTH",
"268 -12 OFFCURVE",
"296 -6 OFFCURVE",
"318 0 CURVE",
"316 71 LINE",
"296 66 OFFCURVE",
"263 61 OFFCURVE",
"234 61 CURVE SMOOTH",
"191 61 OFFCURVE",
"170 81 OFFCURVE",
"170 132 CURVE SMOOTH",
"170 418 LINE",
"300 418 LINE",
"300 488 LINE",
"170 488 LINE",
"170 618 LINE"
);
}
);
width = 338;
}
);
leftKerningGroup = t;
leftMetricsKey = t;
rightKerningGroup = t;
rightMetricsKey = t;
unicode = 0074;
},
{
color = 8;
glyphname = tcedilla;
lastChange = "2014-01-01 00:17:28 +0100";
layers = (
{
hints = (
{
place = "{85.000000, 85.000000}";
},
{
place = "{85.000000, 232.000000}";
},
{
horizontal = 1;
place = "{-197.000000, 54.000000}";
},
{
horizontal = 1;
place = "{-80.000000, 141.000000}";
},
{
horizontal = 1;
place = "{418.000000, 70.000000}";
},
{
horizontal = 1;
place = "{-12.000000, -20.000000}";
},
{
horizontal = 1;
place = "{618.000000, -20.000000}";
}
);
layerId = "3BA737DF-2981-4A42-8A92-02FACC3A7684";
name = Regular;
paths = (
{
closed = 1;
nodes = (
"101 618 LINE",
"85 488 LINE",
"15 488 LINE",
"15 418 LINE",
"85 418 LINE",
"85 139 LINE SMOOTH",
"85 65 OFFCURVE",
"108 21 OFFCURVE",
"156 1 CURVE",
"136 -59 LINE",
"136 -80 LINE",
"166 -80 LINE SMOOTH",
"189 -80 OFFCURVE",
"199 -86 OFFCURVE",
"200 -106 CURVE SMOOTH",
"200 -119 LINE SMOOTH",
"200 -133 OFFCURVE",
"188 -143 OFFCURVE",
"159 -143 CURVE SMOOTH",
"149 -143 OFFCURVE",
"137 -141 OFFCURVE",
"123 -139 CURVE",
"123 -192 LINE",
"141 -195 OFFCURVE",
"156 -197 OFFCURVE",
"172 -197 CURVE SMOOTH",
"236 -197 OFFCURVE",
"267 -173 OFFCURVE",
"267 -120 CURVE SMOOTH",
"267 -105 LINE SMOOTH",
"267 -67 OFFCURVE",
"243 -41 OFFCURVE",
"215 -41 CURVE SMOOTH",
"205 -41 LINE",
"214 -11 LINE",
"221 -12 OFFCURVE",
"229 -12 OFFCURVE",
"238 -12 CURVE SMOOTH",
"268 -12 OFFCURVE",
"296 -6 OFFCURVE",
"318 0 CURVE",
"316 71 LINE",
"296 66 OFFCURVE",
"263 61 OFFCURVE",
"234 61 CURVE SMOOTH",
"191 61 OFFCURVE",
"170 81 OFFCURVE",
"170 132 CURVE SMOOTH",
"170 418 LINE",
"300 418 LINE",
"300 488 LINE",
"170 488 LINE",
"170 618 LINE"
);
}
);
width = 338;
}
);
leftKerningGroup = t;
leftMetricsKey = t;
rightKerningGroup = t;
rightMetricsKey = t;
unicode = 0163;
},
{
color = 4;
glyphname = u;
lastChange = "2013-12-12 14:14:31 +0100";
layers = (
{
anchors = (
{
name = ogonek;
position = "{432, 10}";
},
{
name = top;
position = "{240, 488}";
}
);
hints = (
{
place = "{70.000000, 85.000000}";
},
{
place = "{325.000000, 85.000000}";
},
{
horizontal = 1;
place = "{-12.000000, 79.000000}";
},
{
horizontal = 1;
place = "{488.000000, -20.000000}";
target = down;
type = TopGhost;
},
{
horizontal = 1;
place = "{0.000000, -20.000000}";
target = down;
type = TopGhost;
}
);
layerId = "3BA737DF-2981-4A42-8A92-02FACC3A7684";
name = Regular;
paths = (
{
closed = 1;
nodes = (
"325 488 LINE",
"325 148 LINE",
"295 97 OFFCURVE",
"253 67 OFFCURVE",
"217 67 CURVE SMOOTH",
"180 67 OFFCURVE",
"155 97 OFFCURVE",
"155 170 CURVE SMOOTH",
"155 488 LINE",
"70 488 LINE",
"70 155 LINE SMOOTH",
"70 43 OFFCURVE",
"121 -12 OFFCURVE",
"200 -12 CURVE SMOOTH",
"249 -12 OFFCURVE",
"294 17 OFFCURVE",
"330 70 CURVE",
"330 0 LINE",
"410 0 LINE",
"410 488 LINE"
);
}
);
width = 480;
}
);
leftKerningGroup = u;
rightKerningGroup = u;
unicode = 0075;
},
{
color = 4;
glyphname = uogonek;
lastChange = "2013-12-12 14:14:31 +0100";
layers = (
{
hints = (
{
place = "{70.000000, 85.000000}";
},
{
place = "{266.000000, 72.000000}";
},
{
place = "{325.000000, 85.000000}";
},
{
horizontal = 1;
place = "{-197.000000, 63.000000}";
},
{
horizontal = 1;
place = "{-12.000000, 79.000000}";
},
{
horizontal = 1;
place = "{488.000000, -20.000000}";
target = down;
type = TopGhost;
},
{
horizontal = 1;
place = "{0.000000, -20.000000}";
target = down;
type = TopGhost;
}
);
layerId = "3BA737DF-2981-4A42-8A92-02FACC3A7684";
name = Regular;
paths = (
{
closed = 1;
nodes = (
"325 488 LINE",
"325 148 LINE",
"295 97 OFFCURVE",
"253 67 OFFCURVE",
"217 67 CURVE SMOOTH",
"180 67 OFFCURVE",
"155 97 OFFCURVE",
"155 170 CURVE SMOOTH",
"155 488 LINE",
"70 488 LINE",
"70 155 LINE SMOOTH",
"70 43 OFFCURVE",
"121 -12 OFFCURVE",
"200 -12 CURVE SMOOTH",
"249 -12 OFFCURVE",
"294 17 OFFCURVE",
"330 70 CURVE",
"330 4 LINE",
"290 -20 OFFCURVE",
"266 -63 OFFCURVE",
"266 -103 CURVE SMOOTH",
"266 -116 LINE SMOOTH",
"266 -164 OFFCURVE",
"297 -197 OFFCURVE",
"365 -197 CURVE SMOOTH",
"380 -197 OFFCURVE",
"396 -196 OFFCURVE",
"413 -192 CURVE",
"413 -131 LINE",
"401 -133 OFFCURVE",
"389 -134 OFFCURVE",
"380 -134 CURVE SMOOTH",
"350 -134 OFFCURVE",
"338 -123 OFFCURVE",
"338 -97 CURVE SMOOTH",
"338 -87 LINE SMOOTH",
"338 -53 OFFCURVE",
"358 -19 OFFCURVE",
"394 0 CURVE",
"410 0 LINE",
"410 488 LINE"
);
}
);
width = 483;
}
);
leftKerningGroup = u;
leftMetricsKey = u;
rightMetricsKey = u;
unicode = 0173;
},
{
color = 4;
glyphname = v;
lastChange = "2013-12-12 14:14:31 +0100";
layers = (
{
hints = (
{
horizontal = 1;
place = "{488.000000, -20.000000}";
target = down;
type = TopGhost;
},
{
horizontal = 1;
place = "{21.000000, 21.000000}";
target = up;
type = BottomGhost;
}
);
layerId = "3BA737DF-2981-4A42-8A92-02FACC3A7684";
name = Regular;
paths = (
{
closed = 1;
nodes = (
"332 488 LINE",
"216 62 LINE",
"100 488 LINE",
"10 488 LINE",
"160 0 LINE",
"271 0 LINE",
"422 488 LINE"
);
}
);
width = 432;
}
);
leftKerningGroup = v;
rightKerningGroup = v;
unicode = 0076;
},
{
color = 4;
glyphname = w;
lastChange = "2013-12-12 14:14:31 +0100";
layers = (
{
anchors = (
{
name = top;
position = "{339, 488}";
}
);
hints = (
{
horizontal = 1;
place = "{488.000000, -20.000000}";
target = down;
type = TopGhost;
},
{
horizontal = 1;
place = "{21.000000, 21.000000}";
target = up;
type = BottomGhost;
}
);
layerId = "3BA737DF-2981-4A42-8A92-02FACC3A7684";
name = Regular;
paths = (
{
closed = 1;
nodes = (
"568 488 LINE",
"488 75 LINE",
"394 488 LINE",
"284 488 LINE",
"189 75 LINE",
"110 488 LINE",
"20 488 LINE",
"132 0 LINE",
"239 0 LINE",
"339 414 LINE",
"438 0 LINE",
"545 0 LINE",
"658 488 LINE"
);
}
);
width = 678;
}
);
leftKerningGroup = w;
rightKerningGroup = w;
unicode = 0077;
},
{
color = 4;
glyphname = x;
lastChange = "2013-12-12 14:14:31 +0100";
layers = (
{
hints = (
{
horizontal = 1;
place = "{488.000000, -20.000000}";
target = down;
type = TopGhost;
},
{
horizontal = 1;
place = "{21.000000, 21.000000}";
target = up;
type = BottomGhost;
}
);
layerId = "3BA737DF-2981-4A42-8A92-02FACC3A7684";
name = Regular;
paths = (
{
closed = 1;
nodes = (
"311 488 LINE",
"211 313 LINE",
"112 488 LINE",
"15 488 LINE",
"157 251 LINE",
"5 0 LINE",
"102 0 LINE",
"209 191 LINE",
"319 0 LINE",
"416 0 LINE",
"262 254 LINE",
"405 488 LINE"
);
}
);
width = 421;
}
);
leftKerningGroup = x;
rightKerningGroup = x;
unicode = 0078;
},
{
color = 4;
glyphname = y;
lastChange = "2013-12-12 14:14:31 +0100";
layers = (
{
anchors = (
{
name = top;
position = "{218, 488}";
}
);
hints = (
{
horizontal = 1;
place = "{488.000000, -20.000000}";
target = down;
type = TopGhost;
},
{
horizontal = 1;
place = "{0.000000, -20.000000}";
target = down;
type = TopGhost;
},
{
horizontal = 1;
place = "{-164.000000, 21.000000}";
target = up;
type = BottomGhost;
}
);
layerId = "3BA737DF-2981-4A42-8A92-02FACC3A7684";
name = Regular;
paths = (
{
closed = 1;
nodes = (
"338 488 LINE",
"208 61 LINE",
"103 488 LINE",
"10 488 LINE",
"149 0 LINE",
"181 0 LINE",
"117 -185 LINE",
"202 -185 LINE",
"426 488 LINE"
);
}
);
width = 436;
}
);
leftKerningGroup = v;
rightKerningGroup = v;
unicode = 0079;
},
{
color = 4;
glyphname = z;
lastChange = "2013-12-12 14:14:31 +0100";
layers = (
{
anchors = (
{
name = top;
position = "{209, 488}";
}
);
hints = (
{
horizontal = 1;
place = "{0.000000, 73.000000}";
},
{
horizontal = 1;
place = "{415.000000, 73.000000}";
}
);
layerId = "3BA737DF-2981-4A42-8A92-02FACC3A7684";
name = Regular;
paths = (
{
closed = 1;
nodes = (
"40 488 LINE",
"40 415 LINE",
"262 415 LINE",
"35 63 LINE",
"35 0 LINE",
"361 0 LINE",
"361 73 LINE",
"135 73 LINE",
"361 425 LINE",
"361 488 LINE"
);
}
);
width = 401;
}
);
leftKerningGroup = z;
rightKerningGroup = z;
unicode = 007A;
},
{
color = 4;
glyphname = fi;
lastChange = "2013-12-12 14:14:31 +0100";
layers = (
{
hints = (
{
place = "{105.000000, 85.000000}";
},
{
place = "{354.000000, 85.000000}";
},
{
horizontal = 1;
place = "{418.000000, 70.000000}";
},
{
horizontal = 1;
place = "{625.000000, 70.000000}";
},
{
horizontal = 1;
place = "{21.000000, 21.000000}";
target = up;
type = BottomGhost;
}
);
layerId = "3BA737DF-2981-4A42-8A92-02FACC3A7684";
name = Regular;
paths = (
{
closed = 1;
nodes = (
"147 695 OFFCURVE",
"101 643 OFFCURVE",
"100 534 CURVE SMOOTH",
"100 488 LINE",
"30 488 LINE",
"30 418 LINE",
"100 418 LINE",
"100 0 LINE",
"185 0 LINE",
"185 418 LINE",
"349 418 LINE",
"349 0 LINE",
"434 0 LINE",
"434 488 LINE",
"185 488 LINE",
"185 549 LINE SMOOTH",
"185 601 OFFCURVE",
"209 625 OFFCURVE",
"259 625 CURVE SMOOTH",
"291 625 OFFCURVE",
"328 618 OFFCURVE",
"357 610 CURVE",
"357 684 LINE",
"332 689 OFFCURVE",
"289 695 OFFCURVE",
"260 695 CURVE SMOOTH"
);
}
);
width = 504;
}
);
leftKerningGroup = f;
leftMetricsKey = f;
rightKerningGroup = i;
rightMetricsKey = dotlessi;
unicode = FB01;
},
{
color = 4;
glyphname = fl;
lastChange = "2013-12-12 14:14:31 +0100";
layers = (
{
hints = (
{
place = "{105.000000, 85.000000}";
},
{
place = "{359.000000, 85.000000}";
},
{
horizontal = 1;
place = "{418.000000, 70.000000}";
},
{
horizontal = 1;
place = "{625.000000, 70.000000}";
},
{
horizontal = 1;
place = "{21.000000, 21.000000}";
target = up;
type = BottomGhost;
}
);
layerId = "3BA737DF-2981-4A42-8A92-02FACC3A7684";
name = Regular;
paths = (
{
closed = 1;
nodes = (
"150 695 OFFCURVE",
"101 646 OFFCURVE",
"100 534 CURVE SMOOTH",
"100 488 LINE",
"30 488 LINE",
"30 418 LINE",
"100 418 LINE",
"100 0 LINE",
"185 0 LINE",
"185 418 LINE",
"275 418 LINE",
"275 488 LINE",
"185 488 LINE",
"185 549 LINE SMOOTH",
"185 601 OFFCURVE",
"209 625 OFFCURVE",
"259 625 CURVE SMOOTH",
"290 625 OFFCURVE",
"325 618 OFFCURVE",
"354 611 CURVE",
"354 0 LINE",
"439 0 LINE",
"439 687 LINE",
"366 681 LINE",
"340 687 OFFCURVE",
"289 695 OFFCURVE",
"260 695 CURVE SMOOTH"
);
}
);
width = 509;
}
);
leftKerningGroup = f;
leftMetricsKey = f;
rightKerningGroup = l;
rightMetricsKey = l;
unicode = FB02;
},
{
color = 4;
glyphname = ordfeminine;
lastChange = "2013-12-12 14:14:31 +0100";
layers = (
{
hints = (
{
place = "{60.000000, 86.000000}";
},
{
place = "{314.000000, 85.000000}";
},
{
horizontal = 1;
place = "{0.000000, 73.000000}";
},
{
horizontal = 1;
place = "{214.000000, 76.000000}";
},
{
horizontal = 1;
place = "{435.000000, 68.000000}";
},
{
horizontal = 1;
place = "{597.000000, 70.000000}";
}
);
layerId = "3BA737DF-2981-4A42-8A92-02FACC3A7684";
name = Regular;
paths = (
{
closed = 1;
nodes = (
"199 667 OFFCURVE",
"143 659 OFFCURVE",
"99 652 CURVE",
"99 582 LINE",
"134 588 OFFCURVE",
"195 597 OFFCURVE",
"234 597 CURVE SMOOTH",
"288 597 OFFCURVE",
"314 575 OFFCURVE",
"314 516 CURVE SMOOTH",
"314 490 LINE",
"284 496 OFFCURVE",
"240 503 OFFCURVE",
"211 503 CURVE SMOOTH",
"116 503 OFFCURVE",
"60 445 OFFCURVE",
"60 376 CURVE SMOOTH",
"60 348 LINE SMOOTH",
"60 266 OFFCURVE",
"110 214 OFFCURVE",
"187 214 CURVE SMOOTH",
"234 214 OFFCURVE",
"279 244 OFFCURVE",
"318 304 CURVE",
"318 226 LINE",
"399 226 LINE",
"399 506 LINE SMOOTH",
"399 618 OFFCURVE",
"348 667 OFFCURVE",
"234 667 CURVE SMOOTH"
);
},
{
closed = 1;
nodes = (
"60 73 LINE",
"60 0 LINE",
"399 0 LINE",
"399 73 LINE"
);
},
{
closed = 1;
nodes = (
"253 435 OFFCURVE",
"287 433 OFFCURVE",
"314 428 CURVE",
"314 366 LINE",
"282 310 OFFCURVE",
"241 290 OFFCURVE",
"206 290 CURVE SMOOTH",
"171 290 OFFCURVE",
"146 314 OFFCURVE",
"146 354 CURVE SMOOTH",
"146 365 LINE SMOOTH",
"146 407 OFFCURVE",
"176 435 OFFCURVE",
"232 435 CURVE SMOOTH"
);
}
);
width = 469;
}
);
unicode = 00AA;
},
{
color = 4;
glyphname = ordmasculine;
lastChange = "2013-12-12 14:14:31 +0100";
layers = (
{
hints = (
{
place = "{70.000000, 85.000000}";
},
{
place = "{337.000000, 85.000000}";
},
{
horizontal = 1;
place = "{0.000000, 73.000000}";
},
{
horizontal = 1;
place = "{215.000000, 71.000000}";
},
{
horizontal = 1;
place = "{596.000000, 71.000000}";
}
);
layerId = "3BA737DF-2981-4A42-8A92-02FACC3A7684";
name = Regular;
paths = (
{
closed = 1;
nodes = (
"126 667 OFFCURVE",
"70 600 OFFCURVE",
"70 485 CURVE SMOOTH",
"70 397 LINE SMOOTH",
"70 276 OFFCURVE",
"132 215 OFFCURVE",
"246 215 CURVE SMOOTH",
"361 215 OFFCURVE",
"422 276 OFFCURVE",
"422 397 CURVE SMOOTH",
"422 485 LINE SMOOTH",
"422 600 OFFCURVE",
"366 667 OFFCURVE",
"246 667 CURVE SMOOTH"
);
},
{
closed = 1;
nodes = (
"75 73 LINE",
"75 0 LINE",
"417 0 LINE",
"417 73 LINE"
);
},
{
closed = 1;
nodes = (
"303 596 OFFCURVE",
"337 561 OFFCURVE",
"337 493 CURVE SMOOTH",
"337 390 LINE SMOOTH",
"337 322 OFFCURVE",
"303 286 OFFCURVE",
"246 286 CURVE SMOOTH",
"189 286 OFFCURVE",
"155 322 OFFCURVE",
"155 390 CURVE SMOOTH",
"155 492 LINE SMOOTH",
"155 560 OFFCURVE",
"189 596 OFFCURVE",
"246 596 CURVE SMOOTH"
);
}
);
width = 492;
}
);
unicode = 00BA;
},
{
color = 4;
glyphname = pi;
lastChange = "2013-12-12 14:14:31 +0100";
layers = (
{
hints = (
{
place = "{90.000000, 85.000000}";
},
{
place = "{351.000000, 85.000000}";
},
{
place = "{351.000000, 173.000000}";
},
{
horizontal = 1;
place = "{-12.000000, 70.000000}";
},
{
horizontal = 1;
place = "{418.000000, 70.000000}";
},
{
horizontal = 1;
place = "{0.000000, -20.000000}";
target = down;
type = TopGhost;
}
);
layerId = "3BA737DF-2981-4A42-8A92-02FACC3A7684";
name = Regular;
paths = (
{
closed = 1;
nodes = (
"20 488 LINE",
"20 418 LINE",
"90 418 LINE",
"90 0 LINE",
"175 0 LINE",
"175 418 LINE",
"351 418 LINE",
"351 139 LINE SMOOTH",
"351 29 OFFCURVE",
"388 -12 OFFCURVE",
"477 -12 CURVE SMOOTH",
"490 -12 OFFCURVE",
"515 -9 OFFCURVE",
"524 -7 CURVE",
"524 61 LINE",
"514 60 OFFCURVE",
"491 58 OFFCURVE",
"473 58 CURVE SMOOTH",
"450 58 OFFCURVE",
"436 70 OFFCURVE",
"436 117 CURVE SMOOTH",
"436 418 LINE",
"506 418 LINE",
"506 488 LINE"
);
}
);
width = 534;
}
);
unicode = 03C0;
},
{
color = 4;
glyphname = zero;
lastChange = "2013-12-12 14:14:31 +0100";
layers = (
{
hints = (
{
place = "{65.000000, 85.000000}";
},
{
place = "{350.000000, 85.000000}";
},
{
horizontal = 1;
place = "{-12.000000, 72.000000}";
},
{
horizontal = 1;
place = "{541.000000, 72.000000}";
}
);
layerId = "3BA737DF-2981-4A42-8A92-02FACC3A7684";
name = Regular;
paths = (
{
closed = 1;
nodes = (
"132 613 OFFCURVE",
"65 546 OFFCURVE",
"65 408 CURVE SMOOTH",
"65 193 LINE SMOOTH",
"65 55 OFFCURVE",
"132 -12 OFFCURVE",
"250 -12 CURVE SMOOTH",
"368 -12 OFFCURVE",
"435 55 OFFCURVE",
"435 193 CURVE",
"435 408 LINE SMOOTH",
"435 546 OFFCURVE",
"368 613 OFFCURVE",
"250 613 CURVE SMOOTH"
);
},
{
closed = 1;
nodes = (
"312 541 OFFCURVE",
"350 504 OFFCURVE",
"350 416 CURVE SMOOTH",
"350 185 LINE SMOOTH",
"350 97 OFFCURVE",
"312 60 OFFCURVE",
"250 60 CURVE SMOOTH",
"188 60 OFFCURVE",
"150 97 OFFCURVE",
"150 185 CURVE SMOOTH",
"150 416 LINE SMOOTH",
"150 504 OFFCURVE",
"187 541 OFFCURVE",
"250 541 CURVE SMOOTH"
);
}
);
width = 500;
}
);
leftKerningGroup = zero;
rightKerningGroup = zero;
unicode = 0030;
},
{
color = 4;
glyphname = one;
lastChange = "2013-12-12 14:14:31 +0100";
layers = (
{
hints = (
{
place = "{152.000000, 85.000000}";
},
{
horizontal = 1;
place = "{21.000000, 21.000000}";
target = up;
type = BottomGhost;
},
{
horizontal = 1;
place = "{601.000000, -20.000000}";
target = down;
type = TopGhost;
},
{
horizontal = 1;
place = "{519.000000, -20.000000}";
target = down;
type = TopGhost;
}
);
layerId = "3BA737DF-2981-4A42-8A92-02FACC3A7684";
name = Regular;
paths = (
{
closed = 1;
nodes = (
"162 601 LINE",
"0 535 LINE",
"17 462 LINE",
"150 519 LINE",
"152 519 LINE",
"152 0 LINE",
"237 0 LINE",
"237 601 LINE"
);
}
);
width = 312;
}
);
unicode = 0031;
},
{
color = 4;
glyphname = two;
lastChange = "2013-12-12 14:14:31 +0100";
layers = (
{
hints = (
{
place = "{255.000000, 85.000000}";
},
{
horizontal = 1;
place = "{0.000000, 73.000000}";
},
{
horizontal = 1;
place = "{541.000000, 72.000000}";
}
);
layerId = "3BA737DF-2981-4A42-8A92-02FACC3A7684";
name = Regular;
paths = (
{
closed = 1;
nodes = (
"116 613 OFFCURVE",
"69 604 OFFCURVE",
"25 592 CURVE",
"25 519 LINE",
"60 530 OFFCURVE",
"112 541 OFFCURVE",
"151 541 CURVE SMOOTH",
"224 541 OFFCURVE",
"255 516 OFFCURVE",
"255 452 CURVE SMOOTH",
"255 434 LINE SMOOTH",
"255 387 OFFCURVE",
"248 366 OFFCURVE",
"210 318 CURVE SMOOTH",
"10 65 LINE",
"10 0 LINE",
"347 0 LINE",
"347 73 LINE",
"112 73 LINE",
"257 248 LINE SMOOTH",
"329 334 OFFCURVE",
"340 378 OFFCURVE",
"340 435 CURVE SMOOTH",
"340 457 LINE SMOOTH",
"340 560 OFFCURVE",
"281 613 OFFCURVE",
"151 613 CURVE SMOOTH"
);
}
);
width = 387;
}
);
unicode = 0032;
},
{
color = 4;
glyphname = three;
lastChange = "2013-12-12 14:14:31 +0100";
layers = (
{
hints = (
{
place = "{259.000000, 85.000000}";
},
{
place = "{246.000000, 85.000000}";
},
{
horizontal = 1;
place = "{-12.000000, 71.000000}";
},
{
horizontal = 1;
place = "{276.000000, 68.000000}";
},
{
horizontal = 1;
place = "{543.000000, 70.000000}";
}
);
layerId = "3BA737DF-2981-4A42-8A92-02FACC3A7684";
name = Regular;
paths = (
{
closed = 1;
nodes = (
"121 613 OFFCURVE",
"74 607 OFFCURVE",
"30 600 CURVE",
"30 529 LINE",
"65 535 OFFCURVE",
"117 543 OFFCURVE",
"156 543 CURVE SMOOTH",
"215 543 OFFCURVE",
"246 516 OFFCURVE",
"246 462 CURVE SMOOTH",
"246 443 LINE SMOOTH",
"246 374 OFFCURVE",
"217 344 OFFCURVE",
"154 344 CURVE SMOOTH",
"65 344 LINE",
"65 276 LINE",
"154 276 LINE SMOOTH",
"223 276 OFFCURVE",
"259 242 OFFCURVE",
"259 174 CURVE SMOOTH",
"259 158 LINE SMOOTH",
"259 97 OFFCURVE",
"223 59 OFFCURVE",
"159 59 CURVE SMOOTH",
"120 59 OFFCURVE",
"65 66 OFFCURVE",
"30 72 CURVE",
"30 1 LINE",
"74 -6 OFFCURVE",
"124 -12 OFFCURVE",
"159 -12 CURVE SMOOTH",
"282 -12 OFFCURVE",
"344 61 OFFCURVE",
"344 163 CURVE SMOOTH",
"344 173 LINE SMOOTH",
"344 237 OFFCURVE",
"309 291 OFFCURVE",
"254 314 CURVE",
"306 339 OFFCURVE",
"331 386 OFFCURVE",
"331 447 CURVE SMOOTH",
"331 457 LINE SMOOTH",
"331 555 OFFCURVE",
"270 613 OFFCURVE",
"156 613 CURVE SMOOTH"
);
}
);
width = 389;
}
);
unicode = 0033;
},
{
color = 4;
glyphname = four;
lastChange = "2013-12-12 14:14:31 +0100";
layers = (
{
hints = (
{
place = "{268.000000, 82.000000}";
},
{
horizontal = 1;
place = "{129.000000, 70.000000}";
},
{
horizontal = 1;
place = "{21.000000, 21.000000}";
target = up;
type = BottomGhost;
},
{
horizontal = 1;
place = "{601.000000, -20.000000}";
target = down;
type = TopGhost;
}
);
layerId = "3BA737DF-2981-4A42-8A92-02FACC3A7684";
name = Regular;
paths = (
{
closed = 1;
nodes = (
"253 601 LINE",
"-5 188 LINE",
"-5 129 LINE",
"267 129 LINE",
"267 0 LINE",
"350 0 LINE",
"350 129 LINE",
"411 129 LINE",
"411 199 LINE",
"350 199 LINE",
"350 601 LINE"
);
},
{
closed = 1;
nodes = (
"268 213 LINE",
"268 199 LINE",
"86 199 LINE",
"268 504 LINE"
);
}
);
width = 421;
}
);
unicode = 0034;
},
{
color = 4;
glyphname = five;
lastChange = "2013-12-12 14:14:31 +0100";
layers = (
{
hints = (
{
place = "{50.000000, 82.000000}";
},
{
place = "{321.000000, 85.000000}";
},
{
horizontal = 1;
place = "{-12.000000, 72.000000}";
},
{
horizontal = 1;
place = "{311.000000, 71.000000}";
},
{
horizontal = 1;
place = "{531.000000, 73.000000}";
}
);
layerId = "3BA737DF-2981-4A42-8A92-02FACC3A7684";
name = Regular;
paths = (
{
closed = 1;
nodes = (
"50 604 LINE",
"50 246 LINE",
"115 246 LINE",
"156 292 OFFCURVE",
"194 311 OFFCURVE",
"247 311 CURVE SMOOTH",
"294 311 OFFCURVE",
"321 283 OFFCURVE",
"321 215 CURVE SMOOTH",
"321 176 LINE SMOOTH",
"321 101 OFFCURVE",
"283 60 OFFCURVE",
"209 60 CURVE SMOOTH",
"175 60 OFFCURVE",
"96 71 OFFCURVE",
"60 79 CURVE",
"60 10 LINE",
"99 -1 OFFCURVE",
"161 -12 OFFCURVE",
"211 -12 CURVE SMOOTH",
"342 -12 OFFCURVE",
"406 53 OFFCURVE",
"406 176 CURVE",
"406 212 LINE SMOOTH",
"406 334 OFFCURVE",
"357 382 OFFCURVE",
"268 382 CURVE SMOOTH",
"216 382 OFFCURVE",
"169 366 OFFCURVE",
"132 336 CURVE",
"132 531 LINE",
"358 531 LINE",
"358 604 LINE"
);
}
);
width = 441;
}
);
unicode = 0035;
},
{
color = 4;
glyphname = six;
lastChange = "2013-12-12 14:14:31 +0100";
layers = (
{
hints = (
{
place = "{60.000000, 85.000000}";
},
{
place = "{345.000000, 85.000000}";
},
{
horizontal = 1;
place = "{-12.000000, 72.000000}";
},
{
horizontal = 1;
place = "{315.000000, 74.000000}";
},
{
horizontal = 1;
place = "{533.000000, 73.000000}";
}
);
layerId = "3BA737DF-2981-4A42-8A92-02FACC3A7684";
name = Regular;
paths = (
{
closed = 1;
nodes = (
"166 603 OFFCURVE",
"60 519 OFFCURVE",
"60 362 CURVE SMOOTH",
"60 178 LINE SMOOTH",
"60 57 OFFCURVE",
"124 -12 OFFCURVE",
"244 -12 CURVE SMOOTH",
"365 -12 OFFCURVE",
"430 52 OFFCURVE",
"430 173 CURVE SMOOTH",
"430 212 LINE SMOOTH",
"430 332 OFFCURVE",
"372 389 OFFCURVE",
"279 389 CURVE SMOOTH",
"239 389 OFFCURVE",
"196 370 OFFCURVE",
"145 322 CURVE",
"145 378 LINE SMOOTH",
"145 477 OFFCURVE",
"209 530 OFFCURVE",
"377 533 CURVE",
"377 606 LINE"
);
},
{
closed = 1;
nodes = (
"314 315 OFFCURVE",
"345 282 OFFCURVE",
"345 215 CURVE SMOOTH",
"345 168 LINE SMOOTH",
"345 95 OFFCURVE",
"310 60 OFFCURVE",
"244 60 CURVE SMOOTH",
"179 60 OFFCURVE",
"145 97 OFFCURVE",
"145 173 CURVE SMOOTH",
"145 250 LINE",
"183 285 OFFCURVE",
"226 315 OFFCURVE",
"264 315 CURVE SMOOTH"
);
}
);
width = 475;
}
);
leftKerningGroup = six;
rightKerningGroup = six;
unicode = 0036;
},
{
color = 4;
glyphname = seven;
lastChange = "2013-12-12 14:14:31 +0100";
layers = (
{
hints = (
{
horizontal = 1;
place = "{526.000000, 74.000000}";
},
{
horizontal = 1;
place = "{21.000000, 21.000000}";
target = up;
type = BottomGhost;
}
);
layerId = "3BA737DF-2981-4A42-8A92-02FACC3A7684";
name = Regular;
paths = (
{
closed = 1;
nodes = (
"5 600 LINE",
"5 526 LINE",
"275 526 LINE",
"275 524 LINE",
"51 0 LINE",
"142 0 LINE",
"366 542 LINE",
"366 600 LINE"
);
}
);
width = 378;
}
);
unicode = 0037;
},
{
color = 4;
glyphname = eight;
lastChange = "2013-12-12 14:14:31 +0100";
layers = (
{
hints = (
{
place = "{35.000000, 85.000000}";
},
{
place = "{59.000000, 83.000000}";
},
{
place = "{318.000000, 83.000000}";
},
{
place = "{340.000000, 85.000000}";
},
{
horizontal = 1;
place = "{-12.000000, 71.000000}";
},
{
horizontal = 1;
place = "{287.000000, 66.000000}";
},
{
horizontal = 1;
place = "{547.000000, 66.000000}";
}
);
layerId = "3BA737DF-2981-4A42-8A92-02FACC3A7684";
name = Regular;
paths = (
{
closed = 1;
nodes = (
"125 613 OFFCURVE",
"59 556 OFFCURVE",
"59 455 CURVE SMOOTH",
"59 450 LINE SMOOTH",
"59 392 OFFCURVE",
"81 346 OFFCURVE",
"124 321 CURVE",
"65 295 OFFCURVE",
"35 246 OFFCURVE",
"35 178 CURVE SMOOTH",
"35 163 LINE SMOOTH",
"35 53 OFFCURVE",
"104 -12 OFFCURVE",
"230 -12 CURVE SMOOTH",
"357 -12 OFFCURVE",
"425 54 OFFCURVE",
"425 163 CURVE",
"425 178 LINE SMOOTH",
"425 247 OFFCURVE",
"393 295 OFFCURVE",
"336 321 CURVE",
"379 346 OFFCURVE",
"401 392 OFFCURVE",
"401 450 CURVE SMOOTH",
"401 455 LINE SMOOTH",
"401 557 OFFCURVE",
"335 613 OFFCURVE",
"230 613 CURVE SMOOTH"
);
},
{
closed = 1;
nodes = (
"298 287 OFFCURVE",
"340 249 OFFCURVE",
"340 180 CURVE SMOOTH",
"340 155 LINE SMOOTH",
"340 98 OFFCURVE",
"302 59 OFFCURVE",
"230 59 CURVE SMOOTH",
"158 59 OFFCURVE",
"120 98 OFFCURVE",
"120 155 CURVE SMOOTH",
"120 180 LINE SMOOTH",
"120 248 OFFCURVE",
"161 287 OFFCURVE",
"230 287 CURVE SMOOTH"
);
},
{
closed = 1;
nodes = (
"289 547 OFFCURVE",
"318 520 OFFCURVE",
"318 460 CURVE SMOOTH",
"318 441 LINE SMOOTH",
"318 379 OFFCURVE",
"295 353 OFFCURVE",
"230 353 CURVE SMOOTH",
"166 353 OFFCURVE",
"142 379 OFFCURVE",
"142 441 CURVE SMOOTH",
"142 460 LINE SMOOTH",
"142 517 OFFCURVE",
"169 547 OFFCURVE",
"230 547 CURVE SMOOTH"
);
}
);
width = 460;
}
);
leftKerningGroup = eight;
rightKerningGroup = eight;
unicode = 0038;
},
{
color = 4;
glyphname = nine;
lastChange = "2013-12-12 14:14:31 +0100";
layers = (
{
hints = (
{
place = "{45.000000, 85.000000}";
},
{
place = "{330.000000, 85.000000}";
},
{
horizontal = 1;
place = "{-12.000000, 71.000000}";
},
{
horizontal = 1;
place = "{211.000000, 74.000000}";
},
{
horizontal = 1;
place = "{541.000000, 72.000000}";
}
);
layerId = "3BA737DF-2981-4A42-8A92-02FACC3A7684";
name = Regular;
paths = (
{
closed = 1;
nodes = (
"108 613 OFFCURVE",
"45 546 OFFCURVE",
"45 427 CURVE SMOOTH",
"45 388 LINE SMOOTH",
"45 270 OFFCURVE",
"101 211 OFFCURVE",
"194 211 CURVE SMOOTH",
"238 211 OFFCURVE",
"284 234 OFFCURVE",
"330 278 CURVE",
"330 202 LINE SMOOTH",
"330 99 OFFCURVE",
"291 59 OFFCURVE",
"211 59 CURVE SMOOTH",
"183 59 OFFCURVE",
"114 69 OFFCURVE",
"82 75 CURVE",
"82 4 LINE",
"104 -1 OFFCURVE",
"167 -12 OFFCURVE",
"211 -12 CURVE SMOOTH",
"346 -12 OFFCURVE",
"415 54 OFFCURVE",
"415 208 CURVE",
"415 422 LINE SMOOTH",
"415 546 OFFCURVE",
"351 613 OFFCURVE",
"231 613 CURVE SMOOTH"
);
},
{
closed = 1;
nodes = (
"296 541 OFFCURVE",
"330 503 OFFCURVE",
"330 427 CURVE SMOOTH",
"330 350 LINE",
"292 315 OFFCURVE",
"249 285 OFFCURVE",
"211 285 CURVE SMOOTH",
"160 285 OFFCURVE",
"130 319 OFFCURVE",
"130 385 CURVE SMOOTH",
"130 432 LINE SMOOTH",
"130 504 OFFCURVE",
"164 541 OFFCURVE",
"231 541 CURVE SMOOTH"
);
}
);
width = 475;
}
);
unicode = 0039;
},
{
color = 4;
glyphname = fraction;
lastChange = "2013-12-12 14:14:31 +0100";
layers = (
{
hints = (
{
horizontal = 1;
place = "{21.000000, 21.000000}";
target = up;
type = BottomGhost;
},
{
horizontal = 1;
place = "{601.000000, -20.000000}";
target = down;
type = TopGhost;
}
);
layerId = "3BA737DF-2981-4A42-8A92-02FACC3A7684";
name = Regular;
paths = (
{
closed = 1;
nodes = (
"301 601 LINE",
"-4 0 LINE",
"79 0 LINE",
"384 601 LINE"
);
}
);
width = 380;
}
);
unicode = 2044;
},
{
color = 4;
glyphname = onehalf;
lastChange = "2013-12-12 14:53:28 +0100";
layers = (
{
hints = (
{
place = "{170.000000, 80.000000}";
},
{
place = "{696.000000, 247.000000}";
},
{
place = "{866.000000, 77.000000}";
},
{
horizontal = 1;
place = "{0.000000, 66.000000}";
},
{
horizontal = 1;
place = "{181.000000, 66.000000}";
},
{
horizontal = 1;
place = "{365.000000, 64.000000}";
},
{
horizontal = 1;
place = "{601.000000, -20.000000}";
},
{
horizontal = 1;
place = "{602.000000, -20.000000}";
},
{
horizontal = 1;
place = "{21.000000, 21.000000}";
},
{
horizontal = 1;
place = "{601.000000, -20.000000}";
},
{
place = "{171.000000, 80.000000}";
},
{
horizontal = 1;
place = "{181.000000, 66.000000}";
},
{
horizontal = 1;
place = "{602.000000, -20.000000}";
},
{
place = "{696.000000, 247.000000}";
},
{
place = "{866.000000, 77.000000}";
},
{
horizontal = 1;
place = "{0.000000, 66.000000}";
},
{
horizontal = 1;
place = "{365.000000, 64.000000}";
},
{
place = "{171.000000, 80.000000}";
},
{
horizontal = 1;
place = "{181.000000, 66.000000}";
},
{
horizontal = 1;
place = "{602.000000, -20.000000}";
}
);
layerId = "3BA737DF-2981-4A42-8A92-02FACC3A7684";
name = Regular;
paths = (
{
closed = 1;
nodes = (
"615 601 LINE",
"310 0 LINE",
"393 0 LINE",
"698 601 LINE"
);
},
{
closed = 1;
nodes = (
"767 429 OFFCURVE",
"729 422 OFFCURVE",
"696 413 CURVE",
"696 348 LINE",
"723 357 OFFCURVE",
"764 365 OFFCURVE",
"794 365 CURVE SMOOTH",
"847 365 OFFCURVE",
"866 350 OFFCURVE",
"866 318 CURVE SMOOTH",
"866 302 LINE SMOOTH",
"866 273 OFFCURVE",
"861 260 OFFCURVE",
"835 230 CURVE SMOOTH",
"687 60 LINE",
"687 0 LINE",
"943 0 LINE",
"943 66 LINE",
"782 66 LINE",
"879 170 LINE SMOOTH",
"928 223 OFFCURVE",
"942 258 OFFCURVE",
"942 303 CURVE SMOOTH",
"942 321 LINE SMOOTH",
"942 390 OFFCURVE",
"899 429 OFFCURVE",
"794 429 CURVE SMOOTH"
);
},
{
closed = 1;
nodes = (
"186 602 LINE",
"58 554 LINE",
"73 487 LINE",
"170 526 LINE",
"171 526 LINE",
"171 247 LINE",
"79 247 LINE",
"79 181 LINE",
"331 181 LINE",
"331 247 LINE",
"251 247 LINE",
"251 602 LINE"
);
}
);
width = 1000;
}
);
unicode = 00BD;
},
{
color = 4;
glyphname = onequarter;
lastChange = "2013-12-12 14:53:57 +0100";
layers = (
{
hints = (
{
place = "{149.000000, 80.000000}";
},
{
place = "{832.000000, 76.000000}";
},
{
horizontal = 1;
place = "{0.000000, 247.000000}";
},
{
horizontal = 1;
place = "{90.000000, 64.000000}";
},
{
horizontal = 1;
place = "{181.000000, 66.000000}";
},
{
horizontal = 1;
place = "{602.000000, -20.000000}";
},
{
horizontal = 1;
place = "{601.000000, -20.000000}";
},
{
place = "{832.000000, 76.000000}";
},
{
horizontal = 1;
place = "{90.000000, 64.000000}";
},
{
horizontal = 1;
place = "{421.000000, -20.000000}";
},
{
horizontal = 1;
place = "{21.000000, 21.000000}";
},
{
horizontal = 1;
place = "{21.000000, 21.000000}";
},
{
horizontal = 1;
place = "{601.000000, -20.000000}";
},
{
place = "{166.000000, 80.000000}";
},
{
horizontal = 1;
place = "{181.000000, 66.000000}";
},
{
horizontal = 1;
place = "{602.000000, -20.000000}";
},
{
place = "{166.000000, 80.000000}";
},
{
horizontal = 1;
place = "{181.000000, 66.000000}";
},
{
horizontal = 1;
place = "{602.000000, -20.000000}";
}
);
layerId = "3BA737DF-2981-4A42-8A92-02FACC3A7684";
name = Regular;
paths = (
{
closed = 1;
nodes = (
"744 421 LINE",
"640 132 LINE",
"660 90 LINE",
"831 90 LINE",
"831 0 LINE",
"908 0 LINE",
"908 90 LINE",
"964 90 LINE",
"964 154 LINE",
"908 154 LINE",
"908 286 LINE",
"832 286 LINE",
"832 172 LINE",
"832 154 LINE",
"723 154 LINE",
"816 421 LINE"
);
},
{
closed = 1;
nodes = (
"607 601 LINE",
"302 0 LINE",
"385 0 LINE",
"690 601 LINE"
);
},
{
closed = 1;
nodes = (
"181 602 LINE",
"53 554 LINE",
"68 487 LINE",
"165 526 LINE",
"166 526 LINE",
"166 247 LINE",
"74 247 LINE",
"74 181 LINE",
"326 181 LINE",
"326 247 LINE",
"246 247 LINE",
"246 602 LINE"
);
}
);
width = 1000;
}
);
unicode = 00BC;
},
{
color = 4;
glyphname = threequarters;
lastChange = "2013-12-12 14:54:33 +0100";
layers = (
{
hints = (
{
place = "{53.000000, 242.000000}";
},
{
place = "{208.000000, 87.000000}";
},
{
place = "{814.000000, 76.000000}";
},
{
horizontal = 1;
place = "{90.000000, 64.000000}";
},
{
horizontal = 1;
place = "{173.000000, 62.000000}";
},
{
horizontal = 1;
place = "{368.000000, 53.000000}";
},
{
horizontal = 1;
place = "{549.000000, 61.000000}";
},
{
horizontal = 1;
place = "{21.000000, 21.000000}";
},
{
place = "{814.000000, 76.000000}";
},
{
horizontal = 1;
place = "{90.000000, 64.000000}";
},
{
horizontal = 1;
place = "{421.000000, -20.000000}";
},
{
horizontal = 1;
place = "{21.000000, 21.000000}";
},
{
horizontal = 1;
place = "{21.000000, 21.000000}";
},
{
horizontal = 1;
place = "{601.000000, -20.000000}";
},
{
place = "{53.000000, 242.000000}";
},
{
place = "{208.000000, 87.000000}";
},
{
horizontal = 1;
place = "{173.000000, 62.000000}";
},
{
horizontal = 1;
place = "{368.000000, 59.000000}";
},
{
horizontal = 1;
place = "{549.000000, 61.000000}";
},
{
place = "{53.000000, 242.000000}";
},
{
place = "{208.000000, 87.000000}";
},
{
horizontal = 1;
place = "{173.000000, 62.000000}";
},
{
horizontal = 1;
place = "{368.000000, 59.000000}";
},
{
horizontal = 1;
place = "{549.000000, 61.000000}";
}
);
layerId = "3BA737DF-2981-4A42-8A92-02FACC3A7684";
name = Regular;
paths = (
{
closed = 1;
nodes = (
"726 421 LINE",
"622 132 LINE",
"642 90 LINE",
"813 90 LINE",
"813 0 LINE",
"890 0 LINE",
"890 90 LINE",
"946 90 LINE",
"946 154 LINE",
"890 154 LINE",
"890 286 LINE",
"814 286 LINE",
"814 172 LINE",
"814 154 LINE",
"705 154 LINE",
"798 421 LINE"
);
},
{
closed = 1;
nodes = (
"577 601 LINE",
"272 0 LINE",
"355 0 LINE",
"660 601 LINE"
);
},
{
closed = 1;
nodes = (
"122 610 OFFCURVE",
"86 606 OFFCURVE",
"53 601 CURVE",
"53 539 LINE",
"79 543 OFFCURVE",
"119 549 OFFCURVE",
"148 549 CURVE SMOOTH",
"190 549 OFFCURVE",
"208 535 OFFCURVE",
"208 502 CURVE SMOOTH",
"208 489 LINE SMOOTH",
"208 447 OFFCURVE",
"191 427 OFFCURVE",
"140 427 CURVE SMOOTH",
"82 427 LINE",
"82 368 LINE",
"140 368 LINE SMOOTH",
"195 368 OFFCURVE",
"216 347 OFFCURVE",
"216 304 CURVE SMOOTH",
"216 291 LINE SMOOTH",
"216 256 OFFCURVE",
"196 235 OFFCURVE",
"152 235 CURVE SMOOTH",
"123 235 OFFCURVE",
"79 239 OFFCURVE",
"53 243 CURVE",
"53 182 LINE",
"86 177 OFFCURVE",
"125 173 OFFCURVE",
"150 173 CURVE SMOOTH",
"245 173 OFFCURVE",
"295 224 OFFCURVE",
"295 295 CURVE SMOOTH",
"295 302 LINE SMOOTH",
"295 347 OFFCURVE",
"270 385 OFFCURVE",
"225 403 CURVE",
"268 423 OFFCURVE",
"285 451 OFFCURVE",
"285 495 CURVE SMOOTH",
"285 502 LINE SMOOTH",
"285 568 OFFCURVE",
"241 610 OFFCURVE",
"148 610 CURVE SMOOTH"
);
}
);
width = 1000;
}
);
unicode = 00BE;
},
{
color = 4;
glyphname = onesuperior;
lastChange = "2013-12-12 14:55:10 +0100";
layers = (
{
hints = (
{
place = "{176.000000, 80.000000}";
},
{
horizontal = 1;
place = "{331.000000, 66.000000}";
},
{
horizontal = 1;
place = "{752.000000, -20.000000}";
},
{
place = "{176.000000, 80.000000}";
},
{
horizontal = 1;
place = "{331.000000, 66.000000}";
},
{
horizontal = 1;
place = "{752.000000, -20.000000}";
}
);
layerId = "3BA737DF-2981-4A42-8A92-02FACC3A7684";
name = Regular;
paths = (
{
closed = 1;
nodes = (
"191 752 LINE",
"63 704 LINE",
"78 637 LINE",
"175 676 LINE",
"176 676 LINE",
"176 397 LINE",
"84 397 LINE",
"84 331 LINE",
"336 331 LINE",
"336 397 LINE",
"256 397 LINE",
"256 752 LINE"
);
}
);
width = 400;
}
);
unicode = 00B9;
},
{
color = 4;
glyphname = twosuperior;
lastChange = "2013-12-12 14:55:10 +0100";
layers = (
{
hints = (
{
place = "{81.000000, 247.000000}";
},
{
place = "{251.000000, 77.000000}";
},
{
horizontal = 1;
place = "{331.000000, 66.000000}";
},
{
horizontal = 1;
place = "{696.000000, 64.000000}";
},
{
place = "{81.000000, 247.000000}";
},
{
place = "{251.000000, 77.000000}";
},
{
horizontal = 1;
place = "{331.000000, 66.000000}";
},
{
horizontal = 1;
place = "{696.000000, 64.000000}";
}
);
layerId = "3BA737DF-2981-4A42-8A92-02FACC3A7684";
name = Regular;
paths = (
{
closed = 1;
nodes = (
"152 760 OFFCURVE",
"114 753 OFFCURVE",
"81 744 CURVE",
"81 679 LINE",
"108 688 OFFCURVE",
"149 696 OFFCURVE",
"179 696 CURVE SMOOTH",
"232 696 OFFCURVE",
"251 681 OFFCURVE",
"251 649 CURVE SMOOTH",
"251 633 LINE SMOOTH",
"251 604 OFFCURVE",
"246 591 OFFCURVE",
"220 561 CURVE SMOOTH",
"72 391 LINE",
"72 331 LINE",
"328 331 LINE",
"328 397 LINE",
"167 397 LINE",
"264 501 LINE SMOOTH",
"313 554 OFFCURVE",
"327 589 OFFCURVE",
"327 634 CURVE SMOOTH",
"327 652 LINE SMOOTH",
"327 721 OFFCURVE",
"284 760 OFFCURVE",
"179 760 CURVE SMOOTH"
);
}
);
width = 400;
}
);
unicode = 00B2;
},
{
color = 4;
glyphname = threesuperior;
lastChange = "2013-12-12 14:55:10 +0100";
layers = (
{
hints = (
{
place = "{79.000000, 242.000000}";
},
{
place = "{234.000000, 87.000000}";
},
{
horizontal = 1;
place = "{323.000000, 62.000000}";
},
{
horizontal = 1;
place = "{518.000000, 59.000000}";
},
{
horizontal = 1;
place = "{699.000000, 61.000000}";
},
{
place = "{79.000000, 242.000000}";
},
{
place = "{234.000000, 87.000000}";
},
{
horizontal = 1;
place = "{323.000000, 62.000000}";
},
{
horizontal = 1;
place = "{518.000000, 59.000000}";
},
{
horizontal = 1;
place = "{699.000000, 61.000000}";
}
);
layerId = "3BA737DF-2981-4A42-8A92-02FACC3A7684";
name = Regular;
paths = (
{
closed = 1;
nodes = (
"148 760 OFFCURVE",
"112 756 OFFCURVE",
"79 751 CURVE",
"79 689 LINE",
"105 693 OFFCURVE",
"145 699 OFFCURVE",
"174 699 CURVE SMOOTH",
"216 699 OFFCURVE",
"234 685 OFFCURVE",
"234 652 CURVE SMOOTH",
"234 639 LINE SMOOTH",
"234 597 OFFCURVE",
"217 577 OFFCURVE",
"166 577 CURVE SMOOTH",
"108 577 LINE",
"108 518 LINE",
"166 518 LINE SMOOTH",
"221 518 OFFCURVE",
"242 497 OFFCURVE",
"242 454 CURVE SMOOTH",
"242 441 LINE SMOOTH",
"242 406 OFFCURVE",
"222 385 OFFCURVE",
"178 385 CURVE SMOOTH",
"149 385 OFFCURVE",
"105 389 OFFCURVE",
"79 393 CURVE",
"79 332 LINE",
"112 327 OFFCURVE",
"151 323 OFFCURVE",
"176 323 CURVE SMOOTH",
"271 323 OFFCURVE",
"321 374 OFFCURVE",
"321 445 CURVE SMOOTH",
"321 452 LINE SMOOTH",
"321 497 OFFCURVE",
"296 535 OFFCURVE",
"251 553 CURVE",
"294 573 OFFCURVE",
"311 601 OFFCURVE",
"311 645 CURVE SMOOTH",
"311 652 LINE SMOOTH",
"311 718 OFFCURVE",
"267 760 OFFCURVE",
"174 760 CURVE SMOOTH"
);
}
);
width = 400;
}
);
unicode = 00B3;
},
{
color = 4;
glyphname = asterisk;
lastChange = "2013-12-12 14:14:31 +0100";
layers = (
{
hints = (
{
horizontal = 1;
place = "{695.000000, -20.000000}";
target = down;
type = TopGhost;
},
{
horizontal = 1;
place = "{431.000000, 21.000000}";
target = up;
type = BottomGhost;
}
);
layerId = "3BA737DF-2981-4A42-8A92-02FACC3A7684";
name = Regular;
paths = (
{
closed = 1;
nodes = (
"170 695 LINE",
"180 584 LINE",
"78 627 LINE",
"55 561 LINE",
"165 537 LINE",
"91 452 LINE",
"147 410 LINE",
"204 507 LINE",
"261 411 LINE",
"318 452 LINE",
"244 536 LINE",
"355 561 LINE",
"332 627 LINE",
"229 583 LINE",
"239 695 LINE"
);
}
);
width = 410;
}
);
unicode = 002A;
},
{
color = 4;
glyphname = backslash;
lastChange = "2013-12-12 14:14:31 +0100";
layers = (
{
hints = (
{
horizontal = 1;
place = "{21.000000, 21.000000}";
target = up;
type = BottomGhost;
},
{
horizontal = 1;
place = "{683.000000, -20.000000}";
target = down;
type = TopGhost;
}
);
layerId = "3BA737DF-2981-4A42-8A92-02FACC3A7684";
name = Regular;
paths = (
{
closed = 1;
nodes = (
"-17 683 LINE",
"188 0 LINE",
"273 0 LINE",
"68 683 LINE"
);
}
);
width = 255;
}
);
unicode = 005C;
},
{
color = 4;
glyphname = bullet;
lastChange = "2013-12-12 14:14:31 +0100";
layers = (
{
hints = (
{
place = "{55.000000, 125.000000}";
},
{
horizontal = 1;
place = "{200.000000, 135.000000}";
}
);
layerId = "3BA737DF-2981-4A42-8A92-02FACC3A7684";
name = Regular;
paths = (
{
closed = 1;
nodes = (
"78 335 OFFCURVE",
"55 317 OFFCURVE",
"55 284 CURVE SMOOTH",
"55 251 LINE SMOOTH",
"55 218 OFFCURVE",
"78 200 OFFCURVE",
"117 200 CURVE SMOOTH",
"157 200 OFFCURVE",
"180 218 OFFCURVE",
"180 251 CURVE SMOOTH",
"180 284 LINE SMOOTH",
"180 317 OFFCURVE",
"157 335 OFFCURVE",
"117 335 CURVE SMOOTH"
);
}
);
width = 235;
}
);
leftKerningGroup = colon;
rightKerningGroup = colon;
unicode = 2022;
},
{
color = 4;
glyphname = comma;
lastChange = "2013-12-12 14:14:31 +0100";
layers = (
{
hints = (
{
place = "{56.000000, 109.000000}";
},
{
horizontal = 1;
place = "{110.000000, -20.000000}";
target = down;
type = TopGhost;
},
{
horizontal = 1;
place = "{-140.000000, 21.000000}";
target = up;
type = BottomGhost;
}
);
layerId = "3BA737DF-2981-4A42-8A92-02FACC3A7684";
name = Regular;
paths = (
{
closed = 1;
nodes = (
"75 110 OFFCURVE",
"56 94 OFFCURVE",
"56 65 CURVE SMOOTH",
"56 35 LINE SMOOTH",
"56 12 OFFCURVE",
"68 -3 OFFCURVE",
"91 -8 CURVE",
"55 -161 LINE",
"115 -161 LINE",
"158 -18 LINE SMOOTH",
"163 -2 OFFCURVE",
"165 13 OFFCURVE",
"165 33 CURVE SMOOTH",
"165 65 LINE SMOOTH",
"165 94 OFFCURVE",
"146 110 OFFCURVE",
"110 110 CURVE SMOOTH"
);
}
);
width = 220;
}
);
leftKerningGroup = period;
rightKerningGroup = period;
unicode = 002C;
},
{
color = 4;
glyphname = exclam;
lastChange = "2013-12-12 14:14:31 +0100";
layers = (
{
hints = (
{
place = "{61.000000, 88.000000}";
},
{
place = "{61.000000, 100.000000}";
},
{
horizontal = 1;
place = "{-12.000000, 120.000000}";
},
{
horizontal = 1;
place = "{695.000000, -20.000000}";
target = down;
type = TopGhost;
}
);
layerId = "3BA737DF-2981-4A42-8A92-02FACC3A7684";
name = Regular;
paths = (
{
closed = 1;
nodes = (
"58 695 LINE",
"65 200 LINE",
"146 200 LINE",
"153 695 LINE"
);
},
{
closed = 1;
nodes = (
"70 108 OFFCURVE",
"50 92 OFFCURVE",
"50 62 CURVE SMOOTH",
"50 33 LINE SMOOTH",
"50 4 OFFCURVE",
"70 -12 OFFCURVE",
"105 -12 CURVE SMOOTH",
"141 -12 OFFCURVE",
"161 4 OFFCURVE",
"161 33 CURVE SMOOTH",
"161 62 LINE SMOOTH",
"161 92 OFFCURVE",
"141 108 OFFCURVE",
"105 108 CURVE SMOOTH"
);
}
);
width = 211;
}
);
unicode = 0021;
},
{
color = 4;
glyphname = numbersign;
lastChange = "2013-12-12 14:14:31 +0100";
layers = (
{
hints = (
{
place = "{115.000000, 85.000000}";
},
{
place = "{356.000000, 85.000000}";
},
{
horizontal = 1;
place = "{125.000000, 70.000000}";
},
{
horizontal = 1;
place = "{418.000000, 70.000000}";
},
{
horizontal = 1;
place = "{613.000000, -20.000000}";
target = down;
type = TopGhost;
},
{
horizontal = 1;
place = "{21.000000, 21.000000}";
target = up;
type = BottomGhost;
}
);
layerId = "3BA737DF-2981-4A42-8A92-02FACC3A7684";
name = Regular;
paths = (
{
closed = 1;
nodes = (
"356 613 LINE",
"356 488 LINE",
"200 488 LINE",
"200 613 LINE",
"115 613 LINE",
"115 488 LINE",
"35 488 LINE",
"35 418 LINE",
"115 418 LINE",
"115 195 LINE",
"35 195 LINE",
"35 125 LINE",
"115 125 LINE",
"115 0 LINE",
"200 0 LINE",
"200 125 LINE",
"356 125 LINE",
"356 0 LINE",
"441 0 LINE",
"441 125 LINE",
"521 125 LINE",
"521 195 LINE",
"441 195 LINE",
"441 418 LINE",
"521 418 LINE",
"521 488 LINE",
"441 488 LINE",
"441 613 LINE"
);
},
{
closed = 1;
nodes = (
"356 195 LINE",
"200 195 LINE",
"200 418 LINE",
"356 418 LINE"
);
}
);
width = 556;
}
);
unicode = 0023;
},
{
color = 4;
glyphname = period;
lastChange = "2013-12-12 14:14:31 +0100";
layers = (
{
hints = (
{
place = "{55.000000, 113.000000}";
},
{
horizontal = 1;
place = "{-12.000000, 122.000000}";
}
);
layerId = "3BA737DF-2981-4A42-8A92-02FACC3A7684";
name = Regular;
paths = (
{
closed = 1;
nodes = (
"75 110 OFFCURVE",
"55 94 OFFCURVE",
"55 63 CURVE SMOOTH",
"55 34 LINE SMOOTH",
"55 4 OFFCURVE",
"75 -12 OFFCURVE",
"111 -12 CURVE SMOOTH",
"148 -12 OFFCURVE",
"168 4 OFFCURVE",
"168 34 CURVE SMOOTH",
"168 63 LINE SMOOTH",
"168 94 OFFCURVE",
"148 110 OFFCURVE",
"111 110 CURVE SMOOTH"
);
}
);
width = 223;
}
);
leftKerningGroup = period;
rightKerningGroup = period;
unicode = 002E;
},
{
color = 4;
glyphname = question;
lastChange = "2013-12-12 14:14:31 +0100";
layers = (
{
hints = (
{
place = "{99.000000, 111.000000}";
},
{
place = "{112.000000, 81.000000}";
},
{
place = "{255.000000, 85.000000}";
},
{
horizontal = 1;
place = "{-12.000000, 120.000000}";
},
{
horizontal = 1;
place = "{627.000000, 68.000000}";
}
);
layerId = "3BA737DF-2981-4A42-8A92-02FACC3A7684";
name = Regular;
paths = (
{
closed = 1;
nodes = (
"121 695 OFFCURVE",
"69 688 OFFCURVE",
"25 679 CURVE",
"25 609 LINE",
"60 617 OFFCURVE",
"112 627 OFFCURVE",
"151 627 CURVE SMOOTH",
"232 627 OFFCURVE",
"255 604 OFFCURVE",
"255 556 CURVE SMOOTH",
"255 534 LINE SMOOTH",
"255 488 OFFCURVE",
"247 466 OFFCURVE",
"210 422 CURVE SMOOTH",
"152 354 LINE SMOOTH",
"117 313 OFFCURVE",
"112 297 OFFCURVE",
"112 232 CURVE SMOOTH",
"112 200 LINE",
"193 200 LINE",
"193 245 LINE SMOOTH",
"193 286 OFFCURVE",
"199 299 OFFCURVE",
"220 321 CURVE SMOOTH",
"253 357 LINE SMOOTH",
"316 423 OFFCURVE",
"340 472 OFFCURVE",
"340 532 CURVE SMOOTH",
"340 557 LINE SMOOTH",
"340 644 OFFCURVE",
"290 695 OFFCURVE",
"156 695 CURVE SMOOTH"
);
},
{
closed = 1;
nodes = (
"119 108 OFFCURVE",
"99 92 OFFCURVE",
"99 62 CURVE SMOOTH",
"99 33 LINE SMOOTH",
"99 4 OFFCURVE",
"119 -12 OFFCURVE",
"154 -12 CURVE SMOOTH",
"190 -12 OFFCURVE",
"210 4 OFFCURVE",
"210 33 CURVE SMOOTH",
"210 62 LINE SMOOTH",
"210 92 OFFCURVE",
"190 108 OFFCURVE",
"154 108 CURVE SMOOTH"
);
}
);
width = 395;
}
);
unicode = 003F;
},
{
color = 4;
glyphname = quotedbl;
lastChange = "2013-12-12 14:14:31 +0100";
layers = (
{
hints = (
{
place = "{45.000000, 85.000000}";
},
{
place = "{185.000000, 85.000000}";
},
{
horizontal = 1;
place = "{450.000000, 21.000000}";
target = up;
type = BottomGhost;
},
{
horizontal = 1;
place = "{683.000000, -20.000000}";
target = down;
type = TopGhost;
}
);
layerId = "3BA737DF-2981-4A42-8A92-02FACC3A7684";
name = Regular;
paths = (
{
closed = 1;
nodes = (
"185 683 LINE",
"185 429 LINE",
"270 429 LINE",
"270 683 LINE"
);
},
{
closed = 1;
nodes = (
"45 683 LINE",
"45 429 LINE",
"130 429 LINE",
"130 683 LINE"
);
}
);
width = 315;
}
);
unicode = 0022;
},
{
color = 4;
glyphname = quotesingle;
lastChange = "2013-12-12 14:14:31 +0100";
layers = (
{
hints = (
{
place = "{45.000000, 85.000000}";
},
{
horizontal = 1;
place = "{450.000000, 21.000000}";
target = up;
type = BottomGhost;
},
{
horizontal = 1;
place = "{683.000000, -20.000000}";
target = down;
type = TopGhost;
}
);
layerId = "3BA737DF-2981-4A42-8A92-02FACC3A7684";
name = Regular;
paths = (
{
closed = 1;
nodes = (
"45 683 LINE",
"45 429 LINE",
"130 429 LINE",
"130 683 LINE"
);
}
);
width = 175;
}
);
unicode = 0027;
},
{
color = 4;
glyphname = slash;
lastChange = "2013-12-12 14:14:31 +0100";
layers = (
{
hints = (
{
horizontal = 1;
place = "{21.000000, 21.000000}";
target = up;
type = BottomGhost;
},
{
horizontal = 1;
place = "{683.000000, -20.000000}";
target = down;
type = TopGhost;
}
);
layerId = "3BA737DF-2981-4A42-8A92-02FACC3A7684";
name = Regular;
paths = (
{
closed = 1;
nodes = (
"188 683 LINE",
"-17 0 LINE",
"68 0 LINE",
"273 683 LINE"
);
}
);
width = 255;
}
);
unicode = 002F;
},
{
color = 4;
glyphname = underscore;
lastChange = "2013-12-12 14:14:31 +0100";
layers = (
{
hints = (
{
horizontal = 1;
place = "{-185.000000, 65.000000}";
}
);
layerId = "3BA737DF-2981-4A42-8A92-02FACC3A7684";
name = Regular;
paths = (
{
closed = 1;
nodes = (
"65 -120 LINE",
"65 -185 LINE",
"545 -185 LINE",
"545 -120 LINE"
);
}
);
width = 610;
}
);
leftKerningGroup = emdash;
rightKerningGroup = emdash;
unicode = 005F;
},
{
color = 4;
glyphname = braceleft;
lastChange = "2013-12-12 14:48:35 +0100";
layers = (
{
hints = (
{
place = "{5.000000, 175.000000}";
},
{
place = "{95.000000, 85.000000}";
},
{
place = "{95.000000, 171.000000}";
},
{
horizontal = 1;
place = "{-95.000000, 70.000000}";
},
{
horizontal = 1;
place = "{292.000000, 70.000000}";
},
{
horizontal = 1;
place = "{679.000000, 70.000000}";
}
);
layerId = "3BA737DF-2981-4A42-8A92-02FACC3A7684";
name = Regular;
paths = (
{
closed = 1;
nodes = (
"132 747 OFFCURVE",
"95 722 OFFCURVE",
"95 567 CURVE SMOOTH",
"95 442 LINE SMOOTH",
"95 381 OFFCURVE",
"78 362 OFFCURVE",
"30 362 CURVE SMOOTH",
"5 362 LINE",
"5 292 LINE",
"30 292 LINE SMOOTH",
"78 292 OFFCURVE",
"95 274 OFFCURVE",
"95 212 CURVE SMOOTH",
"95 88 LINE SMOOTH",
"95 -64 OFFCURVE",
"129 -92 OFFCURVE",
"266 -92 CURVE",
"266 -22 LINE",
"196 -22 OFFCURVE",
"180 -12 OFFCURVE",
"180 67 CURVE SMOOTH",
"180 212 LINE SMOOTH",
"180 280 OFFCURVE",
"162 314 OFFCURVE",
"122 327 CURVE",
"163 341 OFFCURVE",
"180 374 OFFCURVE",
"180 442 CURVE SMOOTH",
"180 588 LINE SMOOTH",
"180 663 OFFCURVE",
"192 677 OFFCURVE",
"266 677 CURVE",
"266 747 LINE"
);
}
);
width = 256;
}
);
unicode = 007B;
},
{
color = 4;
glyphname = braceright;
lastChange = "2013-12-12 14:48:55 +0100";
layers = (
{
background = {
paths = (
{
closed = 1;
nodes = (
"-180 747 LINE",
"-180 -92 LINE",
"25 -92 LINE",
"25 -22 LINE",
"-95 -22 LINE",
"-95 677 LINE",
"25 677 LINE",
"25 747 LINE"
);
}
);
};
hints = (
{
place = "{-9.000000, 171.000000}";
},
{
place = "{77.000000, 85.000000}";
},
{
place = "{77.000000, 175.000000}";
},
{
horizontal = 1;
place = "{-95.000000, 70.000000}";
},
{
horizontal = 1;
place = "{292.000000, 70.000000}";
},
{
horizontal = 1;
place = "{679.000000, 70.000000}";
}
);
layerId = "3BA737DF-2981-4A42-8A92-02FACC3A7684";
name = Regular;
paths = (
{
closed = 1;
nodes = (
"-9 677 LINE",
"65 677 OFFCURVE",
"77 663 OFFCURVE",
"77 588 CURVE SMOOTH",
"77 442 LINE SMOOTH",
"77 374 OFFCURVE",
"94 341 OFFCURVE",
"135 327 CURVE",
"95 314 OFFCURVE",
"77 280 OFFCURVE",
"77 212 CURVE SMOOTH",
"77 67 LINE SMOOTH",
"77 -12 OFFCURVE",
"61 -22 OFFCURVE",
"-9 -22 CURVE",
"-9 -92 LINE",
"128 -92 OFFCURVE",
"162 -64 OFFCURVE",
"162 88 CURVE SMOOTH",
"162 212 LINE SMOOTH",
"162 274 OFFCURVE",
"179 292 OFFCURVE",
"227 292 CURVE SMOOTH",
"252 292 LINE",
"252 362 LINE",
"227 362 LINE SMOOTH",
"179 362 OFFCURVE",
"162 381 OFFCURVE",
"162 442 CURVE SMOOTH",
"162 567 LINE SMOOTH",
"162 722 OFFCURVE",
"125 747 OFFCURVE",
"-9 747 CURVE"
);
}
);
width = 256;
}
);
unicode = 007D;
},
{
color = 4;
glyphname = bracketleft;
lastChange = "2013-12-12 14:48:55 +0100";
layers = (
{
hints = (
{
place = "{70.000000, 85.000000}";
},
{
place = "{70.000000, 205.000000}";
},
{
horizontal = 1;
place = "{-95.000000, 70.000000}";
},
{
horizontal = 1;
place = "{679.000000, 70.000000}";
}
);
layerId = "3BA737DF-2981-4A42-8A92-02FACC3A7684";
name = Regular;
paths = (
{
closed = 1;
nodes = (
"70 747 LINE",
"70 -92 LINE",
"275 -92 LINE",
"275 -22 LINE",
"155 -22 LINE",
"155 677 LINE",
"275 677 LINE",
"275 747 LINE"
);
}
);
width = 260;
}
);
unicode = 005B;
},
{
color = 4;
glyphname = bracketright;
lastChange = "2013-12-12 14:48:55 +0100";
layers = (
{
hints = (
{
place = "{-15.000000, 205.000000}";
},
{
place = "{105.000000, 85.000000}";
},
{
horizontal = 1;
place = "{-95.000000, 70.000000}";
},
{
horizontal = 1;
place = "{679.000000, 70.000000}";
}
);
layerId = "3BA737DF-2981-4A42-8A92-02FACC3A7684";
name = Regular;
paths = (
{
closed = 1;
nodes = (
"-15 747 LINE",
"-15 677 LINE",
"105 677 LINE",
"105 -22 LINE",
"-15 -22 LINE",
"-15 -92 LINE",
"190 -92 LINE",
"190 747 LINE"
);
}
);
width = 260;
}
);
unicode = 005D;
},
{
color = 4;
glyphname = parenleft;
lastChange = "2013-12-12 14:51:01 +0100";
layers = (
{
hints = (
{
place = "{70.000000, 85.000000}";
},
{
place = "{70.000000, 171.000000}";
},
{
horizontal = 1;
place = "{-101.000000, 70.000000}";
},
{
horizontal = 1;
place = "{672.000000, 70.000000}";
}
);
layerId = "3BA737DF-2981-4A42-8A92-02FACC3A7684";
name = Regular;
paths = (
{
closed = 1;
nodes = (
"99 742 OFFCURVE",
"70 705 OFFCURVE",
"70 558 CURVE SMOOTH",
"70 83 LINE SMOOTH",
"70 -64 OFFCURVE",
"99 -101 OFFCURVE",
"241 -101 CURVE",
"241 -31 LINE",
"163 -27 OFFCURVE",
"155 -12 OFFCURVE",
"155 59 CURVE SMOOTH",
"155 582 LINE SMOOTH",
"155 656 OFFCURVE",
"166 667 OFFCURVE",
"241 672 CURVE",
"241 742 LINE"
);
}
);
width = 231;
}
);
unicode = 0028;
},
{
color = 4;
glyphname = parenright;
lastChange = "2013-12-12 14:14:31 +0100";
layers = (
{
hints = (
{
place = "{-10.000000, 171.000000}";
},
{
place = "{76.000000, 85.000000}";
},
{
horizontal = 1;
place = "{-94.000000, 70.000000}";
},
{
horizontal = 1;
place = "{679.000000, 70.000000}";
}
);
layerId = "3BA737DF-2981-4A42-8A92-02FACC3A7684";
name = Regular;
paths = (
{
closed = 1;
nodes = (
"-10 679 LINE",
"65 674 OFFCURVE",
"76 663 OFFCURVE",
"76 589 CURVE SMOOTH",
"76 66 LINE SMOOTH",
"76 -5 OFFCURVE",
"68 -20 OFFCURVE",
"-10 -24 CURVE",
"-10 -94 LINE",
"132 -94 OFFCURVE",
"161 -57 OFFCURVE",
"161 90 CURVE SMOOTH",
"161 565 LINE SMOOTH",
"161 712 OFFCURVE",
"132 749 OFFCURVE",
"-10 749 CURVE"
);
}
);
width = 231;
}
);
unicode = 0029;
},
{
color = 4;
glyphname = emdash;
lastChange = "2013-12-12 14:14:31 +0100";
layers = (
{
hints = (
{
horizontal = 1;
place = "{263.000000, 65.000000}";
}
);
layerId = "3BA737DF-2981-4A42-8A92-02FACC3A7684";
name = Regular;
paths = (
{
closed = 1;
nodes = (
"65 328 LINE",
"65 263 LINE",
"645 263 LINE",
"645 328 LINE"
);
}
);
width = 710;
}
);
leftKerningGroup = emdash;
rightKerningGroup = emdash;
unicode = 2014;
},
{
color = 4;
glyphname = endash;
lastChange = "2013-12-12 14:14:31 +0100";
layers = (
{
hints = (
{
horizontal = 1;
place = "{263.000000, 65.000000}";
}
);
layerId = "3BA737DF-2981-4A42-8A92-02FACC3A7684";
name = Regular;
paths = (
{
closed = 1;
nodes = (
"65 328 LINE",
"65 263 LINE",
"545 263 LINE",
"545 328 LINE"
);
}
);
width = 610;
}
);
leftKerningGroup = emdash;
rightKerningGroup = emdash;
unicode = 2013;
},
{
color = 4;
glyphname = hyphen;
lastChange = "2013-12-12 14:14:31 +0100";
layers = (
{
hints = (
{
horizontal = 1;
place = "{263.000000, 65.000000}";
}
);
layerId = "3BA737DF-2981-4A42-8A92-02FACC3A7684";
name = Regular;
paths = (
{
closed = 1;
nodes = (
"65 328 LINE",
"65 263 LINE",
"285 263 LINE",
"285 328 LINE"
);
}
);
width = 350;
}
);
leftKerningGroup = emdash;
rightKerningGroup = emdash;
unicode = 002D;
},
{
glyphname = guillemotleft;
lastChange = "2013-12-12 14:51:16 +0100";
layers = (
{
hints = (
{
horizontal = 1;
place = "{438.000000, -20.000000}";
},
{
horizontal = 1;
place = "{119.000000, 21.000000}";
}
);
layerId = "3BA737DF-2981-4A42-8A92-02FACC3A7684";
name = Regular;
paths = (
{
closed = 1;
nodes = (
"335 438 LINE",
"235 268 LINE",
"335 98 LINE",
"423 98 LINE",
"330 268 LINE",
"423 438 LINE"
);
},
{
closed = 1;
nodes = (
"165 438 LINE",
"65 268 LINE",
"165 98 LINE",
"253 98 LINE",
"160 268 LINE",
"253 438 LINE"
);
}
);
width = 488;
}
);
unicode = 00AB;
},
{
glyphname = guillemotright;
lastChange = "2013-12-12 14:51:16 +0100";
layers = (
{
hints = (
{
horizontal = 1;
place = "{438.000000, -20.000000}";
},
{
horizontal = 1;
place = "{119.000000, 21.000000}";
}
);
layerId = "3BA737DF-2981-4A42-8A92-02FACC3A7684";
name = Regular;
paths = (
{
closed = 1;
nodes = (
"235 438 LINE",
"328 268 LINE",
"235 98 LINE",
"323 98 LINE",
"423 268 LINE",
"323 438 LINE"
);
},
{
closed = 1;
nodes = (
"65 438 LINE",
"158 268 LINE",
"65 98 LINE",
"153 98 LINE",
"253 268 LINE",
"153 438 LINE"
);
}
);
width = 488;
}
);
unicode = 00BB;
},
{
color = 4;
glyphname = guilsinglleft;
lastChange = "2013-12-12 14:14:31 +0100";
layers = (
{
hints = (
{
horizontal = 1;
place = "{438.000000, -20.000000}";
target = down;
type = TopGhost;
},
{
horizontal = 1;
place = "{119.000000, 21.000000}";
target = up;
type = BottomGhost;
}
);
layerId = "3BA737DF-2981-4A42-8A92-02FACC3A7684";
name = Regular;
paths = (
{
closed = 1;
nodes = (
"165 438 LINE",
"65 268 LINE",
"165 98 LINE",
"253 98 LINE",
"160 268 LINE",
"253 438 LINE"
);
}
);
width = 318;
}
);
leftKerningGroup = guillemetleft;
rightKerningGroup = guillemetleft;
unicode = 2039;
},
{
color = 4;
glyphname = guilsinglright;
lastChange = "2013-12-12 14:14:31 +0100";
layers = (
{
hints = (
{
horizontal = 1;
place = "{438.000000, -20.000000}";
target = down;
type = TopGhost;
},
{
horizontal = 1;
place = "{119.000000, 21.000000}";
target = up;
type = BottomGhost;
}
);
layerId = "3BA737DF-2981-4A42-8A92-02FACC3A7684";
name = Regular;
paths = (
{
closed = 1;
nodes = (
"65 438 LINE",
"158 268 LINE",
"65 98 LINE",
"153 98 LINE",
"253 268 LINE",
"153 438 LINE"
);
}
);
width = 318;
}
);
leftKerningGroup = guillemetright;
rightKerningGroup = guillemetright;
unicode = 203A;
},
{
color = 4;
glyphname = quotedblbase;
lastChange = "2013-12-12 14:14:31 +0100";
layers = (
{
hints = (
{
place = "{55.000000, 107.000000}";
},
{
place = "{200.000000, 107.000000}";
},
{
horizontal = 1;
place = "{-108.000000, 213.000000}";
}
);
layerId = "3BA737DF-2981-4A42-8A92-02FACC3A7684";
name = Regular;
paths = (
{
closed = 1;
nodes = (
"219 105 OFFCURVE",
"200 90 OFFCURVE",
"200 61 CURVE SMOOTH",
"200 33 LINE SMOOTH",
"200 10 OFFCURVE",
"212 -4 OFFCURVE",
"234 -9 CURVE",
"211 -108 LINE",
"270 -108 LINE",
"300 -19 LINE SMOOTH",
"305 -3 OFFCURVE",
"307 11 OFFCURVE",
"307 31 CURVE SMOOTH",
"307 61 LINE SMOOTH",
"307 90 OFFCURVE",
"288 105 OFFCURVE",
"253 105 CURVE SMOOTH"
);
},
{
closed = 1;
nodes = (
"74 105 OFFCURVE",
"55 90 OFFCURVE",
"55 61 CURVE SMOOTH",
"55 33 LINE SMOOTH",
"55 10 OFFCURVE",
"67 -4 OFFCURVE",
"89 -9 CURVE",
"66 -108 LINE",
"125 -108 LINE",
"155 -19 LINE SMOOTH",
"160 -3 OFFCURVE",
"162 11 OFFCURVE",
"162 31 CURVE SMOOTH",
"162 61 LINE SMOOTH",
"162 90 OFFCURVE",
"143 105 OFFCURVE",
"108 105 CURVE SMOOTH"
);
}
);
width = 362;
}
);
leftKerningGroup = period;
rightKerningGroup = period;
unicode = 201E;
},
{
color = 4;
glyphname = quotedblleft;
lastChange = "2013-12-12 14:14:31 +0100";
layers = (
{
hints = (
{
place = "{55.000000, 107.000000}";
},
{
place = "{200.000000, 107.000000}";
},
{
horizontal = 1;
place = "{482.000000, 213.000000}";
}
);
layerId = "3BA737DF-2981-4A42-8A92-02FACC3A7684";
name = Regular;
paths = (
{
closed = 1;
nodes = (
"237 695 LINE",
"207 606 LINE SMOOTH",
"202 590 OFFCURVE",
"200 576 OFFCURVE",
"200 556 CURVE SMOOTH",
"200 526 LINE SMOOTH",
"200 497 OFFCURVE",
"219 482 OFFCURVE",
"254 482 CURVE SMOOTH",
"288 482 OFFCURVE",
"307 497 OFFCURVE",
"307 526 CURVE SMOOTH",
"307 554 LINE SMOOTH",
"307 577 OFFCURVE",
"295 591 OFFCURVE",
"273 596 CURVE",
"296 695 LINE"
);
},
{
closed = 1;
nodes = (
"92 695 LINE",
"62 606 LINE SMOOTH",
"57 590 OFFCURVE",
"55 576 OFFCURVE",
"55 556 CURVE SMOOTH",
"55 526 LINE SMOOTH",
"55 497 OFFCURVE",
"74 482 OFFCURVE",
"109 482 CURVE SMOOTH",
"143 482 OFFCURVE",
"162 497 OFFCURVE",
"162 526 CURVE SMOOTH",
"162 554 LINE SMOOTH",
"162 577 OFFCURVE",
"150 591 OFFCURVE",
"128 596 CURVE",
"151 695 LINE"
);
}
);
width = 362;
}
);
unicode = 201C;
},
{
color = 4;
glyphname = quotedblright;
lastChange = "2013-12-12 14:14:31 +0100";
layers = (
{
hints = (
{
place = "{55.000000, 107.000000}";
},
{
place = "{200.000000, 107.000000}";
},
{
horizontal = 1;
place = "{482.000000, 213.000000}";
}
);
layerId = "3BA737DF-2981-4A42-8A92-02FACC3A7684";
name = Regular;
paths = (
{
closed = 1;
nodes = (
"219 695 OFFCURVE",
"200 680 OFFCURVE",
"200 651 CURVE SMOOTH",
"200 623 LINE SMOOTH",
"200 600 OFFCURVE",
"212 586 OFFCURVE",
"234 581 CURVE",
"211 482 LINE",
"270 482 LINE",
"300 571 LINE SMOOTH",
"305 587 OFFCURVE",
"307 601 OFFCURVE",
"307 621 CURVE SMOOTH",
"307 651 LINE SMOOTH",
"307 680 OFFCURVE",
"288 695 OFFCURVE",
"253 695 CURVE SMOOTH"
);
},
{
closed = 1;
nodes = (
"74 695 OFFCURVE",
"55 680 OFFCURVE",
"55 651 CURVE SMOOTH",
"55 623 LINE SMOOTH",
"55 600 OFFCURVE",
"67 586 OFFCURVE",
"89 581 CURVE",
"66 482 LINE",
"125 482 LINE",
"155 571 LINE SMOOTH",
"160 587 OFFCURVE",
"162 601 OFFCURVE",
"162 621 CURVE SMOOTH",
"162 651 LINE SMOOTH",
"162 680 OFFCURVE",
"143 695 OFFCURVE",
"108 695 CURVE SMOOTH"
);
}
);
width = 362;
}
);
leftKerningGroup = quotedblright;
rightKerningGroup = quotedblright;
unicode = 201D;
},
{
color = 4;
glyphname = quoteleft;
lastChange = "2013-12-12 14:14:31 +0100";
layers = (
{
hints = (
{
place = "{55.000000, 107.000000}";
},
{
horizontal = 1;
place = "{504.000000, 21.000000}";
target = up;
type = BottomGhost;
},
{
horizontal = 1;
place = "{696.000000, -20.000000}";
target = down;
type = TopGhost;
}
);
layerId = "3BA737DF-2981-4A42-8A92-02FACC3A7684";
name = Regular;
paths = (
{
closed = 1;
nodes = (
"92 696 LINE",
"62 607 LINE SMOOTH",
"57 591 OFFCURVE",
"55 577 OFFCURVE",
"55 557 CURVE SMOOTH",
"55 527 LINE SMOOTH",
"55 498 OFFCURVE",
"74 483 OFFCURVE",
"109 483 CURVE SMOOTH",
"143 483 OFFCURVE",
"162 498 OFFCURVE",
"162 527 CURVE SMOOTH",
"162 555 LINE SMOOTH",
"162 578 OFFCURVE",
"150 592 OFFCURVE",
"128 597 CURVE",
"151 696 LINE"
);
}
);
width = 217;
}
);
leftKerningGroup = quotedblleft;
rightKerningGroup = quotedblleft;
unicode = 2018;
},
{
color = 4;
glyphname = quoteright;
lastChange = "2013-12-12 14:14:31 +0100";
layers = (
{
hints = (
{
place = "{55.000000, 107.000000}";
},
{
horizontal = 1;
place = "{695.000000, -20.000000}";
target = down;
type = TopGhost;
},
{
horizontal = 1;
place = "{503.000000, 21.000000}";
target = up;
type = BottomGhost;
}
);
layerId = "3BA737DF-2981-4A42-8A92-02FACC3A7684";
name = Regular;
paths = (
{
closed = 1;
nodes = (
"74 695 OFFCURVE",
"55 680 OFFCURVE",
"55 651 CURVE SMOOTH",
"55 623 LINE SMOOTH",
"55 600 OFFCURVE",
"67 586 OFFCURVE",
"89 581 CURVE",
"66 482 LINE",
"125 482 LINE",
"155 571 LINE SMOOTH",
"160 587 OFFCURVE",
"162 601 OFFCURVE",
"162 621 CURVE SMOOTH",
"162 651 LINE SMOOTH",
"162 680 OFFCURVE",
"143 695 OFFCURVE",
"108 695 CURVE SMOOTH"
);
}
);
width = 217;
}
);
unicode = 2019;
},
{
color = 4;
glyphname = quotesinglbase;
lastChange = "2013-12-12 14:14:31 +0100";
layers = (
{
hints = (
{
place = "{55.000000, 107.000000}";
},
{
horizontal = 1;
place = "{105.000000, -20.000000}";
target = down;
type = TopGhost;
},
{
horizontal = 1;
place = "{-87.000000, 21.000000}";
target = up;
type = BottomGhost;
}
);
layerId = "3BA737DF-2981-4A42-8A92-02FACC3A7684";
name = Regular;
paths = (
{
closed = 1;
nodes = (
"74 105 OFFCURVE",
"55 90 OFFCURVE",
"55 61 CURVE SMOOTH",
"55 33 LINE SMOOTH",
"55 10 OFFCURVE",
"67 -4 OFFCURVE",
"89 -9 CURVE",
"66 -108 LINE",
"125 -108 LINE",
"155 -19 LINE SMOOTH",
"160 -3 OFFCURVE",
"162 11 OFFCURVE",
"162 31 CURVE SMOOTH",
"162 61 LINE SMOOTH",
"162 90 OFFCURVE",
"143 105 OFFCURVE",
"108 105 CURVE SMOOTH"
);
}
);
width = 217;
}
);
leftKerningGroup = period;
rightKerningGroup = period;
unicode = 201A;
},
{
color = 4;
glyphname = florin;
lastChange = "2013-12-12 14:14:31 +0100";
layers = (
{
hints = (
{
place = "{90.000000, 85.000000}";
},
{
place = "{90.000000, 213.000000}";
},
{
horizontal = 1;
place = "{336.000000, 70.000000}";
},
{
horizontal = 1;
place = "{543.000000, 70.000000}";
},
{
horizontal = 1;
place = "{-164.000000, 21.000000}";
target = up;
type = BottomGhost;
}
);
layerId = "3BA737DF-2981-4A42-8A92-02FACC3A7684";
name = Regular;
paths = (
{
closed = 1;
nodes = (
"144 613 OFFCURVE",
"91 562 OFFCURVE",
"90 457 CURVE",
"90 406 LINE",
"20 406 LINE",
"20 336 LINE",
"90 336 LINE",
"90 -185 LINE",
"175 -185 LINE",
"175 336 LINE",
"275 336 LINE",
"275 406 LINE",
"175 406 LINE",
"175 462 LINE SMOOTH",
"175 517 OFFCURVE",
"201 543 OFFCURVE",
"241 543 CURVE SMOOTH",
"265 543 OFFCURVE",
"285 541 OFFCURVE",
"303 538 CURVE",
"303 606 LINE",
"290 609 OFFCURVE",
"264 613 OFFCURVE",
"240 613 CURVE SMOOTH"
);
}
);
width = 313;
}
);
leftKerningGroup = f;
rightKerningGroup = f;
unicode = 0192;
},
{
color = 4;
glyphname = Euro;
lastChange = "2013-12-12 14:41:17 +0100";
layers = (
{
layerId = "3BA737DF-2981-4A42-8A92-02FACC3A7684";
name = Regular;
paths = (
{
closed = 1;
nodes = (
"149 613 OFFCURVE",
"93 546 OFFCURVE",
"93 411 CURVE SMOOTH",
"93 396 LINE",
"31 396 LINE",
"16 326 LINE",
"93 326 LINE",
"93 264 LINE",
"25 264 LINE",
"10 194 LINE",
"93 194 LINE",
"93 190 LINE SMOOTH",
"93 56 OFFCURVE",
"146 -12 OFFCURVE",
"291 -12 CURVE SMOOTH",
"336 -12 OFFCURVE",
"385 -4 OFFCURVE",
"429 4 CURVE",
"427 79 LINE",
"392 72 OFFCURVE",
"340 63 OFFCURVE",
"291 63 CURVE SMOOTH",
"212 63 OFFCURVE",
"178 98 OFFCURVE",
"178 183 CURVE SMOOTH",
"178 194 LINE",
"345 194 LINE",
"360 264 LINE",
"178 264 LINE",
"178 326 LINE",
"372 326 LINE",
"387 396 LINE",
"178 396 LINE",
"178 419 LINE SMOOTH",
"178 505 OFFCURVE",
"212 540 OFFCURVE",
"291 540 CURVE SMOOTH",
"340 540 OFFCURVE",
"392 531 OFFCURVE",
"427 524 CURVE",
"429 597 LINE",
"385 605 OFFCURVE",
"336 613 OFFCURVE",
"291 613 CURVE SMOOTH"
);
}
);
width = 454;
}
);
unicode = 20AC;
},
{
color = 4;
glyphname = cent;
lastChange = "2013-12-12 14:14:31 +0100";
layers = (
{
hints = (
{
place = "{55.000000, 85.000000}";
},
{
place = "{185.000000, 75.000000}";
},
{
horizontal = 1;
place = "{-88.000000, 151.000000}";
},
{
horizontal = 1;
place = "{425.000000, 151.000000}";
}
);
layerId = "3BA737DF-2981-4A42-8A92-02FACC3A7684";
name = Regular;
paths = (
{
closed = 1;
nodes = (
"185 576 LINE",
"185 495 LINE",
"95 479 OFFCURVE",
"55 416 OFFCURVE",
"55 318 CURVE SMOOTH",
"55 170 LINE SMOOTH",
"55 70 OFFCURVE",
"96 9 OFFCURVE",
"185 -7 CURVE",
"185 -88 LINE",
"260 -88 LINE",
"260 -11 LINE",
"284 -10 OFFCURVE",
"303 -7 OFFCURVE",
"338 -1 CURVE",
"336 74 LINE",
"301 67 OFFCURVE",
"278 63 OFFCURVE",
"238 63 CURVE SMOOTH",
"176 63 OFFCURVE",
"140 96 OFFCURVE",
"140 164 CURVE SMOOTH",
"140 325 LINE SMOOTH",
"140 389 OFFCURVE",
"173 425 OFFCURVE",
"238 425 CURVE SMOOTH",
"278 425 OFFCURVE",
"301 421 OFFCURVE",
"336 414 CURVE",
"338 489 LINE",
"303 495 OFFCURVE",
"284 498 OFFCURVE",
"260 499 CURVE",
"260 576 LINE"
);
}
);
width = 390;
}
);
unicode = 00A2;
},
{
color = 4;
glyphname = currency;
lastChange = "2013-12-12 14:14:31 +0100";
layers = (
{
hints = (
{
place = "{59.000000, 82.000000}";
},
{
place = "{324.000000, 82.000000}";
},
{
horizontal = 1;
place = "{132.000000, 72.000000}";
},
{
horizontal = 1;
place = "{421.000000, 73.000000}";
},
{
horizontal = 1;
place = "{523.000000, -20.000000}";
target = down;
type = TopGhost;
},
{
horizontal = 1;
place = "{114.000000, 21.000000}";
target = up;
type = BottomGhost;
}
);
layerId = "3BA737DF-2981-4A42-8A92-02FACC3A7684";
name = Regular;
paths = (
{
closed = 1;
nodes = (
"338 466 LINE",
"310 484 OFFCURVE",
"275 494 OFFCURVE",
"233 494 CURVE SMOOTH",
"192 494 OFFCURVE",
"158 485 OFFCURVE",
"130 468 CURVE",
"76 523 LINE",
"20 467 LINE",
"78 410 LINE",
"65 384 OFFCURVE",
"59 358 OFFCURVE",
"59 323 CURVE SMOOTH",
"59 303 LINE SMOOTH",
"59 265 OFFCURVE",
"67 237 OFFCURVE",
"82 210 CURVE",
"20 149 LINE",
"76 93 LINE",
"136 154 LINE",
"163 139 OFFCURVE",
"195 132 OFFCURVE",
"233 132 CURVE SMOOTH",
"272 132 OFFCURVE",
"305 140 OFFCURVE",
"332 156 CURVE",
"394 93 LINE",
"450 149 LINE",
"385 213 LINE",
"399 240 OFFCURVE",
"406 266 OFFCURVE",
"406 303 CURVE SMOOTH",
"406 323 LINE SMOOTH",
"406 357 OFFCURVE",
"401 382 OFFCURVE",
"389 407 CURVE",
"450 467 LINE",
"394 523 LINE"
);
},
{
closed = 1;
nodes = (
"300 421 OFFCURVE",
"324 378 OFFCURVE",
"324 323 CURVE SMOOTH",
"324 303 LINE SMOOTH",
"324 247 OFFCURVE",
"299 204 OFFCURVE",
"233 204 CURVE SMOOTH",
"166 204 OFFCURVE",
"141 247 OFFCURVE",
"141 303 CURVE SMOOTH",
"141 323 LINE SMOOTH",
"141 378 OFFCURVE",
"167 421 OFFCURVE",
"233 421 CURVE SMOOTH"
);
}
);
width = 470;
}
);
unicode = 00A4;
},
{
color = 4;
glyphname = dollar;
lastChange = "2013-12-12 14:14:31 +0100";
layers = (
{
hints = (
{
place = "{40.000000, 85.000000}";
},
{
place = "{192.000000, 75.000000}";
},
{
place = "{326.000000, 85.000000}";
},
{
horizontal = 1;
place = "{-94.000000, 155.000000}";
},
{
horizontal = 1;
place = "{540.000000, 155.000000}";
}
);
layerId = "3BA737DF-2981-4A42-8A92-02FACC3A7684";
name = Regular;
paths = (
{
closed = 1;
nodes = (
"192 695 LINE",
"192 610 LINE",
"83 598 OFFCURVE",
"40 543 OFFCURVE",
"40 446 CURVE SMOOTH",
"40 441 LINE SMOOTH",
"40 335 OFFCURVE",
"71 300 OFFCURVE",
"177 268 CURVE SMOOTH",
"239 249 LINE SMOOTH",
"312 227 OFFCURVE",
"326 210 OFFCURVE",
"326 167 CURVE SMOOTH",
"326 147 LINE SMOOTH",
"326 91 OFFCURVE",
"294 61 OFFCURVE",
"198 61 CURVE SMOOTH",
"155 61 OFFCURVE",
"116 67 OFFCURVE",
"67 78 CURVE",
"65 5 LINE",
"107 -3 OFFCURVE",
"149 -11 OFFCURVE",
"192 -12 CURVE",
"192 -94 LINE",
"267 -94 LINE",
"267 -7 LINE",
"374 8 OFFCURVE",
"411 66 OFFCURVE",
"411 155 CURVE SMOOTH",
"411 160 LINE SMOOTH",
"411 258 OFFCURVE",
"378 296 OFFCURVE",
"264 330 CURVE SMOOTH",
"201 349 LINE SMOOTH",
"134 369 OFFCURVE",
"125 386 OFFCURVE",
"125 434 CURVE SMOOTH",
"125 454 LINE SMOOTH",
"125 510 OFFCURVE",
"155 540 OFFCURVE",
"243 540 CURVE SMOOTH",
"289 540 OFFCURVE",
"337 533 OFFCURVE",
"374 526 CURVE",
"376 599 LINE",
"340 604 OFFCURVE",
"303 610 OFFCURVE",
"267 612 CURVE",
"267 695 LINE"
);
}
);
width = 441;
}
);
unicode = 0024;
},
{
color = 4;
glyphname = sterling;
lastChange = "2013-12-12 14:14:31 +0100";
layers = (
{
hints = (
{
place = "{85.000000, 85.000000}";
},
{
horizontal = 1;
place = "{0.000000, 74.000000}";
},
{
horizontal = 1;
place = "{305.000000, 70.000000}";
},
{
horizontal = 1;
place = "{543.000000, 70.000000}";
}
);
layerId = "3BA737DF-2981-4A42-8A92-02FACC3A7684";
name = Regular;
paths = (
{
closed = 1;
nodes = (
"138 613 OFFCURVE",
"85 563 OFFCURVE",
"85 457 CURVE SMOOTH",
"85 375 LINE",
"15 375 LINE",
"15 305 LINE",
"85 305 LINE",
"85 166 LINE SMOOTH",
"85 128 OFFCURVE",
"73 94 OFFCURVE",
"45 60 CURVE",
"45 0 LINE",
"392 0 LINE",
"392 74 LINE",
"129 74 LINE",
"156 95 OFFCURVE",
"170 127 OFFCURVE",
"170 184 CURVE SMOOTH",
"170 305 LINE",
"265 305 LINE",
"265 375 LINE",
"170 375 LINE",
"170 462 LINE SMOOTH",
"170 517 OFFCURVE",
"194 543 OFFCURVE",
"265 543 CURVE SMOOTH",
"293 543 OFFCURVE",
"327 536 OFFCURVE",
"347 530 CURVE",
"347 598 LINE",
"320 606 OFFCURVE",
"283 613 OFFCURVE",
"252 613 CURVE SMOOTH"
);
}
);
width = 397;
}
);
unicode = 00A3;
},
{
color = 4;
glyphname = yen;
lastChange = "2013-12-12 14:14:31 +0100";
layers = (
{
hints = (
{
place = "{185.000000, 85.000000}";
},
{
horizontal = 1;
place = "{601.000000, -20.000000}";
target = down;
type = TopGhost;
},
{
horizontal = 1;
place = "{21.000000, 21.000000}";
target = up;
type = BottomGhost;
}
);
layerId = "3BA737DF-2981-4A42-8A92-02FACC3A7684";
name = Regular;
paths = (
{
closed = 1;
nodes = (
"365 601 LINE",
"228 280 LINE",
"90 601 LINE",
"-5 601 LINE",
"159 259 LINE",
"90 259 LINE",
"90 189 LINE",
"185 189 LINE",
"185 148 LINE",
"90 148 LINE",
"90 78 LINE",
"185 78 LINE",
"185 0 LINE",
"270 0 LINE",
"270 78 LINE",
"364 78 LINE",
"364 148 LINE",
"270 148 LINE",
"270 189 LINE",
"364 189 LINE",
"364 259 LINE",
"296 259 LINE",
"460 601 LINE"
);
}
);
width = 455;
}
);
unicode = 00A5;
},
{
color = 4;
glyphname = approxequal;
lastChange = "2013-12-12 14:14:31 +0100";
layers = (
{
hints = (
{
horizontal = 1;
place = "{183.000000, 73.000000}";
},
{
horizontal = 1;
place = "{211.000000, 45.000000}";
},
{
horizontal = 1;
place = "{333.000000, 73.000000}";
},
{
horizontal = 1;
place = "{361.000000, 45.000000}";
},
{
horizontal = 1;
place = "{361.000000, 73.000000}";
},
{
horizontal = 1;
place = "{211.000000, 73.000000}";
}
);
layerId = "3BA737DF-2981-4A42-8A92-02FACC3A7684";
name = Regular;
paths = (
{
closed = 1;
nodes = (
"60 434 OFFCURVE",
"18 406 OFFCURVE",
"18 406 CURVE",
"18 336 LINE",
"18 336 OFFCURVE",
"79 361 OFFCURVE",
"116 361 CURVE SMOOTH",
"184 361 OFFCURVE",
"201 333 OFFCURVE",
"272 333 CURVE SMOOTH",
"330 333 OFFCURVE",
"372 361 OFFCURVE",
"372 361 CURVE",
"372 431 LINE",
"372 431 OFFCURVE",
"311 406 OFFCURVE",
"274 406 CURVE SMOOTH",
"208 406 OFFCURVE",
"189 434 OFFCURVE",
"118 434 CURVE SMOOTH"
);
},
{
closed = 1;
nodes = (
"60 284 OFFCURVE",
"18 256 OFFCURVE",
"18 256 CURVE",
"18 186 LINE",
"18 186 OFFCURVE",
"79 211 OFFCURVE",
"116 211 CURVE SMOOTH",
"184 211 OFFCURVE",
"201 183 OFFCURVE",
"272 183 CURVE SMOOTH",
"330 183 OFFCURVE",
"372 211 OFFCURVE",
"372 211 CURVE",
"372 281 LINE",
"372 281 OFFCURVE",
"311 256 OFFCURVE",
"274 256 CURVE SMOOTH",
"208 256 OFFCURVE",
"189 284 OFFCURVE",
"118 284 CURVE SMOOTH"
);
}
);
width = 390;
}
);
leftKerningGroup = plus;
rightKerningGroup = plus;
unicode = 2248;
},
{
color = 4;
glyphname = asciitilde;
lastChange = "2013-12-12 14:14:31 +0100";
layers = (
{
hints = (
{
horizontal = 1;
place = "{251.000000, 73.000000}";
},
{
horizontal = 1;
place = "{279.000000, 45.000000}";
},
{
horizontal = 1;
place = "{279.000000, 73.000000}";
}
);
layerId = "3BA737DF-2981-4A42-8A92-02FACC3A7684";
name = Regular;
paths = (
{
closed = 1;
nodes = (
"60 352 OFFCURVE",
"18 324 OFFCURVE",
"18 324 CURVE",
"18 254 LINE",
"18 254 OFFCURVE",
"79 279 OFFCURVE",
"116 279 CURVE SMOOTH",
"184 279 OFFCURVE",
"201 251 OFFCURVE",
"272 251 CURVE SMOOTH",
"330 251 OFFCURVE",
"372 279 OFFCURVE",
"372 279 CURVE",
"372 349 LINE",
"372 349 OFFCURVE",
"311 324 OFFCURVE",
"274 324 CURVE SMOOTH",
"208 324 OFFCURVE",
"189 352 OFFCURVE",
"118 352 CURVE SMOOTH"
);
}
);
width = 390;
}
);
leftKerningGroup = plus;
rightKerningGroup = plus;
unicode = 007E;
},
{
color = 4;
glyphname = divide;
lastChange = "2013-12-12 14:14:31 +0100";
layers = (
{
hints = (
{
place = "{147.000000, 97.000000}";
},
{
horizontal = 1;
place = "{111.000000, 104.000000}";
},
{
horizontal = 1;
place = "{265.000000, 70.000000}";
},
{
horizontal = 1;
place = "{385.000000, 104.000000}";
}
);
layerId = "3BA737DF-2981-4A42-8A92-02FACC3A7684";
name = Regular;
paths = (
{
closed = 1;
nodes = (
"18 335 LINE",
"18 265 LINE",
"372 265 LINE",
"372 335 LINE"
);
},
{
closed = 1;
nodes = (
"163 215 OFFCURVE",
"147 198 OFFCURVE",
"147 171 CURVE SMOOTH",
"147 154 LINE SMOOTH",
"147 128 OFFCURVE",
"163 111 OFFCURVE",
"195 111 CURVE SMOOTH",
"228 111 OFFCURVE",
"244 128 OFFCURVE",
"244 154 CURVE SMOOTH",
"244 171 LINE SMOOTH",
"244 198 OFFCURVE",
"228 215 OFFCURVE",
"195 215 CURVE SMOOTH"
);
},
{
closed = 1;
nodes = (
"163 489 OFFCURVE",
"147 472 OFFCURVE",
"147 445 CURVE SMOOTH",
"147 428 LINE SMOOTH",
"147 402 OFFCURVE",
"163 385 OFFCURVE",
"195 385 CURVE SMOOTH",
"228 385 OFFCURVE",
"244 402 OFFCURVE",
"244 428 CURVE SMOOTH",
"244 445 LINE SMOOTH",
"244 472 OFFCURVE",
"228 489 OFFCURVE",
"195 489 CURVE SMOOTH"
);
}
);
width = 390;
}
);
leftKerningGroup = plus;
rightKerningGroup = plus;
unicode = 00F7;
},
{
color = 4;
glyphname = equal;
lastChange = "2013-12-12 14:14:31 +0100";
layers = (
{
hints = (
{
horizontal = 1;
place = "{180.000000, 70.000000}";
},
{
horizontal = 1;
place = "{351.000000, 70.000000}";
}
);
layerId = "3BA737DF-2981-4A42-8A92-02FACC3A7684";
name = Regular;
paths = (
{
closed = 1;
nodes = (
"33 421 LINE",
"33 351 LINE",
"387 351 LINE",
"387 421 LINE"
);
},
{
closed = 1;
nodes = (
"33 250 LINE",
"33 180 LINE",
"387 180 LINE",
"387 250 LINE"
);
}
);
width = 420;
}
);
leftKerningGroup = plus;
rightKerningGroup = plus;
unicode = 003D;
},
{
color = 4;
glyphname = greater;
lastChange = "2013-12-12 14:14:31 +0100";
layers = (
{
hints = (
{
horizontal = 1;
place = "{494.000000, -20.000000}";
target = down;
type = TopGhost;
},
{
horizontal = 1;
place = "{120.000000, 21.000000}";
target = up;
type = BottomGhost;
}
);
layerId = "3BA737DF-2981-4A42-8A92-02FACC3A7684";
name = Regular;
paths = (
{
closed = 1;
nodes = (
"15 411 LINE",
"291 297 LINE",
"15 182 LINE",
"15 99 LINE",
"375 259 LINE",
"375 334 LINE",
"15 494 LINE"
);
}
);
width = 390;
}
);
leftKerningGroup = plus;
rightKerningGroup = plus;
unicode = 003E;
},
{
color = 4;
glyphname = greaterequal;
lastChange = "2013-12-12 14:14:31 +0100";
layers = (
{
hints = (
{
horizontal = 1;
place = "{0.000000, 70.000000}";
},
{
horizontal = 1;
place = "{494.000000, -20.000000}";
target = down;
type = TopGhost;
}
);
layerId = "3BA737DF-2981-4A42-8A92-02FACC3A7684";
name = Regular;
paths = (
{
closed = 1;
nodes = (
"15 411 LINE",
"291 297 LINE",
"15 182 LINE",
"15 99 LINE",
"375 259 LINE",
"375 334 LINE",
"15 494 LINE"
);
},
{
closed = 1;
nodes = (
"15 70 LINE",
"15 0 LINE",
"375 0 LINE",
"375 70 LINE"
);
}
);
width = 390;
}
);
leftKerningGroup = plus;
rightKerningGroup = plus;
unicode = 2265;
},
{
color = 4;
glyphname = infinity;
lastChange = "2013-12-12 14:14:31 +0100";
layers = (
{
hints = (
{
place = "{10.000000, 80.000000}";
},
{
place = "{216.000000, 85.000000}";
},
{
place = "{427.000000, 80.000000}";
},
{
horizontal = 1;
place = "{191.000000, 70.000000}";
},
{
horizontal = 1;
place = "{392.000000, 70.000000}";
}
);
layerId = "3BA737DF-2981-4A42-8A92-02FACC3A7684";
name = Regular;
paths = (
{
closed = 1;
nodes = (
"316 432 OFFCURVE",
"281 415 OFFCURVE",
"259 386 CURVE",
"237 415 OFFCURVE",
"201 432 OFFCURVE",
"153 432 CURVE SMOOTH",
"56 432 OFFCURVE",
"10 382 OFFCURVE",
"10 302 CURVE SMOOTH",
"10 291 LINE SMOOTH",
"10 210 OFFCURVE",
"56 161 OFFCURVE",
"153 161 CURVE SMOOTH",
"201 161 OFFCURVE",
"237 178 OFFCURVE",
"259 207 CURVE",
"281 178 OFFCURVE",
"316 161 OFFCURVE",
"364 161 CURVE SMOOTH",
"461 161 OFFCURVE",
"507 211 OFFCURVE",
"507 291 CURVE",
"507 302 LINE SMOOTH",
"507 383 OFFCURVE",
"461 432 OFFCURVE",
"364 432 CURVE SMOOTH"
);
},
{
closed = 1;
nodes = (
"197 362 OFFCURVE",
"216 340 OFFCURVE",
"216 302 CURVE SMOOTH",
"216 291 LINE SMOOTH",
"216 253 OFFCURVE",
"197 231 OFFCURVE",
"153 231 CURVE SMOOTH",
"109 231 OFFCURVE",
"90 253 OFFCURVE",
"90 291 CURVE SMOOTH",
"90 302 LINE SMOOTH",
"90 340 OFFCURVE",
"109 362 OFFCURVE",
"153 362 CURVE SMOOTH"
);
},
{
closed = 1;
nodes = (
"408 362 OFFCURVE",
"427 340 OFFCURVE",
"427 302 CURVE SMOOTH",
"427 291 LINE SMOOTH",
"427 253 OFFCURVE",
"408 231 OFFCURVE",
"364 231 CURVE SMOOTH",
"320 231 OFFCURVE",
"301 253 OFFCURVE",
"301 291 CURVE SMOOTH",
"301 302 LINE SMOOTH",
"301 340 OFFCURVE",
"320 362 OFFCURVE",
"364 362 CURVE SMOOTH"
);
}
);
width = 517;
}
);
leftKerningGroup = plus;
rightKerningGroup = plus;
unicode = 221E;
},
{
color = 4;
glyphname = integral;
lastChange = "2013-12-12 14:14:31 +0100";
layers = (
{
hints = (
{
place = "{-15.000000, 213.000000}";
},
{
place = "{113.000000, 85.000000}";
},
{
place = "{113.000000, 213.000000}";
},
{
horizontal = 1;
place = "{-196.000000, 70.000000}";
},
{
horizontal = 1;
place = "{625.000000, 70.000000}";
}
);
layerId = "3BA737DF-2981-4A42-8A92-02FACC3A7684";
name = Regular;
paths = (
{
closed = 1;
nodes = (
"166 695 OFFCURVE",
"113 643 OFFCURVE",
"113 536 CURVE SMOOTH",
"113 -45 LINE SMOOTH",
"113 -103 OFFCURVE",
"86 -126 OFFCURVE",
"47 -126 CURVE SMOOTH",
"23 -126 OFFCURVE",
"3 -124 OFFCURVE",
"-15 -121 CURVE",
"-15 -189 LINE",
"-2 -192 OFFCURVE",
"24 -196 OFFCURVE",
"48 -196 CURVE SMOOTH",
"145 -196 OFFCURVE",
"198 -144 OFFCURVE",
"198 -37 CURVE SMOOTH",
"198 544 LINE SMOOTH",
"198 600 OFFCURVE",
"225 625 OFFCURVE",
"264 625 CURVE SMOOTH",
"288 625 OFFCURVE",
"308 623 OFFCURVE",
"326 620 CURVE",
"326 688 LINE",
"313 691 OFFCURVE",
"287 695 OFFCURVE",
"263 695 CURVE SMOOTH"
);
}
);
width = 316;
}
);
unicode = 222B;
},
{
color = 4;
glyphname = less;
lastChange = "2013-12-12 14:14:31 +0100";
layers = (
{
hints = (
{
horizontal = 1;
place = "{120.000000, 21.000000}";
target = up;
type = BottomGhost;
},
{
horizontal = 1;
place = "{494.000000, -20.000000}";
target = down;
type = TopGhost;
}
);
layerId = "3BA737DF-2981-4A42-8A92-02FACC3A7684";
name = Regular;
paths = (
{
closed = 1;
nodes = (
"15 334 LINE",
"15 259 LINE",
"375 99 LINE",
"375 182 LINE",
"99 297 LINE",
"375 411 LINE",
"375 494 LINE"
);
}
);
width = 390;
}
);
leftKerningGroup = plus;
rightKerningGroup = plus;
unicode = 003C;
},
{
color = 4;
glyphname = lessequal;
lastChange = "2013-12-12 14:14:31 +0100";
layers = (
{
hints = (
{
horizontal = 1;
place = "{0.000000, 70.000000}";
},
{
horizontal = 1;
place = "{494.000000, -20.000000}";
target = down;
type = TopGhost;
}
);
layerId = "3BA737DF-2981-4A42-8A92-02FACC3A7684";
name = Regular;
paths = (
{
closed = 1;
nodes = (
"15 334 LINE",
"15 259 LINE",
"375 99 LINE",
"375 182 LINE",
"99 297 LINE",
"375 411 LINE",
"375 494 LINE"
);
},
{
closed = 1;
nodes = (
"15 70 LINE",
"15 0 LINE",
"375 0 LINE",
"375 70 LINE"
);
}
);
width = 390;
}
);
leftKerningGroup = plus;
rightKerningGroup = plus;
unicode = 2264;
},
{
color = 4;
glyphname = logicalnot;
lastChange = "2013-12-12 14:14:31 +0100";
layers = (
{
hints = (
{
place = "{299.000000, 76.000000}";
},
{
horizontal = 1;
place = "{113.000000, 222.000000}";
},
{
horizontal = 1;
place = "{265.000000, 70.000000}";
}
);
layerId = "3BA737DF-2981-4A42-8A92-02FACC3A7684";
name = Regular;
paths = (
{
closed = 1;
nodes = (
"14 335 LINE",
"14 265 LINE",
"299 265 LINE",
"299 113 LINE",
"375 113 LINE",
"375 335 LINE"
);
}
);
width = 390;
}
);
leftKerningGroup = plus;
rightKerningGroup = plus;
unicode = 00AC;
},
{
color = 4;
glyphname = minus;
lastChange = "2013-12-12 14:14:31 +0100";
layers = (
{
hints = (
{
horizontal = 1;
place = "{265.000000, 70.000000}";
}
);
layerId = "3BA737DF-2981-4A42-8A92-02FACC3A7684";
name = Regular;
paths = (
{
closed = 1;
nodes = (
"18 335 LINE",
"18 265 LINE",
"372 265 LINE",
"372 335 LINE"
);
}
);
width = 390;
}
);
leftKerningGroup = plus;
rightKerningGroup = plus;
unicode = 2212;
},
{
color = 4;
glyphname = multiply;
lastChange = "2013-12-12 14:14:31 +0100";
layers = (
{
hints = (
{
horizontal = 1;
place = "{460.000000, -20.000000}";
target = down;
type = TopGhost;
},
{
horizontal = 1;
place = "{162.000000, 21.000000}";
target = up;
type = BottomGhost;
}
);
layerId = "3BA737DF-2981-4A42-8A92-02FACC3A7684";
name = Regular;
paths = (
{
closed = 1;
nodes = (
"196 352 LINE",
"88 460 LINE",
"35 406 LINE",
"142 298 LINE",
"37 193 LINE",
"87 143 LINE",
"192 248 LINE",
"300 141 LINE",
"354 194 LINE",
"246 302 LINE",
"352 408 LINE",
"302 458 LINE"
);
}
);
width = 390;
}
);
unicode = 00D7;
},
{
color = 4;
glyphname = notequal;
lastChange = "2013-12-12 14:14:31 +0100";
layers = (
{
hints = (
{
horizontal = 1;
place = "{115.000000, 135.000000}";
},
{
horizontal = 1;
place = "{180.000000, 70.000000}";
},
{
horizontal = 1;
place = "{351.000000, 70.000000}";
},
{
horizontal = 1;
place = "{351.000000, 133.000000}";
}
);
layerId = "3BA737DF-2981-4A42-8A92-02FACC3A7684";
name = Regular;
paths = (
{
closed = 1;
nodes = (
"272 484 LINE",
"232 421 LINE",
"18 421 LINE",
"18 351 LINE",
"189 351 LINE",
"126 250 LINE",
"18 250 LINE",
"18 180 LINE",
"82 180 LINE",
"42 115 LINE",
"118 115 LINE",
"158 180 LINE",
"372 180 LINE",
"372 250 LINE",
"202 250 LINE",
"265 351 LINE",
"372 351 LINE",
"372 421 LINE",
"308 421 LINE",
"348 484 LINE"
);
}
);
width = 390;
}
);
leftKerningGroup = plus;
rightKerningGroup = plus;
unicode = 2260;
},
{
color = 4;
glyphname = partialdiff;
lastChange = "2013-12-12 14:14:31 +0100";
layers = (
{
hints = (
{
place = "{55.000000, 85.000000}";
},
{
place = "{316.000000, 85.000000}";
},
{
horizontal = 1;
place = "{-12.000000, 71.000000}";
},
{
horizontal = 1;
place = "{363.000000, 76.000000}";
},
{
horizontal = 1;
place = "{631.000000, 64.000000}";
}
);
layerId = "3BA737DF-2981-4A42-8A92-02FACC3A7684";
name = Regular;
paths = (
{
closed = 1;
nodes = (
"95 631 LINE",
"219 631 OFFCURVE",
"316 543 OFFCURVE",
"316 386 CURVE SMOOTH",
"316 361 LINE",
"278 415 OFFCURVE",
"233 439 OFFCURVE",
"188 439 CURVE SMOOTH",
"106 439 OFFCURVE",
"55 383 OFFCURVE",
"55 272 CURVE SMOOTH",
"55 157 LINE SMOOTH",
"55 41 OFFCURVE",
"107 -12 OFFCURVE",
"228 -12 CURVE SMOOTH",
"342 -12 OFFCURVE",
"401 53 OFFCURVE",
"401 170 CURVE SMOOTH",
"401 340 LINE SMOOTH",
"401 579 OFFCURVE",
"292 695 OFFCURVE",
"95 695 CURVE"
);
},
{
closed = 1;
nodes = (
"241 363 OFFCURVE",
"283 336 OFFCURVE",
"316 281 CURVE",
"316 148 LINE SMOOTH",
"316 90 OFFCURVE",
"288 59 OFFCURVE",
"228 59 CURVE SMOOTH",
"171 59 OFFCURVE",
"140 87 OFFCURVE",
"140 148 CURVE SMOOTH",
"140 260 LINE SMOOTH",
"140 333 OFFCURVE",
"166 363 OFFCURVE",
"205 363 CURVE SMOOTH"
);
}
);
width = 461;
}
);
unicode = 2202;
},
{
color = 4;
glyphname = percent;
lastChange = "2013-12-12 14:14:31 +0100";
layers = (
{
hints = (
{
place = "{45.000000, 85.000000}";
},
{
place = "{275.000000, 85.000000}";
},
{
place = "{515.000000, 85.000000}";
},
{
place = "{745.000000, 85.000000}";
},
{
horizontal = 1;
place = "{-12.000000, 75.000000}";
},
{
horizontal = 1;
place = "{263.000000, 75.000000}";
},
{
horizontal = 1;
place = "{275.000000, 63.000000}";
},
{
horizontal = 1;
place = "{550.000000, 75.000000}";
},
{
horizontal = 1;
place = "{275.000000, 75.000000}";
},
{
horizontal = 1;
place = "{0.000000, -20.000000}";
target = down;
type = TopGhost;
}
);
layerId = "3BA737DF-2981-4A42-8A92-02FACC3A7684";
name = Regular;
paths = (
{
closed = 1;
nodes = (
"562 613 LINE",
"227 0 LINE",
"314 0 LINE",
"649 613 LINE"
);
},
{
closed = 1;
nodes = (
"98 625 OFFCURVE",
"45 567 OFFCURVE",
"45 465 CURVE SMOOTH",
"45 435 LINE SMOOTH",
"45 333 OFFCURVE",
"98 275 OFFCURVE",
"203 275 CURVE SMOOTH",
"308 275 OFFCURVE",
"360 333 OFFCURVE",
"360 435 CURVE",
"360 465 LINE SMOOTH",
"360 567 OFFCURVE",
"308 625 OFFCURVE",
"203 625 CURVE SMOOTH"
);
},
{
closed = 1;
nodes = (
"251 550 OFFCURVE",
"275 526 OFFCURVE",
"275 465 CURVE SMOOTH",
"275 435 LINE SMOOTH",
"275 375 OFFCURVE",
"251 350 OFFCURVE",
"203 350 CURVE SMOOTH",
"154 350 OFFCURVE",
"130 375 OFFCURVE",
"130 435 CURVE SMOOTH",
"130 465 LINE SMOOTH",
"130 525 OFFCURVE",
"155 550 OFFCURVE",
"203 550 CURVE SMOOTH"
);
},
{
closed = 1;
nodes = (
"568 338 OFFCURVE",
"515 280 OFFCURVE",
"515 178 CURVE SMOOTH",
"515 148 LINE SMOOTH",
"515 46 OFFCURVE",
"568 -12 OFFCURVE",
"673 -12 CURVE SMOOTH",
"778 -12 OFFCURVE",
"830 46 OFFCURVE",
"830 148 CURVE",
"830 178 LINE SMOOTH",
"830 280 OFFCURVE",
"778 338 OFFCURVE",
"673 338 CURVE SMOOTH"
);
},
{
closed = 1;
nodes = (
"721 263 OFFCURVE",
"745 239 OFFCURVE",
"745 178 CURVE SMOOTH",
"745 148 LINE SMOOTH",
"745 88 OFFCURVE",
"721 63 OFFCURVE",
"673 63 CURVE SMOOTH",
"624 63 OFFCURVE",
"600 88 OFFCURVE",
"600 148 CURVE SMOOTH",
"600 178 LINE SMOOTH",
"600 238 OFFCURVE",
"625 263 OFFCURVE",
"673 263 CURVE SMOOTH"
);
}
);
width = 860;
}
);
unicode = 0025;
},
{
color = 4;
glyphname = perthousand;
lastChange = "2013-12-12 14:14:31 +0100";
layers = (
{
hints = (
{
place = "{45.000000, 85.000000}";
},
{
place = "{275.000000, 85.000000}";
},
{
place = "{515.000000, 85.000000}";
},
{
place = "{745.000000, 85.000000}";
},
{
place = "{895.000000, 85.000000}";
},
{
place = "{1125.000000, 85.000000}";
},
{
horizontal = 1;
place = "{-12.000000, 75.000000}";
},
{
horizontal = 1;
place = "{263.000000, 75.000000}";
},
{
horizontal = 1;
place = "{275.000000, 63.000000}";
},
{
horizontal = 1;
place = "{550.000000, 75.000000}";
},
{
horizontal = 1;
place = "{275.000000, 75.000000}";
},
{
horizontal = 1;
place = "{0.000000, -20.000000}";
target = down;
type = TopGhost;
}
);
layerId = "3BA737DF-2981-4A42-8A92-02FACC3A7684";
name = Regular;
paths = (
{
closed = 1;
nodes = (
"562 613 LINE",
"227 0 LINE",
"314 0 LINE",
"649 613 LINE"
);
},
{
closed = 1;
nodes = (
"98 625 OFFCURVE",
"45 567 OFFCURVE",
"45 465 CURVE SMOOTH",
"45 435 LINE SMOOTH",
"45 333 OFFCURVE",
"98 275 OFFCURVE",
"203 275 CURVE SMOOTH",
"308 275 OFFCURVE",
"360 333 OFFCURVE",
"360 435 CURVE",
"360 465 LINE SMOOTH",
"360 567 OFFCURVE",
"308 625 OFFCURVE",
"203 625 CURVE SMOOTH"
);
},
{
closed = 1;
nodes = (
"251 550 OFFCURVE",
"275 526 OFFCURVE",
"275 465 CURVE SMOOTH",
"275 435 LINE SMOOTH",
"275 375 OFFCURVE",
"251 350 OFFCURVE",
"203 350 CURVE SMOOTH",
"154 350 OFFCURVE",
"130 375 OFFCURVE",
"130 435 CURVE SMOOTH",
"130 465 LINE SMOOTH",
"130 525 OFFCURVE",
"155 550 OFFCURVE",
"203 550 CURVE SMOOTH"
);
},
{
closed = 1;
nodes = (
"568 338 OFFCURVE",
"515 280 OFFCURVE",
"515 178 CURVE SMOOTH",
"515 148 LINE SMOOTH",
"515 46 OFFCURVE",
"568 -12 OFFCURVE",
"673 -12 CURVE SMOOTH",
"778 -12 OFFCURVE",
"830 46 OFFCURVE",
"830 148 CURVE",
"830 178 LINE SMOOTH",
"830 280 OFFCURVE",
"778 338 OFFCURVE",
"673 338 CURVE SMOOTH"
);
},
{
closed = 1;
nodes = (
"721 263 OFFCURVE",
"745 239 OFFCURVE",
"745 178 CURVE SMOOTH",
"745 148 LINE SMOOTH",
"745 88 OFFCURVE",
"721 63 OFFCURVE",
"673 63 CURVE SMOOTH",
"624 63 OFFCURVE",
"600 88 OFFCURVE",
"600 148 CURVE SMOOTH",
"600 178 LINE SMOOTH",
"600 238 OFFCURVE",
"625 263 OFFCURVE",
"673 263 CURVE SMOOTH"
);
},
{
closed = 1;
nodes = (
"948 338 OFFCURVE",
"895 280 OFFCURVE",
"895 178 CURVE SMOOTH",
"895 148 LINE SMOOTH",
"895 46 OFFCURVE",
"948 -12 OFFCURVE",
"1053 -12 CURVE SMOOTH",
"1158 -12 OFFCURVE",
"1210 46 OFFCURVE",
"1210 148 CURVE",
"1210 178 LINE SMOOTH",
"1210 280 OFFCURVE",
"1158 338 OFFCURVE",
"1053 338 CURVE SMOOTH"
);
},
{
closed = 1;
nodes = (
"1101 263 OFFCURVE",
"1125 239 OFFCURVE",
"1125 178 CURVE SMOOTH",
"1125 148 LINE SMOOTH",
"1125 88 OFFCURVE",
"1101 63 OFFCURVE",
"1053 63 CURVE SMOOTH",
"1004 63 OFFCURVE",
"980 88 OFFCURVE",
"980 148 CURVE SMOOTH",
"980 178 LINE SMOOTH",
"980 238 OFFCURVE",
"1005 263 OFFCURVE",
"1053 263 CURVE SMOOTH"
);
}
);
width = 1240;
}
);
unicode = 2030;
},
{
color = 4;
glyphname = plus;
lastChange = "2013-12-12 14:14:31 +0100";
layers = (
{
hints = (
{
place = "{157.000000, 76.000000}";
},
{
horizontal = 1;
place = "{265.000000, 71.000000}";
},
{
horizontal = 1;
place = "{488.000000, -20.000000}";
target = down;
type = TopGhost;
},
{
horizontal = 1;
place = "{134.000000, 21.000000}";
target = up;
type = BottomGhost;
}
);
layerId = "3BA737DF-2981-4A42-8A92-02FACC3A7684";
name = Regular;
paths = (
{
closed = 1;
nodes = (
"157 488 LINE",
"157 336 LINE",
"17 336 LINE",
"17 265 LINE",
"157 265 LINE",
"157 113 LINE",
"233 113 LINE",
"233 265 LINE",
"373 265 LINE",
"373 336 LINE",
"233 336 LINE",
"233 488 LINE"
);
}
);
width = 390;
}
);
leftKerningGroup = plus;
rightKerningGroup = plus;
unicode = 002B;
},
{
color = 4;
glyphname = plusminus;
lastChange = "2013-12-12 14:14:31 +0100";
layers = (
{
hints = (
{
place = "{157.000000, 76.000000}";
},
{
horizontal = 1;
place = "{0.000000, 70.000000}";
},
{
horizontal = 1;
place = "{265.000000, 71.000000}";
},
{
horizontal = 1;
place = "{488.000000, -20.000000}";
target = down;
type = TopGhost;
}
);
layerId = "3BA737DF-2981-4A42-8A92-02FACC3A7684";
name = Regular;
paths = (
{
closed = 1;
nodes = (
"157 488 LINE",
"157 336 LINE",
"17 336 LINE",
"17 265 LINE",
"157 265 LINE",
"157 113 LINE",
"233 113 LINE",
"233 265 LINE",
"373 265 LINE",
"373 336 LINE",
"233 336 LINE",
"233 488 LINE"
);
},
{
closed = 1;
nodes = (
"16 70 LINE",
"16 0 LINE",
"372 0 LINE",
"372 70 LINE"
);
}
);
width = 390;
}
);
leftKerningGroup = plus;
rightKerningGroup = plus;
unicode = 00B1;
},
{
color = 4;
glyphname = product;
lastChange = "2013-12-12 14:14:31 +0100";
layers = (
{
hints = (
{
place = "{85.000000, 85.000000}";
},
{
place = "{405.000000, 85.000000}";
},
{
horizontal = 1;
place = "{575.000000, 80.000000}";
},
{
horizontal = 1;
place = "{-164.000000, 21.000000}";
target = up;
type = BottomGhost;
}
);
layerId = "3BA737DF-2981-4A42-8A92-02FACC3A7684";
name = Regular;
paths = (
{
closed = 1;
nodes = (
"-5 655 LINE",
"-5 575 LINE",
"85 575 LINE",
"85 -185 LINE",
"170 -185 LINE",
"170 575 LINE",
"405 575 LINE",
"405 -185 LINE",
"490 -185 LINE",
"490 575 LINE",
"580 575 LINE",
"580 655 LINE"
);
}
);
width = 575;
}
);
unicode = 220F;
},
{
color = 4;
glyphname = radical;
lastChange = "2013-12-12 14:14:31 +0100";
layers = (
{
hints = (
{
horizontal = 1;
place = "{613.000000, 70.000000}";
},
{
horizontal = 1;
place = "{488.000000, -20.000000}";
target = down;
type = TopGhost;
},
{
horizontal = 1;
place = "{21.000000, 21.000000}";
target = up;
type = BottomGhost;
}
);
layerId = "3BA737DF-2981-4A42-8A92-02FACC3A7684";
name = Regular;
paths = (
{
closed = 1;
nodes = (
"415 683 LINE",
"220 62 LINE",
"110 488 LINE",
"20 488 LINE",
"164 0 LINE",
"274 0 LINE",
"476 613 LINE",
"560 613 LINE",
"560 683 LINE"
);
}
);
width = 480;
}
);
unicode = 221A;
},
{
color = 4;
glyphname = summation;
lastChange = "2013-12-12 14:14:31 +0100";
layers = (
{
hints = (
{
horizontal = 1;
place = "{-185.000000, 77.000000}";
},
{
horizontal = 1;
place = "{578.000000, 77.000000}";
}
);
layerId = "3BA737DF-2981-4A42-8A92-02FACC3A7684";
name = Regular;
paths = (
{
closed = 1;
nodes = (
"5 655 LINE",
"5 588 LINE",
"208 236 LINE",
"5 -118 LINE",
"5 -185 LINE",
"394 -185 LINE",
"394 -108 LINE",
"103 -108 LINE",
"295 217 LINE",
"295 256 LINE",
"106 578 LINE",
"394 578 LINE",
"394 655 LINE"
);
}
);
width = 399;
}
);
unicode = 2211;
},
{
color = 4;
glyphname = uni00B5;
lastChange = "2013-12-12 14:41:32 +0100";
layers = (
{
layerId = "3BA737DF-2981-4A42-8A92-02FACC3A7684";
name = Regular;
paths = (
{
closed = 1;
nodes = (
"325 488 LINE",
"325 148 LINE",
"295 97 OFFCURVE",
"254 67 OFFCURVE",
"217 67 CURVE SMOOTH",
"180 67 OFFCURVE",
"155 97 OFFCURVE",
"155 170 CURVE SMOOTH",
"155 488 LINE",
"70 488 LINE",
"70 -185 LINE",
"152 -185 LINE",
"152 4 LINE",
"168 -6 OFFCURVE",
"187 -12 OFFCURVE",
"205 -12 CURVE SMOOTH",
"248 -12 OFFCURVE",
"294 17 OFFCURVE",
"330 70 CURVE",
"330 0 LINE",
"410 0 LINE",
"410 488 LINE"
);
}
);
width = 480;
}
);
unicode = 00B5;
},
{
color = 4;
glyphname = uni2126;
lastChange = "2013-12-12 14:37:51 +0100";
layers = (
{
layerId = "3BA737DF-2981-4A42-8A92-02FACC3A7684";
name = Regular;
paths = (
{
closed = 1;
nodes = (
"139 667 OFFCURVE",
"70 587 OFFCURVE",
"70 455 CURVE SMOOTH",
"70 241 LINE SMOOTH",
"70 164 OFFCURVE",
"81 121 OFFCURVE",
"133 80 CURVE",
"60 80 LINE",
"60 0 LINE",
"260 0 LINE",
"260 77 LINE",
"251 77 LINE SMOOTH",
"192 77 OFFCURVE",
"155 133 OFFCURVE",
"155 214 CURVE SMOOTH",
"155 465 LINE SMOOTH",
"155 550 OFFCURVE",
"204 594 OFFCURVE",
"289 594 CURVE SMOOTH",
"374 594 OFFCURVE",
"423 550 OFFCURVE",
"423 465 CURVE SMOOTH",
"423 214 LINE SMOOTH",
"423 133 OFFCURVE",
"386 77 OFFCURVE",
"327 77 CURVE SMOOTH",
"318 77 LINE",
"318 0 LINE",
"518 0 LINE",
"518 80 LINE",
"445 80 LINE",
"497 121 OFFCURVE",
"508 164 OFFCURVE",
"508 241 CURVE SMOOTH",
"508 455 LINE SMOOTH",
"508 587 OFFCURVE",
"439 667 OFFCURVE",
"289 667 CURVE SMOOTH"
);
}
);
width = 578;
}
);
unicode = 2126;
},
{
color = 4;
glyphname = uni2206;
lastChange = "2013-12-12 14:42:21 +0100";
layers = (
{
layerId = "3BA737DF-2981-4A42-8A92-02FACC3A7684";
name = Regular;
paths = (
{
closed = 1;
nodes = (
"214 655 LINE",
"24 55 LINE",
"24 0 LINE",
"506 0 LINE",
"506 57 LINE",
"315 655 LINE"
);
},
{
closed = 1;
nodes = (
"409 76 LINE",
"115 76 LINE",
"265 577 LINE"
);
}
);
width = 530;
}
);
unicode = 2206;
},
{
color = 4;
glyphname = uni2215;
lastChange = "2013-12-12 14:42:49 +0100";
layers = (
{
layerId = "3BA737DF-2981-4A42-8A92-02FACC3A7684";
name = Regular;
paths = (
{
closed = 1;
nodes = (
"188 683 LINE",
"-17 0 LINE",
"68 0 LINE",
"273 683 LINE"
);
}
);
width = 255;
}
);
unicode = 2215;
},
{
color = 4;
glyphname = uni2219;
lastChange = "2013-12-12 14:57:22 +0100";
layers = (
{
hints = (
{
place = "{55.000000, 125.000000}";
},
{
horizontal = 1;
place = "{200.000000, 135.000000}";
}
);
layerId = "3BA737DF-2981-4A42-8A92-02FACC3A7684";
name = Regular;
paths = (
{
closed = 1;
nodes = (
"78 335 OFFCURVE",
"55 317 OFFCURVE",
"55 284 CURVE SMOOTH",
"55 251 LINE SMOOTH",
"55 218 OFFCURVE",
"78 200 OFFCURVE",
"117 200 CURVE SMOOTH",
"157 200 OFFCURVE",
"180 218 OFFCURVE",
"180 251 CURVE SMOOTH",
"180 284 LINE SMOOTH",
"180 317 OFFCURVE",
"157 335 OFFCURVE",
"117 335 CURVE SMOOTH"
);
}
);
width = 235;
}
);
unicode = 2219;
},
{
color = 4;
glyphname = lozenge;
lastChange = "2013-12-12 14:14:31 +0100";
layers = (
{
hints = (
{
horizontal = 1;
place = "{683.000000, -20.000000}";
target = down;
type = TopGhost;
},
{
horizontal = 1;
place = "{21.000000, 21.000000}";
target = up;
type = BottomGhost;
}
);
layerId = "3BA737DF-2981-4A42-8A92-02FACC3A7684";
name = Regular;
paths = (
{
closed = 1;
nodes = (
"235 683 LINE",
"5 342 LINE",
"235 0 LINE",
"303 0 LINE",
"533 342 LINE",
"303 683 LINE"
);
},
{
closed = 1;
nodes = (
"431 342 LINE",
"269 90 LINE",
"107 342 LINE",
"269 593 LINE"
);
}
);
width = 538;
}
);
unicode = 25CA;
},
{
color = 4;
glyphname = ampersand;
lastChange = "2013-12-12 14:14:31 +0100";
layers = (
{
hints = (
{
place = "{40.000000, 85.000000}";
},
{
place = "{65.000000, 83.000000}";
},
{
place = "{374.000000, 82.000000}";
},
{
horizontal = 1;
place = "{-12.000000, 72.000000}";
},
{
horizontal = 1;
place = "{298.000000, 69.000000}";
},
{
horizontal = 1;
place = "{596.000000, 71.000000}";
}
);
layerId = "3BA737DF-2981-4A42-8A92-02FACC3A7684";
name = Regular;
paths = (
{
closed = 1;
nodes = (
"129 667 OFFCURVE",
"65 596 OFFCURVE",
"65 507 CURVE SMOOTH",
"65 485 LINE SMOOTH",
"65 421 OFFCURVE",
"91 369 OFFCURVE",
"157 340 CURVE",
"82 317 OFFCURVE",
"40 258 OFFCURVE",
"40 184 CURVE SMOOTH",
"40 162 LINE SMOOTH",
"40 58 OFFCURVE",
"97 -12 OFFCURVE",
"273 -12 CURVE SMOOTH",
"334 -12 OFFCURVE",
"370 -5 OFFCURVE",
"456 13 CURVE",
"456 298 LINE",
"530 298 LINE",
"530 367 LINE",
"456 367 LINE",
"456 440 LINE",
"374 440 LINE",
"374 367 LINE",
"273 367 LINE SMOOTH",
"191 367 OFFCURVE",
"148 410 OFFCURVE",
"148 478 CURVE SMOOTH",
"148 500 LINE SMOOTH",
"148 561 OFFCURVE",
"178 596 OFFCURVE",
"250 596 CURVE SMOOTH",
"292 596 OFFCURVE",
"332 591 OFFCURVE",
"366 585 CURVE",
"368 656 LINE",
"323 663 OFFCURVE",
"287 667 OFFCURVE",
"250 667 CURVE SMOOTH"
);
},
{
closed = 1;
nodes = (
"374 73 LINE",
"334 64 OFFCURVE",
"307 60 OFFCURVE",
"273 60 CURVE SMOOTH",
"171 60 OFFCURVE",
"125 98 OFFCURVE",
"125 161 CURVE SMOOTH",
"125 188 LINE SMOOTH",
"125 255 OFFCURVE",
"170 298 OFFCURVE",
"267 298 CURVE SMOOTH",
"374 298 LINE"
);
}
);
width = 540;
}
);
unicode = 0026;
},
{
color = 4;
glyphname = asciicircum;
lastChange = "2013-12-12 14:14:31 +0100";
layers = (
{
hints = (
{
horizontal = 1;
place = "{424.000000, 21.000000}";
target = up;
type = BottomGhost;
},
{
horizontal = 1;
place = "{683.000000, -20.000000}";
target = down;
type = TopGhost;
}
);
layerId = "3BA737DF-2981-4A42-8A92-02FACC3A7684";
name = Regular;
paths = (
{
closed = 1;
nodes = (
"210 683 LINE",
"65 403 LINE",
"148 403 LINE",
"247 604 LINE",
"347 403 LINE",
"430 403 LINE",
"285 683 LINE"
);
}
);
width = 495;
}
);
unicode = 005E;
},
{
color = 4;
glyphname = at;
lastChange = "2013-12-12 14:14:31 +0100";
layers = (
{
hints = (
{
place = "{60.000000, 85.000000}";
},
{
place = "{785.000000, 85.000000}";
},
{
horizontal = 1;
place = "{-185.000000, 76.000000}";
},
{
horizontal = 1;
place = "{15.000000, 75.000000}";
},
{
horizontal = 1;
place = "{412.000000, 76.000000}";
},
{
horizontal = 1;
place = "{619.000000, 76.000000}";
}
);
layerId = "3BA737DF-2981-4A42-8A92-02FACC3A7684";
name = Regular;
paths = (
{
closed = 1;
nodes = (
"182 695 OFFCURVE",
"60 527 OFFCURVE",
"60 288 CURVE SMOOTH",
"60 188 LINE SMOOTH",
"60 -54 OFFCURVE",
"185 -185 OFFCURVE",
"455 -185 CURVE SMOOTH",
"590 -185 LINE",
"590 -109 LINE",
"455 -109 LINE SMOOTH",
"249 -109 OFFCURVE",
"145 -6 OFFCURVE",
"145 188 CURVE SMOOTH",
"145 288 LINE SMOOTH",
"145 501 OFFCURVE",
"260 619 OFFCURVE",
"455 619 CURVE SMOOTH",
"675 619 OFFCURVE",
"785 515 OFFCURVE",
"785 318 CURVE SMOOTH",
"785 268 LINE SMOOTH",
"785 164 OFFCURVE",
"728 90 OFFCURVE",
"658 90 CURVE SMOOTH",
"613 90 OFFCURVE",
"606 116 OFFCURVE",
"608 155 CURVE",
"649 475 LINE",
"569 475 LINE",
"564 434 LINE",
"537 461 OFFCURVE",
"488 488 OFFCURVE",
"442 488 CURVE SMOOTH",
"356 488 OFFCURVE",
"298 429 OFFCURVE",
"284 320 CURVE SMOOTH",
"266 182 LINE SMOOTH",
"252 76 OFFCURVE",
"292 15 OFFCURVE",
"377 15 CURVE SMOOTH",
"427 15 OFFCURVE",
"484 52 OFFCURVE",
"531 109 CURVE",
"539 50 OFFCURVE",
"582 15 OFFCURVE",
"657 15 CURVE SMOOTH",
"790 15 OFFCURVE",
"870 121 OFFCURVE",
"870 268 CURVE SMOOTH",
"870 318 LINE SMOOTH",
"870 566 OFFCURVE",
"738 695 OFFCURVE",
"455 695 CURVE SMOOTH"
);
},
{
closed = 1;
nodes = (
"486 412 OFFCURVE",
"525 392 OFFCURVE",
"549 363 CURVE",
"527 182 LINE",
"488 123 OFFCURVE",
"442 91 OFFCURVE",
"403 91 CURVE SMOOTH",
"364 91 OFFCURVE",
"342 120 OFFCURVE",
"352 193 CURVE SMOOTH",
"367 308 LINE SMOOTH",
"377 381 OFFCURVE",
"410 412 OFFCURVE",
"455 412 CURVE SMOOTH"
);
}
);
width = 930;
}
);
unicode = 0040;
},
{
color = 4;
glyphname = bar;
lastChange = "2013-12-12 14:14:31 +0100";
layers = (
{
hints = (
{
place = "{70.000000, 85.000000}";
},
{
horizontal = 1;
place = "{-83.000000, 21.000000}";
target = up;
type = BottomGhost;
},
{
horizontal = 1;
place = "{758.000000, -20.000000}";
target = down;
type = TopGhost;
}
);
layerId = "3BA737DF-2981-4A42-8A92-02FACC3A7684";
name = Regular;
paths = (
{
closed = 1;
nodes = (
"70 758 LINE",
"70 -104 LINE",
"155 -104 LINE",
"155 758 LINE"
);
}
);
width = 225;
}
);
unicode = 007C;
},
{
color = 4;
glyphname = brokenbar;
lastChange = "2013-12-12 14:14:31 +0100";
layers = (
{
hints = (
{
place = "{70.000000, 85.000000}";
},
{
horizontal = 1;
place = "{758.000000, -20.000000}";
target = down;
type = TopGhost;
},
{
horizontal = 1;
place = "{-83.000000, 21.000000}";
target = up;
type = BottomGhost;
}
);
layerId = "3BA737DF-2981-4A42-8A92-02FACC3A7684";
name = Regular;
paths = (
{
closed = 1;
nodes = (
"70 758 LINE",
"70 388 LINE",
"155 388 LINE",
"155 758 LINE"
);
},
{
closed = 1;
nodes = (
"70 266 LINE",
"70 -104 LINE",
"155 -104 LINE",
"155 266 LINE"
);
}
);
width = 225;
}
);
unicode = 00A6;
},
{
color = 4;
glyphname = copyright;
lastChange = "2013-12-12 14:14:31 +0100";
layers = (
{
hints = (
{
place = "{70.000000, 71.000000}";
},
{
place = "{203.000000, 81.000000}";
},
{
place = "{505.000000, 71.000000}";
},
{
place = "{203.000000, 215.000000}";
},
{
horizontal = 1;
place = "{-15.000000, 66.000000}";
},
{
horizontal = 1;
place = "{129.000000, 68.000000}";
},
{
horizontal = 1;
place = "{412.000000, 68.000000}";
},
{
horizontal = 1;
place = "{550.000000, 66.000000}";
}
);
layerId = "3BA737DF-2981-4A42-8A92-02FACC3A7684";
name = Regular;
paths = (
{
closed = 1;
nodes = (
"143 616 OFFCURVE",
"70 526 OFFCURVE",
"70 404 CURVE SMOOTH",
"70 197 LINE SMOOTH",
"70 75 OFFCURVE",
"143 -15 OFFCURVE",
"323 -15 CURVE SMOOTH",
"503 -15 OFFCURVE",
"576 75 OFFCURVE",
"576 197 CURVE SMOOTH",
"576 404 LINE SMOOTH",
"576 526 OFFCURVE",
"503 616 OFFCURVE",
"323 616 CURVE SMOOTH"
);
},
{
closed = 1;
nodes = (
"250 480 OFFCURVE",
"203 429 OFFCURVE",
"203 333 CURVE SMOOTH",
"203 277 LINE SMOOTH",
"203 179 OFFCURVE",
"249 129 OFFCURVE",
"341 129 CURVE SMOOTH",
"366 129 OFFCURVE",
"385 131 OFFCURVE",
"419 136 CURVE",
"417 202 LINE",
"392 199 OFFCURVE",
"370 197 OFFCURVE",
"341 197 CURVE SMOOTH",
"306 197 OFFCURVE",
"284 224 OFFCURVE",
"284 278 CURVE SMOOTH",
"284 333 LINE SMOOTH",
"284 388 OFFCURVE",
"306 412 OFFCURVE",
"341 412 CURVE SMOOTH",
"370 412 OFFCURVE",
"392 410 OFFCURVE",
"417 407 CURVE",
"419 473 LINE",
"395 477 OFFCURVE",
"366 480 OFFCURVE",
"341 480 CURVE SMOOTH"
);
},
{
closed = 1;
nodes = (
"440 550 OFFCURVE",
"505 496 OFFCURVE",
"505 416 CURVE SMOOTH",
"505 186 LINE SMOOTH",
"505 106 OFFCURVE",
"440 51 OFFCURVE",
"323 51 CURVE SMOOTH",
"206 51 OFFCURVE",
"141 106 OFFCURVE",
"141 186 CURVE SMOOTH",
"141 415 LINE SMOOTH",
"141 495 OFFCURVE",
"206 550 OFFCURVE",
"323 550 CURVE SMOOTH"
);
}
);
width = 646;
}
);
unicode = 00A9;
},
{
color = 4;
glyphname = dagger;
lastChange = "2013-12-12 14:14:31 +0100";
layers = (
{
hints = (
{
place = "{167.000000, 85.000000}";
},
{
horizontal = 1;
place = "{408.000000, 80.000000}";
},
{
horizontal = 1;
place = "{655.000000, -20.000000}";
target = down;
type = TopGhost;
},
{
horizontal = 1;
place = "{21.000000, 21.000000}";
target = up;
type = BottomGhost;
}
);
layerId = "3BA737DF-2981-4A42-8A92-02FACC3A7684";
name = Regular;
paths = (
{
closed = 1;
nodes = (
"167 655 LINE",
"167 488 LINE",
"15 488 LINE",
"15 408 LINE",
"167 408 LINE",
"167 0 LINE",
"252 0 LINE",
"252 408 LINE",
"404 408 LINE",
"404 488 LINE",
"252 488 LINE",
"252 655 LINE"
);
}
);
width = 419;
}
);
unicode = 2020;
},
{
color = 4;
glyphname = daggerdbl;
lastChange = "2013-12-12 14:14:31 +0100";
layers = (
{
hints = (
{
place = "{177.000000, 85.000000}";
},
{
horizontal = 1;
place = "{188.000000, 80.000000}";
},
{
horizontal = 1;
place = "{408.000000, 80.000000}";
},
{
horizontal = 1;
place = "{655.000000, -20.000000}";
target = down;
type = TopGhost;
},
{
horizontal = 1;
place = "{21.000000, 21.000000}";
target = up;
type = BottomGhost;
}
);
layerId = "3BA737DF-2981-4A42-8A92-02FACC3A7684";
name = Regular;
paths = (
{
closed = 1;
nodes = (
"177 655 LINE",
"177 488 LINE",
"25 488 LINE",
"25 408 LINE",
"177 408 LINE",
"177 268 LINE",
"25 268 LINE",
"25 188 LINE",
"177 188 LINE",
"177 0 LINE",
"262 0 LINE",
"262 188 LINE",
"414 188 LINE",
"414 268 LINE",
"262 268 LINE",
"262 408 LINE",
"414 408 LINE",
"414 488 LINE",
"262 488 LINE",
"262 655 LINE"
);
}
);
width = 439;
}
);
unicode = 2021;
},
{
color = 4;
glyphname = degree;
lastChange = "2013-12-12 14:14:31 +0100";
layers = (
{
hints = (
{
place = "{35.000000, 77.000000}";
},
{
place = "{277.000000, 77.000000}";
},
{
horizontal = 1;
place = "{339.000000, 69.000000}";
},
{
horizontal = 1;
place = "{626.000000, 69.000000}";
}
);
layerId = "3BA737DF-2981-4A42-8A92-02FACC3A7684";
name = Regular;
paths = (
{
closed = 1;
nodes = (
"89 695 OFFCURVE",
"35 636 OFFCURVE",
"35 528 CURVE SMOOTH",
"35 506 LINE SMOOTH",
"35 398 OFFCURVE",
"89 339 OFFCURVE",
"195 339 CURVE SMOOTH",
"301 339 OFFCURVE",
"354 398 OFFCURVE",
"354 506 CURVE",
"354 528 LINE SMOOTH",
"354 636 OFFCURVE",
"301 695 OFFCURVE",
"195 695 CURVE SMOOTH"
);
},
{
closed = 1;
nodes = (
"247 626 OFFCURVE",
"277 596 OFFCURVE",
"277 528 CURVE SMOOTH",
"277 506 LINE SMOOTH",
"277 438 OFFCURVE",
"246 408 OFFCURVE",
"195 408 CURVE SMOOTH",
"143 408 OFFCURVE",
"112 438 OFFCURVE",
"112 506 CURVE SMOOTH",
"112 528 LINE SMOOTH",
"112 596 OFFCURVE",
"143 626 OFFCURVE",
"195 626 CURVE SMOOTH"
);
}
);
width = 390;
}
);
unicode = 00B0;
},
{
color = 4;
glyphname = estimated;
lastChange = "2013-12-12 14:14:31 +0100";
layers = (
{
hints = (
{
place = "{75.000000, 148.000000}";
},
{
place = "{732.000000, 148.000000}";
},
{
horizontal = 1;
place = "{-27.000000, 39.000000}";
},
{
horizontal = 1;
place = "{327.000000, 40.000000}";
},
{
horizontal = 1;
place = "{664.000000, 39.000000}";
}
);
layerId = "3BA737DF-2981-4A42-8A92-02FACC3A7684";
name = Regular;
paths = (
{
closed = 1;
nodes = (
"256 703 OFFCURVE",
"75 545 OFFCURVE",
"75 335 CURVE SMOOTH",
"75 125 OFFCURVE",
"248 -27 OFFCURVE",
"477 -27 CURVE SMOOTH",
"616 -27 OFFCURVE",
"723 25 OFFCURVE",
"796 110 CURVE",
"738 110 LINE",
"682 45 OFFCURVE",
"572 12 OFFCURVE",
"478 12 CURVE SMOOTH",
"384 12 OFFCURVE",
"265 46 OFFCURVE",
"223 109 CURVE",
"223 327 LINE",
"880 327 LINE",
"880 550 OFFCURVE",
"691 703 OFFCURVE",
"477 703 CURVE SMOOTH"
);
},
{
closed = 1;
nodes = (
"595 664 OFFCURVE",
"676 623 OFFCURVE",
"732 562 CURVE",
"732 367 LINE",
"223 367 LINE",
"223 563 LINE",
"274 625 OFFCURVE",
"361 664 OFFCURVE",
"478 664 CURVE SMOOTH"
);
}
);
width = 955;
}
);
unicode = 212E;
},
{
color = 4;
glyphname = paragraph;
lastChange = "2013-12-12 14:14:31 +0100";
layers = (
{
hints = (
{
place = "{20.000000, 82.000000}";
},
{
place = "{194.000000, 86.000000}";
},
{
place = "{385.000000, 86.000000}";
},
{
horizontal = 1;
place = "{313.000000, 75.000000}";
},
{
horizontal = 1;
place = "{610.000000, 73.000000}";
},
{
horizontal = 1;
place = "{-164.000000, 21.000000}";
target = up;
type = BottomGhost;
}
);
layerId = "3BA737DF-2981-4A42-8A92-02FACC3A7684";
name = Regular;
paths = (
{
closed = 1;
nodes = (
"144 683 LINE SMOOTH",
"61 683 OFFCURVE",
"20 636 OFFCURVE",
"20 560 CURVE SMOOTH",
"20 433 LINE SMOOTH",
"20 354 OFFCURVE",
"64 313 OFFCURVE",
"144 313 CURVE SMOOTH",
"194 313 LINE",
"194 -185 LINE",
"280 -185 LINE",
"280 683 LINE"
);
},
{
closed = 1;
nodes = (
"194 388 LINE",
"154 388 LINE SMOOTH",
"117 388 OFFCURVE",
"102 405 OFFCURVE",
"102 458 CURVE",
"102 540 LINE SMOOTH",
"102 594 OFFCURVE",
"117 610 OFFCURVE",
"154 610 CURVE SMOOTH",
"194 610 LINE"
);
},
{
closed = 1;
nodes = (
"385 683 LINE",
"385 -185 LINE",
"471 -185 LINE",
"471 683 LINE"
);
}
);
width = 546;
}
);
unicode = 00B6;
},
